<svg width="55" height="90" viewBox="0 0 55 90" fill="none" xmlns="http://www.w3.org/2000/svg">
<path fill-rule="evenodd" clip-rule="evenodd" d="M42.8219 24.0489C41.9734 23.3585 41.7271 22.0881 41.0976 21.1767C41.3166 21.2319 41.3439 21.0938 41.3713 20.9281C41.4534 21.2319 41.8913 21.1767 42.1377 21.3424C42.3019 21.3148 42.2472 21.011 42.2745 20.8453C42.384 20.8177 42.384 20.9005 42.4114 20.9834C42.4935 20.9834 42.5756 20.9834 42.6577 20.9834C41.5903 22.0329 43.2872 22.6128 43.2325 23.828C42.9861 23.7728 42.8219 23.8556 42.8493 24.0766L42.8219 24.0489ZM24.2103 4.10897C24.0735 4.10897 23.964 4.10897 23.8271 4.10897C23.8271 4.19182 23.8271 4.27468 23.8271 4.35753C23.964 4.35753 24.0735 4.35753 24.2103 4.35753C24.2103 4.27468 24.2103 4.19182 24.2103 4.10897ZM47.5022 13.499C47.3927 13.8856 47.7211 13.8856 47.6117 14.2723C47.7485 14.2723 47.858 14.2723 47.9949 14.2723C47.9675 13.8856 47.8033 13.6095 47.5022 13.499ZM48.9528 16.8683C49.1444 16.896 49.0349 17.1998 49.336 17.1445C49.4455 16.8683 48.9254 16.6474 48.9528 16.8683ZM54.0436 21.8671C54.1531 19.7958 53.4141 21.591 53.9068 22.6404C53.852 22.1986 54.0436 22.1433 54.0436 21.8671ZM54.0162 22.889C54.071 23.248 53.7699 23.9661 54.3721 23.8004C54.1531 23.5794 54.4815 22.8614 54.0162 22.889ZM52.3741 22.0881C52.3741 21.8948 52.0456 21.9776 52.1277 21.7014C52.1551 21.5357 52.1551 20.7624 52.0182 21.1767C52.0182 22.1157 52.0182 23.0271 52.3467 23.6347C52.3467 23.828 52.2646 24.6841 52.4562 24.2699C52.5656 23.4137 52.2919 22.9442 52.3741 22.0881ZM52.8667 28.2468C52.7299 28.2468 52.6204 28.2468 52.4835 28.2468C52.3741 28.6611 52.6751 28.6611 52.8667 28.7716C52.8667 28.6059 52.8667 28.4402 52.8667 28.2468ZM51.8814 26.9488C51.4161 26.8936 51.854 25.9822 51.5256 25.7889C51.5803 28.164 50.9508 30.9257 50.3487 33.3285C49.8013 33.7151 49.8286 34.6818 49.4181 35.2341C49.3086 35.5379 49.5823 35.8417 49.5549 35.3722C51.8266 33.9085 51.1971 30.1525 51.9088 26.9488H51.8814ZM43.4514 44.8451C42.9588 44.8727 42.5208 45.5907 42.6577 45.8393C43.0135 45.6184 43.0956 45.066 43.4514 44.8451ZM17.012 16.6474C16.7109 17.2274 16.1635 17.6416 15.9446 18.553C15.6709 19.7958 16.3825 21.9776 14.9866 22.1157C15.2056 19.6301 14.5761 17.0064 12.0307 17.9454C11.6475 18.7187 11.2096 19.4368 11.3464 20.7624C12.1128 20.7901 12.277 22.7233 11.4285 22.8061C10.2242 21.4253 10.5527 17.6693 12.1949 17.0617C13.9192 16.4817 14.6034 17.7797 15.3424 18.553C15.8625 17.3931 16.1362 15.957 17.5594 15.7913C19.01 16.4265 19.4479 18.0559 20.1322 19.4368C20.2143 16.3436 20.9807 13.9409 23.0882 12.9742C24.4293 13.8304 24.2651 16.095 25.1409 17.3931C25.223 15.8465 25.6609 14.7142 26.3725 13.8304C26.6189 13.8304 26.8926 13.8304 27.1389 13.858C27.6863 15.4046 27.6863 17.5035 28.0421 19.2711C28.5348 19.2158 28.4253 19.7406 29.0548 19.5473C30.3686 17.8073 30.5328 14.8246 32.5034 13.7199C33.7898 14.8523 33.7898 17.255 34.1456 19.2711C35.1309 18.2768 35.2131 16.3712 36.7731 16.0122C37.3205 17.034 37.2658 18.2768 37.3205 19.492C37.7311 19.5473 37.4848 18.8568 38.0869 19.133C38.3606 20.7901 36.8553 22.6404 38.4975 24.0213C39.4554 22.2814 40.7692 20.9281 40.7965 18.1664C41.3166 18.0283 41.125 18.6083 41.426 18.6911C41.6176 19.0501 41.2345 19.3539 41.1524 19.713C40.7144 21.4805 39.7291 24.6565 37.7311 24.6289C37.5121 24.2423 37.4027 23.7728 36.9921 23.5794C35.8699 28.4125 33.9814 33.8256 33.1877 39.4044C32.914 41.3929 32.7771 43.3813 32.5308 45.2869C32.3939 46.364 32.8319 48.3249 31.5728 48.7392C31.3813 48.2697 31.6276 47.6068 31.8739 47.2202C32.1476 42.8842 32.695 39.3768 33.2972 34.8198C33.954 33.1352 34.6657 31.3124 35.0762 29.3515C35.4594 27.4735 35.6236 25.4298 36.2257 23.7451C36.4173 23.1928 36.8279 22.9166 36.8826 22.3643C37.129 20.5967 36.4447 18.8568 36.4994 17.0893C34.912 17.8073 35.4046 20.7348 33.4888 21.1215C33.6803 18.4149 33.2698 16.316 32.3666 14.6865C31.0254 16.0674 30.6423 18.4702 29.5748 20.1272C29.1095 20.2653 28.5621 20.2929 28.179 20.4863C26.4547 19.5196 27.6863 16.2331 26.5368 14.9351C25.743 16.0674 25.962 18.2768 25.0314 19.2711C24.9493 19.2711 24.8672 19.2711 24.7851 19.2711C24.1008 17.6416 23.964 15.4598 23.1155 13.9685C22.1576 13.8856 22.267 14.6865 21.9386 15.3494C21.747 15.7636 21.227 16.1503 21.1449 16.3436C20.8164 17.3655 21.0901 18.6359 20.9259 19.9339C20.4059 19.9339 20.707 20.8453 20.1322 20.8177C20.3785 21.4253 20.7617 22.3643 20.4606 23.1376C21.5007 24.3804 21.5007 26.2031 21.8839 27.7773C21.9933 28.2745 22.3765 28.7163 22.486 29.2135C22.8692 30.8153 23.1429 32.6933 23.3892 34.3503C24.0735 39.2663 24.9767 43.6851 25.0862 48.7668C28.918 49.2087 33.3519 48.9877 36.7731 48.9049C36.9647 48.4906 37.3753 48.3249 37.8132 48.1592C38.0322 48.4906 39.0722 48.5458 39.2091 48.5734C40.7965 45.7841 42.4935 43.1051 44.9568 41.2548C44.8747 40.7576 45.121 40.6472 45.0936 40.2329C46.38 40.3158 46.9274 38.5206 47.9401 37.8578C48.5696 35.1513 50.3487 32.5552 50.7866 29.462C51.0329 27.8326 50.9508 26.0374 50.6497 24.3251C50.5129 23.9109 51.0603 24.2423 50.9234 23.828C50.4034 23.8556 50.814 23.0271 50.7045 22.6681C49.1444 19.6301 47.9127 15.4875 45.8326 13.1952C44.8747 12.1181 43.9988 10.7372 42.9861 9.9363C42.1103 9.24586 41.5629 8.19639 40.2218 8.19639C39.5375 7.42309 38.6617 6.84312 37.2111 6.84312C36.5268 5.82127 34.6383 5.95936 33.5709 5.35177C32.0655 5.37938 30.6423 5.35177 29.9033 4.63371C28.4253 4.7718 26.8378 4.82703 25.1956 4.7718C24.0461 5.407 22.2123 5.29653 20.9807 5.82127C17.3678 5.82127 15.8625 8.03068 13.2897 9.10777C13.2349 9.41157 13.0707 9.57727 13.1528 9.99154C11.7296 10.4887 10.799 11.5381 9.67685 12.339C9.78633 12.919 9.34841 12.9466 9.40315 13.499C7.54199 15.2665 6.44719 17.8073 5.29765 20.3206C4.94184 23.7451 4.47655 28.4678 5.54398 31.2295C6.22823 31.5333 6.06401 32.6657 6.63878 33.0523C7.26829 35.5655 9.12945 36.9188 9.92318 39.2939C11.1822 39.8186 11.5106 41.2548 13.0434 41.5309C14.7129 43.188 16.1635 45.0384 17.0941 47.3859C17.0394 47.8278 17.1215 48.104 17.2036 48.4077C18.8732 48.6287 20.707 48.7115 22.5408 48.7944C22.2397 47.9935 22.1849 46.3364 22.6229 45.5907C22.2123 44.9279 22.1302 42.6633 22.1849 42.3871C21.7744 41.9452 21.966 40.951 21.5828 40.4538C21.1722 34.6265 19.749 29.7658 18.5174 24.7394C17.7784 23.6347 17.3131 21.5357 17.231 20.2101C19.53 25.8165 21.2817 31.92 22.0207 39.0453C22.8966 40.4539 22.7323 42.8842 23.5534 44.3479C23.225 41.89 23.0881 39.6806 22.5681 37.6645C22.8144 36.8636 22.2944 35.7588 22.3765 34.3227C21.6923 32.0581 21.3365 29.462 20.7617 27.1145C20.2417 25.8993 19.9953 24.408 19.8311 22.8614C19.1195 21.6462 17.1762 20.3206 17.8878 18.5806C18.7637 19.492 19.4206 20.6243 19.968 21.8395C19.1742 19.9615 19.3385 17.1721 17.0394 16.7579L17.012 16.6474ZM40.7965 49.8991C41.0429 49.8991 41.3166 49.8991 41.5629 49.9267C41.6724 49.181 40.8787 49.6782 40.7965 49.8991ZM38.388 49.982C38.2511 49.982 38.1416 49.982 38.0048 49.982C38.0048 50.0648 38.0048 50.1477 38.0048 50.2305C38.1416 50.2305 38.2511 50.2305 38.388 50.2305C38.388 50.1477 38.388 50.0648 38.388 49.982ZM31.7644 50.0924C31.3265 50.0924 30.916 50.0648 30.5054 50.0648C30.1222 50.2581 31.1623 50.1753 31.3813 50.2029C32.0381 50.1477 33.6256 50.3962 33.6803 50.12C33.0235 50.12 32.3392 50.1477 32.0381 49.8162C32.0108 49.982 31.9834 50.12 31.7644 50.0648V50.0924ZM40.2491 51.1971C40.1123 51.1971 40.0028 51.1971 39.866 51.1971C39.866 51.28 39.866 51.3628 39.866 51.4457C40.0028 51.4457 40.1123 51.4457 40.2491 51.4457C40.2491 51.3628 40.2491 51.28 40.2491 51.1971ZM29.1917 51.5838C29.1917 51.6666 29.1917 51.7495 29.1917 51.8323C30.3412 51.86 31.4907 51.8876 32.6129 51.9152C31.9834 51.3076 30.2591 51.7771 29.1917 51.5838ZM21.0628 51.7771C21.0354 51.9704 20.7343 51.86 20.7891 52.1638C21.0628 52.2742 21.2817 51.7495 21.0628 51.7771ZM22.0755 51.9152C22.267 52.3847 23.0882 52.1638 23.3345 51.9428C23.3345 52.1085 23.3619 52.2466 23.5808 52.219C23.6903 51.6114 22.3218 51.7495 22.0481 51.9152H22.0755ZM39.7291 52.8266C39.6744 52.6333 38.5796 52.4952 38.7164 52.937C38.7712 53.1028 39.866 53.2685 39.7291 52.8266ZM18.2437 52.9647C18.2163 52.3295 17.2036 52.6333 16.6015 52.5504C16.273 53.6551 17.7236 52.937 18.2437 52.9647ZM15.4245 54.3179C15.6161 53.7656 15.6709 53.0751 15.9719 52.6609C15.4519 52.578 15.3698 52.0809 14.5761 52.2466C14.0834 52.7161 14.0834 54.2075 14.5213 54.815C14.4666 54.2903 15.1235 54.4836 15.4245 54.3179ZM36.7458 56.2236C36.8826 55.3398 37.5121 55.036 37.5669 54.0694C36.9921 53.9865 36.7731 54.2903 36.171 54.1798C36.0615 55.0084 35.3499 55.2569 35.4868 56.334C35.9247 56.3064 36.2257 56.1407 36.7458 56.2236ZM26.181 56.6102C26.3999 56.5274 26.9199 56.7759 26.9473 56.4997C26.7284 56.5826 26.2083 56.334 26.181 56.6102ZM35.1309 54.7598C34.5562 54.677 34.3372 54.9808 33.7351 54.8427C33.3519 55.5331 33.0235 56.2788 32.8045 57.1349C34.2277 56.9968 34.6657 55.8645 35.1583 54.7598H35.1309ZM25.1683 56.7207C24.7577 56.6654 24.6756 56.9968 24.4019 57.0797C24.7303 57.0245 25.1683 57.1073 25.1683 56.7207ZM31.7644 57.5216C31.9834 56.6931 32.5855 56.3064 32.695 55.3674C31.436 55.3398 30.9707 56.1683 29.8759 56.334C30.0128 57.1626 29.6022 57.4387 29.4654 57.9911C30.0949 58.212 30.8065 57.4111 31.7644 57.5216ZM43.2598 55.4779C42.8767 55.5607 43.123 55.036 42.6303 55.2017C42.384 56.555 41.864 57.6321 41.1524 58.5158C42.4387 58.1292 42.6577 56.5826 43.2598 55.4779ZM22.3765 57.0521C24.5388 56.1407 27.0021 55.5607 29.6569 55.1741C30.478 54.7046 31.7097 54.7046 32.7224 54.4836C32.8045 54.2075 32.9687 54.0418 33.2424 53.9865C34.9667 54.097 36.4721 53.6551 37.8406 53.0751C36.3352 52.8542 34.0361 53.4065 33.1603 52.578C30.4507 53.2685 25.8525 52.1638 23.6082 53.7656C23.1155 53.9313 23.6082 53.1856 23.1155 53.3789C21.2544 53.517 19.53 53.7932 18.3805 54.677C17.6141 54.5389 16.3004 54.9255 15.6982 55.395C15.4793 54.9531 14.795 55.6712 14.5487 56.0026C15.1508 56.7759 16.1635 57.1349 16.0267 58.5987C18.271 58.7368 20.1869 57.3835 22.4039 57.0797L22.3765 57.0521ZM20.5701 58.2949C20.4059 58.2949 20.2417 58.2949 20.0501 58.2949C20.0774 58.4882 19.9953 58.7644 20.1596 58.8196C20.2143 58.5711 20.7343 58.8196 20.5427 58.3225L20.5701 58.2949ZM28.3158 58.5987C28.4253 57.853 29.1095 57.6873 29.0001 56.6931C27.8232 56.7207 27.3852 57.5216 26.181 57.5216C25.9894 58.0739 25.5514 58.7368 25.7704 59.3167C26.7831 59.2615 27.2484 58.5987 28.3158 58.5987ZM19.53 58.6539C18.4079 58.7091 17.6415 59.0958 16.7109 59.372C17.8057 59.3167 18.7911 59.0958 19.53 58.6539ZM24.703 59.8139C24.7577 59.0682 25.0862 58.6539 25.2504 58.0187C23.8819 58.3501 22.3492 58.5434 22.4039 60.3938C23.3618 60.4214 23.7724 59.8415 24.703 59.8139ZM41.7271 59.7034C41.7271 59.5653 41.7271 59.4548 41.7271 59.3167C41.2071 59.5377 41.1523 60.2834 40.4407 60.311C40.4955 60.5319 40.2765 61.0566 40.5502 61.0843C41.0429 60.7252 41.1523 59.9796 41.7271 59.7034ZM42.2198 60.7529C41.864 60.5595 41.8366 61.3052 42.2198 61.1395C42.2198 61.0014 42.2198 60.8909 42.2198 60.7529ZM39.647 61.968C39.5375 61.7471 39.6744 61.2776 39.2912 61.3052C38.8259 61.6919 38.2511 61.9404 37.6216 62.1614C38.388 62.189 39.0722 62.1061 39.647 61.9404V61.968ZM21.8018 58.9853C21.227 59.5653 19.8585 59.2891 19.229 59.8139C19.2837 60.8909 18.7089 61.2776 18.5447 62.1061C19.8859 61.9404 22.1576 60.9462 21.8018 58.9853ZM39.127 62.7137C38.4975 63.0451 37.2932 62.7689 36.8279 63.2937C37.43 64.0394 38.4701 62.9623 38.9901 63.5975C39.0449 63.2937 39.2091 63.128 39.127 62.7137ZM17.5047 62.8518C17.751 61.8023 18.1615 60.9186 18.5721 60.0624C17.4226 59.9796 16.8204 60.4767 15.8898 60.6424C15.8077 61.8852 15.0961 62.4099 14.9319 63.5699C16.0541 63.6251 16.4646 62.907 17.5047 62.8518ZM39.5649 64.8955C40.1944 64.8127 40.5776 64.4812 41.2345 64.426C41.125 63.487 41.0155 62.548 39.866 62.6032C39.8112 63.2937 39.0175 64.4812 39.5649 64.8955ZM37.8953 65.6412C37.868 64.8679 39.0449 64.6746 38.5796 63.8737C38.4153 64.4812 37.5669 64.3708 36.8005 64.3432C36.7458 64.9784 36.5268 65.4479 36.2531 65.8621C36.8553 65.8621 37.1837 65.5307 37.9227 65.6412H37.8953ZM43.4788 65.8897C43.1504 65.7517 42.904 66.304 43.2051 66.3869C43.2598 66.1935 43.6157 66.2764 43.4788 65.8897ZM35.0762 66.3316C35.2404 65.5859 35.8973 65.3374 35.8699 64.426C34.0909 64.1498 34.1183 65.8069 33.4066 66.6907C34.1456 66.7735 34.2551 66.1935 35.0762 66.3592V66.3316ZM25.442 65.4755C30.0949 63.6527 35.6783 62.8242 39.5375 60.1453C39.5649 59.7034 39.7838 59.4548 39.9481 59.1234C39.3733 57.273 41.5629 56.2236 41.4534 54.0418C41.1523 53.8208 40.7418 53.7103 40.3312 53.6275C40.0028 54.2075 39.7838 55.5883 38.7712 55.0084C38.6617 54.2903 39.3186 54.3732 39.3186 53.738C39.0175 53.738 38.7164 53.7103 38.4427 53.7103C38.3332 54.5665 37.8679 55.036 37.7585 55.8645C38.8806 55.9198 40.3312 54.4836 41.0702 55.4226C38.5796 56.8311 34.693 56.7207 32.1203 58.0463C29.4654 58.5711 27.0294 59.3167 24.9493 60.4491C24.6482 60.5043 24.6756 60.2005 24.3198 60.311C22.3492 61.4709 19.6395 61.8299 18.0247 63.3765C16.1362 63.1832 15.6709 64.8955 13.8097 64.3155C14.1108 65.365 14.8771 65.945 15.3972 66.8011C19.1195 66.8287 21.7744 66.0002 25.4693 65.5031L25.442 65.4755ZM43.0135 64.4812C42.6577 64.6746 42.5482 65.1441 42.603 65.7517C42.2198 65.6964 42.1924 66.0278 41.8366 66.0002C41.8913 66.4697 41.426 67.0497 41.8092 67.4087C42.1377 66.4421 43.1504 65.5031 43.0135 64.4812ZM33.7351 64.785C32.7224 64.6746 32.3118 65.2269 31.436 65.2545C31.2444 66.1383 30.7517 66.7459 30.5054 67.5468C32.5034 67.6849 32.8592 66.3592 33.7351 64.8127V64.785ZM22.1302 66.9392C20.9533 67.1602 19.5848 67.1325 18.9279 67.8782C19.6943 68.2649 21.3365 67.4087 22.1302 66.9392ZM29.0822 68.3753C29.6022 67.4363 30.3412 66.7459 30.5328 65.4479C28.3432 65.365 27.6589 66.8564 27.2758 68.7067C27.96 68.7067 28.1516 68.1544 29.0548 68.3753H29.0822ZM41.5355 68.7896C41.125 68.762 40.9881 68.9829 40.8787 69.2867C41.1797 69.2039 41.4808 69.121 41.5355 68.7896ZM42.9588 67.9334C42.5209 68.0715 41.9187 68.762 42.3019 69.342C42.4935 68.8448 42.8219 68.4858 42.9588 67.9334ZM27.4947 66.0278C26.7557 66.0555 26.3178 66.1107 25.5788 66.3592C25.6336 67.823 24.1282 68.3477 24.484 69.6734C26.3725 69.3972 27.0294 67.823 27.4947 66.0278ZM41.645 70.0876C41.5082 70.0876 41.3987 70.0876 41.2618 70.0876C41.1524 70.5019 41.4534 70.5019 41.645 70.6124C41.645 70.4467 41.645 70.281 41.645 70.0876ZM23.4713 70.06C23.1976 68.3753 24.8672 68.0163 24.5661 66.7459C23.8271 67.1049 23.0608 67.4363 22.267 67.7125C22.1028 68.9829 21.1722 69.4524 20.9259 70.64C21.9933 70.6676 22.486 70.0876 23.4713 70.06ZM20.1322 70.999C20.2143 69.7286 20.9259 69.121 21.3365 68.2096C19.5848 68.6239 18.1889 69.4248 17.97 71.4685C18.9553 71.579 19.3932 71.1095 20.1322 70.999ZM42.6303 71.3857C42.3293 71.358 42.0008 71.358 42.0008 71.6342C42.2198 71.6342 42.0556 71.9933 42.2472 72.0209C42.384 71.8276 42.6577 71.7723 42.6303 71.3857ZM40.6049 70.8333C39.4828 70.1705 37.5395 71.6895 36.1163 72.0209C37.7585 71.5238 39.4828 71.6618 40.6049 70.8333ZM17.0667 71.8275C17.0941 70.8057 17.7236 70.419 17.8878 69.5353C16.4646 69.9495 15.1782 70.5019 15.0414 72.297C15.9993 72.4351 16.2456 71.8275 17.0941 71.8275H17.0667ZM40.5502 73.2637C40.6323 72.7942 40.8786 72.4628 40.8239 71.8552C40.0302 71.7723 39.5649 72.0209 38.908 72.0761C38.9627 72.7389 38.689 73.0703 38.4975 73.4846C39.3186 73.5675 39.647 73.1256 40.5228 73.2637H40.5502ZM43.5062 72.1866C43.4241 72.7113 42.5208 73.6227 43.0956 73.9817C43.5609 73.7884 43.862 72.7665 43.5062 72.1866ZM38.0322 72.7113C37.868 72.6837 37.7311 72.6561 37.7858 72.4351C37.0742 72.4075 36.7458 72.8218 36.0068 72.7665C36.0615 73.4294 35.4594 73.4294 35.5962 74.175C36.8826 74.175 38.0048 74.0093 38.0322 72.6837V72.7113ZM12.2223 72.877C11.8664 72.877 11.9759 72.6561 11.7022 72.877C11.757 73.3189 12.0854 73.5122 12.3044 73.7884C12.277 73.4846 12.1128 73.2913 12.1949 72.877H12.2223ZM34.5562 74.6722C34.6383 74.1198 35.0762 73.9265 35.1036 73.2637C33.8172 72.9323 32.9413 73.7608 31.5455 73.7056C31.7644 74.0646 32.6403 74.6169 31.9013 75.1141C33.1329 75.3074 33.4066 74.5065 34.5835 74.6722H34.5562ZM16.492 75.0312C18.5995 75.1141 19.9406 74.3684 21.966 74.396C22.1028 74.2579 22.2123 74.1474 22.3492 74.0093C24.8398 73.8436 27.3852 73.1256 29.7391 72.7665C30.6696 72.6285 31.436 72.7665 32.1476 72.5732C32.5855 72.4351 32.8319 72.1313 33.2972 71.9656C35.4594 71.1923 37.7858 70.6676 39.9481 69.9495C39.5101 69.121 40.2765 68.4582 40.6323 68.0439C39.6744 67.3259 41.0976 66.4421 40.9608 65.365C39.0996 65.8897 36.9647 66.1107 35.4594 67.0221C33.8993 66.9668 32.9687 67.5192 32.2571 68.3477C31.6823 68.5687 32.0929 67.823 31.6276 67.9334C27.96 69.2591 23.7998 70.0876 20.3511 71.6618C18.5995 71.7723 16.3004 72.3247 14.7129 73.0703C14.9593 73.4294 15.0687 73.8989 15.2056 74.3684C15.9446 74.2855 16.1909 74.6722 16.4646 75.0312H16.492ZM40.9881 76.1083C40.5502 75.8874 40.1944 76.6606 40.7144 76.6054C40.5776 76.1911 41.125 76.5226 40.9881 76.1083ZM19.6122 76.7711C19.4479 76.7711 19.2837 76.7711 19.0921 76.7711C19.0921 76.854 19.0921 76.9368 19.0921 77.0197C19.2563 77.0197 19.4206 77.0197 19.6122 77.0197C19.6122 76.9368 19.6122 76.854 19.6122 76.7711ZM27.8779 76.0531C27.741 75.8873 27.5221 75.8045 27.6316 75.4178C27.7958 75.0036 28.5895 74.6446 28.918 75.1969C28.918 75.6664 28.48 75.694 28.6443 76.3568C29.4654 75.8321 31.0802 76.1359 31.217 74.8655C30.5328 74.6446 31.0254 74.175 31.3539 73.9817C29.2738 74.175 27.6042 74.8379 25.8525 75.3902C25.8799 76.1635 25.7978 76.8264 25.5514 77.2959C26.5094 77.1025 27.4947 76.9092 27.8779 76.0531ZM24.6756 77.3787C23.9092 77.1301 24.6209 76.3292 24.703 75.8321C23.9914 75.8045 23.7998 76.3568 23.0334 76.3016C23.5534 76.8816 22.9787 77.572 22.8692 78.2072C23.6629 78.152 24.4019 77.9863 24.6756 77.3511V77.3787ZM42.0556 78.5386C42.0829 78.0139 41.7819 77.793 41.4534 77.6273C41.4534 77.9587 41.0429 77.9034 41.0429 78.2625C41.2345 78.3729 41.2345 78.6767 41.5355 78.6491C41.5629 78.4558 41.8366 78.5386 42.0556 78.5386ZM40.1397 79.5329C40.1397 79.7538 40.1123 79.9195 40.0028 80.03C40.5776 80.1957 40.6323 79.5329 40.1397 79.5329ZM17.2857 78.4834C17.0667 78.8701 16.7383 79.1462 16.492 79.4776C17.0394 79.3396 17.0394 79.6986 17.3678 79.7538C17.2857 79.3672 17.5594 78.6491 17.2583 78.4834H17.2857ZM19.2016 78.5386C18.7363 78.4006 18.7911 78.7872 18.5447 78.8977C18.4626 78.4558 18.7363 78.4006 18.6816 78.0139C18.5174 78.0139 18.3531 78.0139 18.1615 78.0139C18.4352 78.732 17.9426 79.7538 18.2163 80.7204C18.3531 80.7204 18.4626 80.7204 18.5995 80.7204C18.8732 80.0852 19.01 79.3119 19.1469 78.5386H19.2016ZM35.5415 80.8309C34.7204 80.61 33.7898 81.4385 32.6129 81.2728C33.4887 81.7423 34.7751 81.1899 35.5415 80.8309ZM39.5102 79.7814C39.7291 79.2291 39.9207 78.6215 39.5375 78.1244C34.4741 79.6434 28.4253 80.1129 23.444 81.7147C29.3559 82.5984 33.4614 79.8091 39.5102 79.7814ZM27.1115 82.9575C27.5221 82.5708 28.0695 83.1232 27.1115 82.9575V82.9575ZM26.0989 82.9299C25.7704 83.0127 25.004 82.6537 25.0862 83.1508C25.4146 83.0679 26.181 83.427 26.0989 82.9299ZM32.0381 84.4764C32.2297 84.4212 32.695 84.6422 32.6676 84.366C32.4761 84.4212 32.0108 84.2003 32.0381 84.4764ZM22.4039 77.3235C21.7196 77.1301 22.2123 78.1796 21.5007 77.9311C21.3365 77.4339 21.8565 76.9921 21.5281 76.7711C21.3912 77.2406 20.707 77.1301 20.2417 77.2406C20.2417 78.7044 19.6395 79.5605 19.53 80.9414C20.269 81.0242 19.8859 81.1899 20.5427 80.969C21.3365 81.8251 22.8692 80.1405 23.4713 80.7757C23.745 80.2786 24.2377 80.0024 24.8946 79.9195C24.9493 80.1129 25.3051 80.03 25.1409 80.4443C26.9473 80.4995 28.8358 79.3396 30.5054 79.2843C30.6696 79.2843 30.6423 79.5605 30.7517 79.5605C30.916 79.5329 31.0802 79.2291 31.2718 79.2015C34.3098 78.7044 37.1563 78.2901 39.5923 76.9644C39.3186 75.5007 40.4407 75.0588 40.7965 73.9265C40.0575 74.1198 40.1397 74.1198 39.4007 73.8989C38.169 75.3074 35.8426 74.0646 34.7751 75.7216C33.8719 75.1417 32.5582 75.7493 31.7097 76.0254C31.6276 76.2464 31.8465 76.7711 31.5728 76.7987C30.3959 76.0807 29.4927 76.854 28.1242 76.9644C28.1242 77.572 28.1242 78.1796 27.7137 78.3729C27.4126 78.3729 27.0842 78.3729 27.0842 78.0968C27.0568 77.8758 27.4674 77.4616 27.1115 77.3235C26.6189 77.6825 25.8525 77.7377 25.3051 78.0415C25.2504 78.5663 25.4146 79.2843 25.0314 79.45C24.8125 79.45 24.5935 79.45 24.4019 79.4224C24.4019 79.0358 24.4293 78.6491 24.4293 78.2625C23.9914 78.5386 23.3071 78.5663 22.7597 78.732C22.8144 79.3948 22.6776 79.8643 22.2123 80.0024C21.6923 80.0852 21.8565 79.5053 21.8565 79.091C21.5554 78.9253 21.5281 79.671 21.3365 79.2015C22.1302 79.0081 21.966 77.8758 22.4039 77.2959V77.3235ZM30.1222 89.9448C29.1917 89.5029 28.1516 89.6962 27.3305 89.3648C26.482 87.5144 24.2651 86.962 22.8418 85.664C20.8164 85.1393 18.5174 84.8907 17.2857 83.6203C15.6161 84.3107 15.1782 82.7365 13.6181 82.9022C13.0981 82.0185 13.1802 80.9414 13.4265 79.9472C13.3718 79.6434 13.1528 79.4776 12.9339 79.2843C12.8518 78.0968 13.1802 76.9644 13.016 76.0807C12.1949 74.8931 11.2096 73.8713 10.799 72.297C10.9085 72.2142 11.1001 72.159 11.319 72.1866C10.4432 71.3304 11.7022 70.06 12.277 69.5077C12.3317 69.121 11.8117 69.2867 11.7843 68.9829C11.8664 68.7067 12.0033 68.5134 12.4138 68.6239C12.4686 67.6297 11.8938 67.2982 11.8391 66.4421C11.3738 66.3592 11.3464 66.7183 10.9359 66.6907C10.9906 66.3869 11.1001 66.1659 11.2096 65.9174C11.2369 65.6412 10.7716 65.8345 10.5801 65.7793C10.7716 64.5641 10.6622 63.9289 9.86844 63.4594C10.3337 62.548 10.9906 61.8299 11.2096 60.67C11.3464 60.7529 11.319 60.9738 11.5927 60.9462C12.2496 59.6481 12.2496 58.0463 11.7022 56.4721C11.538 55.975 11.0727 55.5607 10.9632 55.036C10.9632 54.9808 11.2917 54.3732 10.9906 53.7656C10.9085 53.6275 10.5527 53.4894 10.4979 53.2408C10.0874 51.5838 10.3064 49.3467 12.3591 49.4296C12.6054 47.524 11.5927 46.8059 11.4285 45.3146C9.45789 44.2927 8.77364 42.0004 6.69352 41.0891C4.44918 38.2997 2.20484 35.455 1.19215 31.4781C0.261568 30.2629 0.152088 28.2192 0.288938 25.9546C0.371048 25.6784 0.0426079 25.7612 0.0426079 25.5679C-0.121612 24.8222 0.234198 23.7451 0.343678 23.2756C1.00056 20.7624 0.288938 17.1169 2.28695 15.7636C3.2449 12.3667 5.81768 10.6544 7.43251 7.92021C7.70621 7.97545 7.76095 7.83736 7.95254 7.80974C10.0053 5.407 13.0707 4.10897 15.4519 2.09288C16.5741 1.87194 17.7236 1.70623 18.6542 1.26435C19.0648 1.12626 18.7363 1.67861 19.1469 1.54053C20.5975 0.352965 23.444 0.656759 25.4146 0.0215525C26.3726 -0.0613005 27.6316 0.104406 28.3432 0.352965C30.916 1.20911 34.2004 -0.0336827 35.5689 1.54053C36.0889 1.54053 36.5816 1.56814 37.1016 1.56814C40.8513 3.9985 45.2578 5.82127 47.858 9.38395C50.2392 10.2677 50.4581 13.2228 52.3193 14.6037C52.6478 15.957 53.0583 17.2274 53.8794 18.1111C54.0163 19.7406 54.8373 20.7072 54.5363 22.7509C54.4542 23.0271 54.7826 22.9442 54.7826 23.1376C54.6731 25.7612 55.0016 28.3297 53.852 30.2905C54.1531 33.0247 52.6751 33.8532 52.5656 36.1731C52.073 36.9188 51.334 37.4159 51.115 38.4378C50.5403 38.2997 50.9234 39.2111 50.3487 39.073C49.1718 42.4699 45.3673 43.1052 43.6978 45.9774C43.0135 48.0487 44.1357 48.9877 43.8346 50.8381C43.0682 50.921 43.2325 51.9704 42.6577 52.219C43.2872 53.5723 43.5335 55.3122 45.121 55.7264C44.7652 57.5768 43.2872 58.2673 42.7398 59.8967C43.3967 60.7805 43.5883 62.0785 44.0536 63.128C44.2725 63.1004 44.6831 63.2661 44.5736 62.8794C44.7104 62.9623 44.6831 63.1832 44.9568 63.1556C45.0936 63.5699 44.7378 63.4594 44.6831 63.6527C44.9568 63.846 45.2031 64.067 45.5589 64.1775C45.5589 64.3432 45.5589 64.5089 45.5589 64.7022C44.0809 65.9726 43.7799 68.5134 42.5209 70.0048C43.3419 70.9162 44.4094 71.6066 44.8747 72.877C44.0536 74.5065 42.3019 75.1693 41.5903 76.9092C42.3566 77.0197 42.384 77.8206 43.3419 77.7101C43.643 79.3119 42.8767 79.9471 42.6303 81.2728C41.8913 81.8251 40.8787 82.0461 40.3039 82.7642C39.8933 82.7918 39.7838 82.5156 39.2912 82.6261C38.8259 83.8136 37.3753 84.007 36.3352 84.6145C36.0342 85.4983 34.3098 85.3326 34.8846 86.7687C33.4614 88.0391 32.0108 89.2543 30.0949 90L30.1222 89.9448Z" fill="#ED2E38"/>
</svg>
