<svg width="88" height="90" viewBox="0 0 88 90" fill="none" xmlns="http://www.w3.org/2000/svg">
<path fill-rule="evenodd" clip-rule="evenodd" d="M45.1527 18.7653C44.6928 19.5624 45.1373 20.1909 45.7199 20.4669C45.8885 22.5823 44.9841 23.6247 44.9687 25.5561H44.0336V23.3028C43.4205 23.4407 43.1905 23.9772 42.7153 24.2378C41.4737 23.5634 41.2437 20.6355 41.9642 19.1486H43.0986C43.1139 19.4398 43.0066 19.869 43.2825 19.8997C44.049 19.6544 43.8957 18.5047 45.168 18.7653H45.1527ZM48.1725 47.9521C48.755 47.4615 50.4412 48.9178 48.1725 47.9521V47.9521ZM47.0382 23.2874C47.636 23.4407 47.9426 23.8853 48.5404 24.0386C48.7857 27.6869 47.5287 30.5994 46.8389 33.4507C46.0878 36.5932 45.5666 39.8429 44.0183 42.6788C43.4205 42.8934 43.5891 42.6942 42.884 42.6788V41.9277C41.8722 42.6635 42.562 43.8285 42.884 44.7483C47.728 45.7447 51.7136 47.5995 54.7487 50.4047V51.5391C54.6108 51.8457 53.829 51.4931 53.9976 52.1063C53.7064 52.0296 53.829 51.5084 53.2465 51.723C53.1392 52.4895 53.4151 53.8845 53.2465 54.5436C53.5837 55.5247 54.994 55.7853 54.3808 57.1802H53.8137C52.3267 55.1415 50.7631 53.1946 47.6053 52.8421C47.0841 51.953 45.1067 51.8304 45.7199 50.3894C46.471 50.7113 47.1761 51.0639 47.7893 51.5238C49.5215 50.3741 49.8434 52.8268 51.9282 52.4589C50.3339 49.3317 43.1139 51.2785 44.2023 46.0513C43.3438 46.1432 43.2059 46.9403 41.9489 46.6184C41.7343 45.898 41.443 45.2388 40.9985 44.7329C41.535 39.9502 43.9417 35.3515 44.7694 30.6148C45.1373 28.4534 44.8614 26.016 46.8389 24.7744C46.7162 24.5904 46.4097 24.5751 46.4557 24.2072C46.425 23.6707 47.0228 23.7626 47.0228 23.2721L47.0382 23.2874ZM47.6053 87.8846C48.6631 87.6546 49.5828 88.4518 49.8587 87.5013C48.8317 87.7006 47.9119 86.9035 47.6053 87.8846ZM48.7397 85.4319C51.3916 85.5699 47.7126 84.6808 48.5558 85.8151C48.6017 85.6618 48.5557 85.4472 48.7397 85.4319ZM54.0129 84.6808C52.0048 84.4355 52.8173 85.2633 54.0129 84.6808V84.6808ZM38.3772 85.9991C36.0931 86.0911 34.4223 84.5428 32.5368 84.8647C33.6098 85.8764 37.0129 86.5203 38.3772 85.9991ZM42.1482 84.8647C43.3745 85.2173 44.8154 85.3399 46.4863 85.248C45.7505 84.1749 43.3285 84.5581 42.1482 84.8647ZM53.0779 89.0036C55.1933 90.0613 57.37 88.0685 59.1022 87.5013C62.9652 87.532 64.3755 85.1253 66.8281 83.7304C62.4287 85.6772 57.7379 87.3327 53.0779 89.0036ZM28.9804 84.4815C28.4132 84.6041 27.3555 84.2362 27.0949 84.6654C28.076 85.064 29.1337 85.3859 30.6666 85.2326C30.6819 84.1596 30.59 84.0369 30.4827 83.3471C29.4709 83.4698 29.5016 82.5653 28.4132 82.78C28.03 83.9296 29.2563 83.4391 28.9804 84.4815ZM27.2789 82.4121C26.819 82.3507 26.2211 81.4616 25.7766 82.0288C26.1905 82.1208 26.6963 83.0865 27.2789 82.4121ZM65.1266 83.1632C66.7668 82.2281 68.6523 81.5536 70.2159 80.5266C69.5874 80.7105 69.6027 80.266 69.6487 79.7754C70.829 79.5148 71.9787 78.2119 71.7181 77.1388C69.9399 79.5608 67.1807 81.0171 65.1266 83.1632ZM21.0552 78.2732C19.8902 77.3688 18.8631 75.33 16.9163 75.8205C18.3573 76.449 19.1084 78.7637 21.0552 78.2732ZM12.7621 74.1343C14.0651 74.027 14.0498 76.2344 15.2148 75.6366C14.1724 74.9774 13.5439 72.908 12.3942 72.9999C12.8694 73.0153 12.7621 73.6284 12.7775 74.1343H12.7621ZM81.4981 62.4535C82.3412 61.779 82.3259 60.2767 82.8165 59.2497H82.2493C82.2493 60.568 81.4368 61.0738 81.4981 62.4535ZM85.637 51.907C86.0356 50.4354 85.8056 50.65 86.0202 49.0864H85.4531C85.5451 49.8835 85.2385 52.045 85.637 51.907ZM85.637 48.8871C86.1889 49.1631 86.1889 48.044 85.637 48.32V48.8871ZM83.0004 46.6338C83.9202 46.6951 82.6478 46.7564 83.0004 47.3849C84.0734 47.7068 83.5063 44.5797 83.3836 44.9322C83.5369 45.7753 83.261 46.1892 83.0004 46.6338ZM84.1348 34.585C84.1041 31.9178 83.2763 30.0323 82.2493 28.3767C82.6785 30.6608 83.4756 32.5462 84.1348 34.585ZM76.041 15.9448C76.041 15.1936 75.3512 15.1323 75.1059 14.6264C75.0599 15.4236 75.4891 15.7455 76.041 15.9448ZM73.7876 13.4921C73.7416 12.9709 73.1897 12.9556 73.0364 12.557C73.1591 13.0016 73.2817 13.4308 73.7876 13.4921ZM20.8713 9.53716C19.7369 10.9781 16.993 11.8059 16.7324 13.4921C18.4493 11.6986 20.8866 10.6255 22.7568 8.96998C22.0056 9.0313 21.7604 9.61381 20.8713 9.53716ZM18.9858 9.53716C19.5683 9.10795 20.2274 8.7707 20.6873 8.21885C20.0128 8.41813 18.8018 9.09262 18.9858 9.53716ZM20.8713 8.0349H21.4384V7.65167H20.8713V8.0349ZM71.3502 11.4227C71.5035 10.8861 71.0896 10.9321 71.1663 10.4876C69.0968 9.73644 67.8705 8.12688 66.077 7.09982C67.1041 9.27657 69.9553 9.62914 71.3502 11.4227ZM27.2789 6.14942C26.2518 6.70127 28.7351 5.61289 27.2789 6.14942V6.14942ZM60.8038 9.53716C61.1103 8.61741 59.838 9.26124 60.0526 8.4028C56.205 7.46772 53.2618 5.65888 49.1383 5.01506C48.2645 4.76979 48.5098 5.64355 47.636 5.39829C43.1139 3.94201 36.9056 5.04571 32.9506 5.58224C31.571 6.71659 29.5016 6.42534 27.8614 7.08449C27.3708 7.28377 26.9876 7.97359 26.3591 8.21885C24.1977 9.0313 22.91 10.3496 21.2698 11.4227C20.4574 11.9592 19.4763 12.0971 18.8172 12.557C18.5106 12.7716 18.4033 13.4001 18.066 13.6914C17.5448 14.1359 16.6098 14.2739 16.1805 14.6418C15.3374 15.3469 14.6936 16.6806 13.7279 17.6616C13.268 18.1368 12.4402 18.3361 12.0263 18.796C11.8424 19.0106 12.0263 19.4858 11.8424 19.7311C11.5358 20.145 10.8613 20.3136 10.5241 20.6661C9.77294 21.4939 8.99115 22.9502 8.45463 23.8699C7.87212 24.8817 7.05968 25.4488 6.56914 26.5066C5.28149 29.2658 4.74497 32.3623 3.74858 35.5508C3.67193 35.9953 4.60701 35.4435 4.31575 36.1179C3.57995 38.5859 3.12008 41.3299 2.43027 43.8439C3.2887 45.1928 2.09302 47.7068 2.43027 50.6193C2.99745 50.9872 2.8135 52.1216 2.99745 52.8727C3.22738 52.9647 3.42666 53.072 3.56463 53.256C4.43839 59.2803 7.10566 63.5112 10.3401 67.1902C11.4438 69.6735 13.13 71.559 15.7973 72.4634C17.1923 75.284 21.2085 75.4679 22.3889 78.4878C25.5007 79.1469 28.4592 79.9594 31.0498 81.1244C32.1075 81.2624 33.1959 81.3543 33.3032 82.4427C30.3294 81.6456 27.7694 80.4499 24.4583 79.99C26.0832 80.266 27.4015 81.5536 28.4132 81.8755C29.2103 82.1208 30.0228 81.7682 31.0498 82.0595C31.663 82.2281 32.1382 82.9792 32.7514 83.1938C36.4917 84.5581 40.0787 83.6077 44.6161 83.761C47.7893 83.8683 51.1157 84.3589 53.6604 83.761C54.9174 83.4544 55.9597 82.3201 57.2321 82.6267C57.5233 81.9062 58.4277 81.8142 59.3015 81.6916C60.4512 80.1433 62.7812 79.7754 64.3908 78.6717C68.4377 77.4454 69.894 73.6284 73.0518 71.513C72.8678 70.7619 73.6189 70.9458 73.435 70.1947C76.4702 67.0062 79.0915 62.852 78.8922 57.0116C79.6127 57.1649 79.1068 56.1072 79.8273 56.2605C81.866 50.2208 82.9697 43.3227 81.8967 35.9187C79.3521 27.7942 76.5622 19.915 70.5991 15.209C70.0166 15.071 70.3692 15.8528 69.664 15.5922C68.9129 13.2008 66.6288 12.3577 64.3908 11.4533C64.5441 10.9168 64.1302 10.9628 64.2068 10.5182C62.7812 10.5029 62.0608 9.7671 60.8191 9.58315L60.8038 9.53716ZM30.6666 5.01506C31.3717 4.76979 32.4754 4.95374 32.736 4.26393C31.8929 4.3559 31.3258 4.73913 30.6666 5.01506ZM64.1915 6.14942C61.7235 4.47853 58.1365 3.91136 55.7145 2.19449C53.691 2.39377 52.3574 0.922166 50.6252 1.44336C55.3312 2.70035 60.114 4.89242 64.1915 6.14942ZM55.7145 89.954C54.7947 89.6474 55.1166 89.6474 54.2122 89.954C51.1311 87.8386 47.2528 89.4481 43.4818 89.954C43.6504 89.1109 45.1527 89.6168 45.5512 89.0189C41.3204 88.881 34.1617 88.8656 30.4827 86.9495C30.2834 86.9955 30.36 87.3174 30.0994 87.3327C24.9795 85.0487 19.3383 83.2858 16.5484 78.6717C13.7432 77.3994 11.8271 75.238 10.3401 72.6474C5.51143 68.2479 4.07049 60.4607 1.11196 54.191C0.943337 52.5355 1.23459 50.4354 0.360828 49.485C0.253524 49.0711 0.713399 49.2244 0.744057 48.9178C-0.145035 45.5607 -0.191022 40.5941 0.360828 37.053C0.498791 36.1946 1.23459 35.4741 1.49519 34.6004C1.97039 33.0368 2.00105 31.4426 2.4456 29.8943C2.6602 29.1432 3.30403 28.4227 3.57995 27.6256C4.14713 25.924 4.36174 24.2685 5.28149 22.9195C5.55742 22.521 6.2319 22.3064 6.5998 21.7852C7.61153 20.3749 8.5926 18.1675 9.8036 16.6959C10.0949 16.3433 10.7847 16.144 11.1219 15.7608C11.3978 15.4389 11.4592 14.8564 11.6891 14.6264C12.3482 13.9826 13.2833 13.7374 13.7585 13.1242C13.9731 12.8483 13.8965 12.4344 14.1418 12.1891C14.433 11.8825 14.9849 11.9132 15.2761 11.6219C15.6287 11.254 15.6593 10.6715 16.0272 10.3036C16.3492 9.98171 16.9623 9.72111 17.3456 9.36854C18.9551 7.86628 21.1012 6.48666 22.9867 5.03039C23.7531 4.9844 24.3357 4.73913 24.6882 4.27926C26.2518 4.01866 27.6774 3.6201 28.8271 2.96095C29.6855 3.06825 29.9921 2.6237 30.8965 2.777C31.3564 2.60838 31.4024 2.02587 31.4637 1.45869C34.6369 1.21342 39.8335 -0.212192 43.3285 0.508279C47.0382 -0.365484 50.7172 0.155708 54.8101 0.140379C57.1248 1.1521 59.2708 2.33245 61.9688 2.96095C61.8308 3.54346 62.49 3.32885 62.3367 3.89603C69.9399 7.02318 74.7993 12.8943 79.8426 18.5814C79.7506 19.5011 80.3638 19.6851 80.5937 20.2829C80.747 20.5588 81.0689 20.6815 81.5288 20.6661C81.958 21.9845 82.8778 22.8276 83.0311 24.4371C83.5829 24.6364 83.5063 25.4642 84.1654 25.5715C84.2421 29.695 86.3575 31.7951 86.4188 35.934C87.8138 38.8006 86.5108 43.2154 87.5532 46.4805C87.2159 47.0323 87.6451 47.8294 87.5532 48.7492C87.3846 50.512 86.5568 52.7194 86.802 54.7736C86.0662 55.7393 86.2655 57.6248 86.0509 59.1117C85.3458 58.9737 85.9129 60.1081 85.1158 59.8628C84.5487 62.4995 83.445 64.5996 82.6632 67.0216C81.2529 70.256 77.9878 71.6356 77.206 75.4986C76.0869 76.449 75.3052 77.752 74.5694 79.0703C71.9787 80.8638 69.4494 82.7953 66.4756 84.9107C64.1762 86.5509 63.0878 88.4518 59.1329 88.1145C58.1518 88.8963 56.4349 88.9423 55.7451 90L55.7145 89.954ZM64.1915 67.3588C64.0536 66.669 64.8507 66.8836 65.1266 66.6077C65.6631 64.9521 67.1194 64.2163 67.5793 62.4688C66.2609 63.7871 64.5747 65.7339 64.1915 67.3588ZM36.507 72.632C34.2383 70.0567 32.0156 67.4814 30.2987 64.9061C29.8235 64.8908 29.6395 64.5689 29.3636 64.339C27.7694 63.0053 26.681 58.6978 24.0904 60.2001C27.9687 65.4273 32.4601 70.0261 36.5223 75.0847C37.8866 74.7935 37.9939 75.7439 38.975 75.8358C38.5611 74.2416 37.4881 73.7204 36.5223 72.632H36.507ZM20.6873 66.0405C21.1472 67.9566 23.6918 67.8034 23.7072 70.1794C24.121 70.1487 24.305 70.3327 24.2743 70.7466C25.1021 70.7466 25.7459 70.9152 26.3438 71.1298C22.4195 66.6997 18.4952 62.2848 14.6629 57.7627C15.736 61.4724 17.9281 64.0477 20.6873 66.0558V66.0405ZM13.9118 50.0368C15.1075 51.2785 15.1688 53.6699 16.5484 54.7429C19.6296 60.9512 24.6576 65.2127 28.2293 70.9458V72.0802C28.0147 72.1108 27.6927 72.0495 27.6621 72.2641C30.4673 72.908 32.1995 74.6248 35.388 74.9008C28.0453 66.4237 20.8866 57.7627 13.9118 48.9178V50.0522V50.0368ZM74.738 44.0125C75.2898 47.9214 73.6343 51.0946 72.6685 53.0567C71.9481 54.513 71.5802 56.0765 70.967 57.7627C70.6298 58.6825 69.71 59.5563 69.2655 60.5833C68.407 62.6374 68.2844 64.3849 66.9967 65.4733C69.9246 63.128 70.9977 58.9278 73.0211 55.678C72.9598 54.9268 73.3584 54.6356 73.2051 53.7925C74.646 51.2478 75.4125 46.5571 75.0905 43.43C75.0752 43.7212 75.1212 44.0891 74.7073 43.9971L74.738 44.0125ZM12.7775 53.8078C13.3753 54.2217 13.9271 54.6663 13.9118 55.6933C14.6629 56.0612 15.2608 56.6131 15.4141 57.5788C17.5908 59.357 19.231 61.6717 20.8713 63.9864C22.1896 64.9215 23.232 66.1478 24.259 67.3741C24.443 67.7267 25.2401 67.3895 24.443 67.3741C23.8145 65.7952 22.6341 64.7988 21.6224 63.6032C21.3311 62.6987 20.672 62.1622 20.1201 61.5337C19.3383 59.8628 18.0507 58.6978 16.9163 57.3948C15.4907 53.8691 13.1147 51.2785 12.5782 46.8484C12.7621 46.8484 12.8081 46.6951 12.9461 46.6644C14.9235 47.2009 15.0462 49.577 16.5178 50.6193C16.6098 51.2785 17.2842 51.3705 17.2689 52.1216C18.158 52.2442 18.4186 52.98 18.5872 53.8231C19.7216 54.5743 20.442 55.724 21.0399 57.0269C22.1283 57.3182 22.2356 58.6059 23.1093 59.0964C22.7721 57.9467 23.6305 57.9927 24.0597 57.5941C21.0859 54.7276 19.461 50.5274 16.1499 47.9827H16.5331C15.1841 46.1892 14.0345 44.1964 12.3942 42.7095C11.1679 46.4651 12.5169 49.9909 12.7775 53.8231V53.8078ZM10.708 42.127H11.0913V40.6247C10.3554 40.5174 10.8766 41.6518 10.708 42.127ZM75.1212 40.6247C75.2898 40.732 75.2592 39.5057 74.738 39.6896C74.8146 40.0422 74.4774 40.824 75.1212 40.6247ZM16.1805 45.5147C16.8244 45.1622 16.901 44.2271 18.25 44.5797C16.5484 42.2649 15.2148 39.5823 12.7928 37.9881C11.873 41.9737 14.4943 43.5679 16.1805 45.5147ZM74.0022 35.9033C74.9373 35.5814 74.0328 32.7609 73.435 32.1324C73.6036 33.4047 74.0942 34.3704 74.0022 35.9033ZM58.1825 25.924H58.7496C58.7803 25.5102 58.5964 25.3262 58.1825 25.3569V25.924ZM71.7488 29.695C70.6144 27.2424 69.0968 25.1882 67.2267 23.4867C68.6523 25.6481 69.9706 27.9015 71.7488 29.695ZM21.0859 20.8501C20.9939 21.3253 20.7333 21.6319 20.5187 21.9845C17.2536 23.4254 15.6747 26.5525 13.36 28.9592C13.0687 30.9367 11.6431 31.7645 11.8577 34.2325C11.5665 34.2478 11.7044 34.7077 11.2905 34.6157C11.3978 36.0106 10.5394 38.356 11.4745 39.3217C12.2716 35.5968 13.9578 32.7762 14.8622 29.1585C15.736 29.0359 15.9659 28.2541 16.3645 27.6562C17.8208 27.4723 18.7712 25.7861 18.8172 24.8357C17.6368 26.0467 16.1039 27.9015 14.6783 28.2234C17.0236 25.1116 20.7026 22.3217 22.9714 19.7464C22.4195 20.2063 21.9136 20.6968 21.0859 20.8808V20.8501ZM56.6802 29.1432C56.297 29.0819 56.0977 29.1892 56.113 29.5264C55.3926 29.1278 56.0211 28.1315 55.7298 27.6409C52.2501 22.7662 48.3411 18.3361 44.8001 13.5227C43.5278 13.6301 41.627 13.1089 41.4124 14.2739C40.7839 14.3352 40.2473 14.3045 40.094 13.8906C38.3159 14.0593 36.9209 14.6111 35.0048 14.6418C34.4376 15.5155 32.8893 15.4236 32.3681 16.3433C27.8767 17.1251 25.562 20.0836 22.3889 22.1837C19.1697 26.6905 15.3374 30.5841 13.3446 36.3019C15.1228 39.2911 17.4835 41.7131 19.369 44.595C20.0588 44.5337 20.5953 44.6256 21.0705 44.7789C21.0552 47.1243 22.1742 49.4237 24.0904 50.4354C26.8343 55.6626 30.8046 59.6636 33.8857 64.5536H35.204C35.3113 65.1667 35.1427 65.504 34.8208 65.6879C36.7983 68.1099 38.5765 70.7159 40.6612 73.0306C39.4655 73.3065 38.9137 71.6663 38.0246 70.5779C36.9056 69.2136 35.6639 67.88 34.8208 66.623C34.1157 66.7763 33.4872 67.2208 32.7514 66.807C32.8127 66.0558 33.3645 65.7799 33.6865 65.3047C29.4709 59.6789 25.424 53.8538 21.0705 48.3506C20.5494 48.8258 19.9515 49.2397 18.8172 49.1018C20.7486 52.3209 23.2933 54.9115 25.2247 58.146C27.5854 59.9855 28.7351 63.0513 31.2491 64.7375C31.0958 65.274 31.5097 65.2281 31.4331 65.6879C34.8208 68.1406 36.415 72.3715 40.094 74.5329C40.0634 74.9927 40.0634 75.4373 40.278 75.6672C44.9227 76.311 49.9354 74.6861 54.0283 73.5978C54.0283 73.1532 53.7064 73.0459 53.8443 72.4634C54.6874 72.3561 55.1626 71.8962 56.297 72.0802C58.3511 70.9305 59.884 69.2596 61.7542 67.9413C62.4593 66.669 63.9003 65.8719 64.774 64.7375C65.0346 64.3849 64.8967 63.7871 65.1572 63.4192C65.9697 62.2235 67.4873 61.4724 68.1771 60.3994C68.3304 60.1694 68.1771 59.5103 68.361 59.265C69.0355 58.3759 70.5378 56.2145 70.9977 54.9268C71.5495 53.3786 71.1663 51.5084 72.316 50.4047C72.7452 47.5688 73.1591 44.7176 73.8182 42.1117C73.9255 41.6978 73.4503 41.8511 73.435 41.5445C73.435 39.5057 72.7299 38.264 71.7335 36.8384C70.5991 35.1982 69.4341 33.558 68.1618 31.7491C67.7019 31.1053 66.8894 30.6761 66.4602 30.0476C65.8471 29.1585 65.5865 28.0855 64.958 27.227C62.7506 24.1919 60.0986 21.4786 57.7992 18.9339C58.0445 17.677 59.5928 17.447 60.6198 17.9989C61.8155 20.9421 64.5441 22.3677 65.7091 25.3415C64.4214 24.4218 63.1338 23.5174 62.3214 22.1377C61.7695 22.3064 62.4287 22.7509 62.3214 23.0728C66.3069 27.2424 69.1888 32.5156 72.6839 37.191C73.4963 37.053 72.8525 35.4741 73.0671 34.7383C70.9517 30.0629 67.8092 26.4299 64.9733 22.5056C65.2186 22.1531 65.8164 21.6779 66.2916 22.1224C65.0499 21.2333 63.9922 20.1603 62.3367 19.6697C62.7659 18.1828 61.0797 18.796 60.8344 17.9682C61.8308 17.2324 62.8885 18.2135 63.471 18.7193C63.8083 19.0106 64.6207 19.0259 64.9733 19.2865C65.3259 19.5471 65.2952 20.1603 65.7244 20.4209C66.2456 20.7275 66.9814 20.5895 67.2267 20.8041C67.5026 21.034 67.5179 21.7239 67.7939 21.9385C68.407 22.383 69.4034 22.3064 69.8633 22.8735C69.5874 23.9006 70.4611 23.7933 70.4305 24.5598C72.5766 25.2342 72.8218 27.8095 74.3854 29.0819C75.2285 32.5003 75.3971 36.6085 76.4548 39.8123C76.2402 41.7591 76.7308 44.365 76.4548 46.5878C76.4395 46.6951 75.7497 48.5499 75.5198 49.6076C75.1365 51.2632 74.9986 53.2713 74.3854 55.0648C74.0175 56.1532 73.0671 57.1649 72.6992 58.2686C72.4539 59.0197 72.5766 59.9855 72.316 60.5373C72.2087 60.7519 71.5189 61.0738 71.3809 61.2885C70.6298 62.3922 70.3998 63.2199 69.6794 64.4923C69.5107 64.7988 68.7749 65.0901 68.545 65.4273C67.4413 67.0829 66.2609 68.1253 64.5901 69.5662C62.1834 71.6816 59.8074 73.3525 56.4963 74.8394C54.1509 74.9468 52.5567 75.7898 50.0887 75.7745C47.2988 78.0279 41.673 76.449 37.4728 77.0928C37.6107 75.8205 35.4953 76.8169 35.4033 75.7745C32.4754 75.4986 30.2067 74.5635 28.4285 73.1379C22.3735 72.4021 20.9479 67.0522 16.7477 64.4769C16.8244 63.3885 15.9199 63.2966 15.8126 62.4075C15.2148 62.6221 15.3834 62.4228 14.6783 62.4075C12.6548 59.5869 11.3059 56.1072 9.97222 52.6121C10.3554 50.742 9.34372 46.0053 9.78827 44.1351C9.45103 41.8511 9.88025 38.0954 10.3554 36.0413C10.5394 35.2748 10.2328 34.4624 10.5394 33.7726C10.5854 33.6653 11.1066 33.42 11.1066 33.3894C11.4898 32.1477 11.3825 31.0593 11.8577 30.0016C12.3789 28.8519 13.8505 27.7942 14.4943 26.6139C14.6629 26.3073 14.525 25.7248 14.6783 25.4795C14.8162 25.2802 15.552 24.4524 15.8126 24.1612C18.25 21.3866 21.2085 18.75 24.2897 17.0025V15.8681C24.5503 15.8834 24.8262 15.8988 24.8568 15.6842C25.5313 15.3929 24.9642 16.328 25.424 16.2513C32.1995 11.8672 45.5052 8.5561 53.1085 14.1819C51.1311 15.0557 48.7244 12.2198 46.1337 13.0475C46.9462 15.4849 48.4944 17.2171 50.2726 18.704C51.8975 21.7852 54.2122 24.1919 56.113 26.9971C57.2014 26.7212 56.1897 25.4795 56.8642 24.7284H57.9985C55.6838 21.5246 52.8939 18.796 50.6558 15.5002C50.9778 15.5769 51.0084 15.3469 51.0391 15.117C52.0815 16.328 53.3998 17.2784 54.0436 18.888C57.0634 21.7698 59.1482 25.5868 61.9534 28.6833C61.9841 29.2198 62.2907 29.4651 62.3214 30.0016C64.8507 33.1747 67.1194 36.6238 69.2961 40.1648C69.5721 40.3795 69.756 40.7014 70.2312 40.732C70.1239 41.9737 71.2583 41.9584 71.1663 43.1847C69.0049 40.824 67.5026 37.8195 65.3259 35.4588C64.3295 35.4741 64.0229 36.1639 63.2564 36.4092C62.5513 36.6085 62.9652 35.7041 62.3214 35.842C62.8732 35.0756 62.9192 33.8032 64.2068 33.7726C63.9462 33.0368 63.609 32.347 62.8885 32.071C63.0418 31.5345 62.6279 31.5805 62.7046 31.136C61.1257 30.0783 60.8191 27.7482 59.1329 26.7978C58.9029 27.6869 58.2131 28.1468 57.8146 28.8672C58.7343 31.9024 60.7424 33.8492 62.1527 36.3939C60.0373 34.9989 58.6117 31.2739 56.6955 29.0512L56.6802 29.1432ZM45.5666 64.7375C45.5206 65.3507 45.9038 65.5346 45.7505 66.2398C46.471 66.3931 45.9651 65.3354 46.6856 65.4886C48.6477 65.7799 48.5864 68.6924 48.1878 70.7619C47.4674 71.1604 47.0075 70.5319 46.6856 70.0108C46.1491 70.164 45.8118 70.5166 45.5512 70.9458C44.6315 71.0531 45.1067 69.7655 44.9841 69.0603C44.9381 68.5698 44.6621 69.3209 44.2329 69.0603C44.1256 67.7574 43.2365 64.2163 45.5512 64.7222L45.5666 64.7375ZM58.5657 62.1009C58.7956 63.1126 58.581 63.4192 58.5657 64.5536C57.6153 64.8142 57.5693 64.1703 56.8642 64.1703C56.7415 63.4805 56.4963 62.898 56.4809 62.1009C56.9408 61.733 58.0598 61.917 58.5504 62.1009H58.5657ZM63.4557 56.2605C64.3448 56.1225 64.7434 56.4751 65.5251 56.4444C65.3719 57.2875 65.7704 57.5788 65.7091 58.3299C64.4368 58.6825 63.2258 57.9467 63.4404 56.2605H63.4557ZM69.664 42.8934C69.0968 44.1044 69.1888 44.8096 68.5297 45.9133C66.7208 45.714 66.7515 45.714 64.958 45.9133C64.9426 45.4381 64.9273 44.9476 64.3908 44.9629C65.3105 44.7023 64.728 43.4453 64.958 42.8934C66.3529 42.8321 68.5603 42.0197 69.664 42.8934ZM23.5232 31.7798C23.6918 31.7491 23.7072 31.8564 23.7072 31.9637C24.6729 32.255 25.424 32.7609 26.1598 33.2821C26.1598 33.9719 25.6233 34.1405 25.4087 34.6004C24.1977 34.5544 24.259 33.42 23.14 34.2171C22.7568 33.4047 23.1553 32.393 23.5232 31.7645V31.7798ZM33.1346 26.3226C32.2915 27.7176 30.8812 26.154 30.6819 25.1882C31.5557 23.64 32.874 25.4948 33.1346 26.3226Z" fill="#ED2E38"/>
</svg>
