<svg width="105" height="90" viewBox="0 0 105 90" fill="none" xmlns="http://www.w3.org/2000/svg">
<path fill-rule="evenodd" clip-rule="evenodd" d="M96.7685 74.2664C96.872 74.3928 96.9754 74.5192 97.0904 74.6456C97.642 74.3468 97.2398 73.9561 97.2972 73.6113C96.9524 73.8182 97.2168 74.071 96.7685 74.2664ZM95.1481 76.6914C95.8261 76.1282 95.5503 75.4846 95.7802 74.8755C95.4928 75.1168 95.194 75.3697 94.8952 75.611C95.1366 75.9788 94.9527 76.3121 95.1481 76.6799V76.6914ZM93.0219 76.9672C93.3552 77.1741 94.3781 76.5879 93.8034 76.1052C93.4816 76.1857 93.1828 76.0707 92.8495 76.2546C93.3437 76.5305 92.5277 76.6914 93.0219 76.9672ZM90.436 79.7714C90.8613 78.7601 90.8038 77.7027 90.1372 76.5879C89.8384 76.8408 89.5511 77.0821 89.2523 77.3235C90.0683 78.1739 89.62 78.9095 90.436 79.7599V79.7714ZM99.1935 62.8081C99.274 62.7391 99.3659 62.6702 99.4464 62.6012C99.3085 62.4288 99.159 62.2679 99.0211 62.0955C98.9407 62.1645 98.8487 62.2334 98.7683 62.3024C98.9062 62.4748 99.0441 62.6357 99.1935 62.8081ZM87.6663 71.5886C87.1721 71.3127 87.9881 71.1518 87.4939 70.876C87.2755 71.1174 87.1031 70.9105 86.9077 70.9335C87.1606 71.0944 87.3789 71.8069 87.6663 71.5886ZM69.7145 84.2306C69.5421 84.0467 69.3698 83.7824 69.1514 84.0582C69.0939 85.1845 70.4846 86.5177 70.8408 87.3567C71.5419 86.7475 70.9098 86.6671 70.7374 85.943C70.4846 84.9202 71.0937 83.702 69.4847 82.909C68.8066 83.5181 69.9674 83.564 69.7145 84.2191V84.2306ZM68.3469 83.8743C67.8757 83.5985 68.2894 83.4031 68.1745 83.1618C67.5539 83.2767 68.0251 84.0582 68.3469 83.8743ZM80.2304 73.7262C80.5522 73.9561 80.989 73.0596 81.3223 73.2435C80.7476 72.8298 80.851 72.462 80.3454 72.3356C80.8051 72.8413 79.8857 73.232 80.2189 73.7262H80.2304ZM76.863 76.1167C77.0584 75.7489 77.0469 75.3582 77.1963 74.9789C76.863 75.1858 76.7251 75.4042 76.6677 75.634C77.1733 75.7834 76.3114 76.3466 76.863 76.1167ZM67.2206 82.024C66.8069 81.6218 66.2322 80.1392 65.9564 80.507C66.3816 80.9092 66.3127 82.3343 67.2206 82.024ZM89.1718 57.2456C89.5741 57.4524 89.2867 58.165 89.8039 58.0041C89.4706 57.4984 90.4245 56.51 89.4821 56.3376C89.8499 56.6824 89.2867 56.9468 89.1718 57.2456ZM66.9678 65.302C66.4506 64.1527 65.8759 62.9805 64.8991 62.3139C65.853 63.1988 66.0254 65.1986 66.9678 65.302ZM53.7051 72.531C53.3373 72.2551 52.9466 72.3241 52.5213 72.6574C52.8891 72.9102 53.2684 72.9907 53.7051 72.531ZM55.7393 68.0373C56.0381 68.2327 56.268 69.0831 56.6243 68.5889C56.6587 68.1292 56.0381 67.6006 56.291 67.1638C55.8887 67.4397 56.1416 67.773 55.7393 68.0488V68.0373ZM59.6239 62.4288C59.8997 61.9346 60.0606 62.7506 60.3364 62.2564C59.8882 61.9461 60.6122 61.7392 60.2904 61.4404C60.1296 61.5439 59.9916 61.36 59.8537 61.1646C59.2906 61.5439 59.7733 62.0151 59.6239 62.4288ZM58.9803 59.0959C58.4056 59.0614 57.8885 58.3259 57.2564 58.8316C57.8195 59.0499 58.3941 59.1534 58.9803 59.0959ZM69.4502 45.2011C69.0709 44.9598 69.2548 44.1898 68.7147 44.3162C68.6917 44.5231 69.1169 45.3505 69.4502 45.2011ZM68.9215 42.0061C69.4042 41.5809 70.2087 41.1901 69.5077 40.6615C69.1284 41.0982 68.6112 41.5119 68.9215 42.0061ZM36.0637 66.049C35.9487 65.8652 35.3166 65.1181 35.512 65.6468C35.6269 65.8307 36.259 66.5777 36.0637 66.049ZM24.387 70.0255C24.1801 70.1979 23.9618 70.3703 23.7549 70.5542C23.8813 71.1059 24.9042 70.2554 24.387 70.0255ZM44.1201 53.0967C44.2465 52.9932 44.3729 52.8898 44.4994 52.7749C44.4304 52.6944 44.3615 52.6025 44.2925 52.522C44.1661 52.6255 44.0396 52.7289 43.9132 52.8438C43.9822 52.9243 44.0511 53.0162 44.1201 53.0967ZM43.3386 53.9586C43.7293 53.6483 44.235 53.338 43.7753 52.9473C43.6489 53.0507 43.5225 53.1541 43.3961 53.2576C43.9707 53.5449 43.0283 53.6943 43.3386 53.9586ZM26.5132 67.1753C26.8924 66.8535 26.8579 66.5088 26.72 66.141C26.1569 66.4398 26.4557 66.8191 26.5132 67.1753ZM54.0384 38.7996C54.6475 38.4664 54.2108 38.0411 54.3717 37.6619C54.0729 37.9032 53.7855 38.156 53.4867 38.3974C53.6591 38.6273 53.843 38.7652 54.0384 38.7996ZM24.2721 62.1875C24.3985 62.084 24.5249 61.9806 24.6513 61.8657C24.5824 61.7852 24.5134 61.6933 24.4445 61.6128C24.318 61.7163 24.1916 61.8197 24.0652 61.9346C24.1341 62.0151 24.2031 62.107 24.2721 62.1875ZM23.9388 60.7509C24.4674 60.475 24.5479 59.5671 24.0422 59.5901C23.9618 59.9694 23.9618 60.3601 23.9388 60.7509ZM38.7645 45.1437C38.8909 44.9943 39.1437 44.8678 39.0403 44.6954C38.8219 44.9368 38.6495 44.7299 38.4542 44.7644C38.5576 44.8908 38.661 45.0172 38.776 45.1437H38.7645ZM48.292 36.5356C48.6712 37.1447 49.108 36.9608 49.5332 36.9953C49.1654 36.7309 48.8207 36.2482 48.4414 36.1908C48.4989 36.3172 48.4529 36.4321 48.292 36.5241V36.5356ZM74.3461 33.8463C70.588 32.3522 67.0252 28.6975 63.1751 28.1803C63.0027 28.5711 63.7613 28.5251 63.451 29.0193C62.4971 29.1457 62.2557 30.6742 61.5776 31.6511C61.2558 32.1223 60.6467 32.4326 60.2904 32.9383C59.6698 33.8463 59.5549 35.1334 58.9688 35.9724C58.3137 36.9148 57.7505 37.6044 57.4977 38.0641C57.0495 38.8801 56.3254 39.0985 55.5209 39.2938C53.866 41.2361 52.5673 39.3053 51.0732 39.3628C50.625 38.2825 49.062 38.3514 48.1426 38.1675C47.8667 37.8343 47.5794 37.501 47.2921 37.1562C48.1081 34.9955 45.6716 33.9727 43.9822 33.7083C43.3386 34.3979 41.902 34.306 41.9595 35.3978C41.7526 35.5587 41.5917 35.1564 41.3733 35.4667C41.2239 35.6851 41.5917 35.9494 41.0745 36.1448C39.0633 36.7309 38.1668 39.2594 38.3162 40.7994C38.0289 41.0407 37.7301 41.2936 37.4313 41.5349C38.0634 43.3163 38.2358 43.5806 39.7988 45.1322C41.2354 45.2011 42.649 45.5344 44.0511 45.8677C45.2809 47.2124 45.8095 48.3272 47.0048 49.4075C46.5221 54.1885 40.5803 58.4868 39.2357 63.1988C40.0057 63.4057 40.9021 64.2102 41.2814 65.1296C44.8671 66.6237 48.1885 69.6118 51.464 71.4162C51.8662 69.9336 52.9581 68.5085 53.8315 67.0719C53.774 66.5662 53.1764 66.0031 53.6131 65.5319C51.0847 62.5897 54.5441 57.4065 58.3022 57.5444C59.0033 57.9811 59.7388 57.9926 60.4743 58.0845C60.7846 58.7281 61.4512 58.7166 61.4167 59.2223C61.9914 58.5328 62.6235 59.682 63.1062 59.9579C63.6004 60.2452 64.9565 60.7509 65.4392 61.2221C68.5882 64.2906 68.3239 68.566 66.2782 71.4621C65.3358 71.1059 64.1865 73.1401 63.3131 72.0138C61.5891 72.416 59.8997 73.7607 60.1985 75.4731C61.003 75.588 61.7615 76.2776 62.6235 75.8064C63.7268 78.6796 67.6573 79.2083 70.1283 81.9665C73.3922 78.2544 75.0817 74.3928 77.1044 70.5657C80.2764 68.1752 83.253 67.9224 86.0573 69.7267C86.5974 69.3934 87.0686 69.7727 87.5743 69.7497C87.9651 70.2094 88.3443 70.6691 88.7351 71.1403C88.2409 73.0137 89.9648 73.9561 91.5049 75.4731C92.7921 74.9445 94.1022 74.2779 95.4354 73.255C95.4124 71.5771 96.6651 70.014 97.3892 68.4051C97.2742 67.0374 96.3778 65.5893 96.01 64.1987C93.6655 62.4978 91.2175 62.0266 88.827 60.9807C86.8962 59.3717 88.2409 58.0501 87.9306 56.579C88.2754 56.3721 88.011 56.1193 88.4593 55.9239C88.5397 52.5795 91.5738 49.5109 92.8265 46.27C92.4702 45.7298 92.7576 45.2471 92.3783 44.7069C90.9532 44.0289 89.5511 43.1669 88.2064 41.7648C86.7583 41.8682 85.4597 40.3397 84.0805 39.6501C83.4829 40.2477 82.9887 39.6501 82.4141 39.9719C79.1616 42.6382 80.6787 45.7298 77.9204 48.4421C77.4837 48.1548 76.9435 48.8788 76.4493 49.2466C72.921 49.419 69.1514 48.8328 66.3701 44.3736C66.3357 41.5119 67.5194 38.4664 71.1856 36.2827C71.6683 36.5356 72.197 36.3057 72.7027 36.3057C72.875 35.4782 73.8634 33.9612 74.3231 33.8807L74.3461 33.8463ZM36.9371 42.1785C36.9026 42.8681 37.5462 44.4886 38.4771 44.5345C38.2588 44.0518 37.0865 43.4772 37.9025 43.0865C37.4198 42.8221 37.5807 41.7188 36.9371 42.1785ZM61.1639 16.7795C60.957 16.4921 60.6697 17.1013 60.4284 17.1817C60.5893 17.6069 61.6581 17.2047 61.1639 16.7795ZM55.4175 19.6527C55.9347 19.5607 55.7048 18.8482 55.36 19.0665C55.6014 19.2849 55.3945 19.4573 55.4175 19.6527ZM22.4562 17.4116C23.1113 17.7219 23.3067 18.1586 23.7664 18.4574C23.6515 18.2965 23.548 18.1241 23.8009 17.9977C24.0077 18.2505 24.2261 18.5034 24.433 18.7562C26.6855 19.6297 29.2025 17.6414 31.4091 19.147C31.6619 18.9746 31.9033 18.8826 32.1216 18.9746C35.3626 20.4916 34.4891 24.2843 32.4664 26.8357C29.7196 30.295 25.203 35.0185 21.5942 34.8576C19.8244 34.2945 17.7671 33.9382 17.1235 31.3063C17.4568 30.8696 17.1006 30.3754 17.4798 29.9387C16.5259 27.801 14.6641 27.3528 13.193 26.8701C9.64174 30.6972 6.26287 34.4439 1.60829 38.9146C2.09098 39.5582 2.79204 37.8457 3.32071 38.1331C2.90697 38.5238 2.99891 38.9605 2.63115 39.3513C4.19416 40.9718 5.87211 41.4545 7.43513 43.052C7.59603 42.9485 7.76842 42.7302 7.91783 42.8566C8.1132 43.6036 8.88322 43.4312 9.35443 43.799C13.0666 46.7067 15.0663 51.2119 14.1124 54.6137C13.5608 54.6482 12.9861 55.039 12.446 54.9355C12.354 56.3951 9.51532 56.3376 9.37741 57.9351C9.10158 58.4293 8.94068 57.6018 8.66486 58.1075C8.89471 58.866 8.34306 59.5556 9.04412 60.3601C9.31995 60.8083 9.7107 59.8774 9.97504 60.4406C9.5613 60.7509 9.83712 61.1301 9.30845 61.4289C10.0095 62.3139 10.6991 63.3252 11.5036 63.0264C12.2851 64.7389 14.1239 64.7504 15.3996 65.1296C15.3881 65.4054 15.2272 65.6583 15.6755 65.9686C18.6636 66.6582 20.1691 64.3021 22.2149 62.0036C20.6518 59.2108 21.7436 54.2919 25.7201 54.1425C26.4442 54.7631 27.1797 55.1769 27.9498 55.2803C28.421 55.0504 27.7429 54.7172 28.375 54.4988C29.3289 55.1539 30.2138 56.4755 31.2022 56.8548C31.9492 58.8775 34.7075 59.5211 36.7647 61.1991C37.3853 60.6244 38.1668 59.3832 38.7645 58.4523C38.9483 58.6362 39.1207 58.9005 39.3391 58.6247C40.0861 55.8434 42.718 53.2461 43.9247 50.5108C44.258 50.189 44.5224 50.7292 44.8901 50.1315C44.8556 46.9595 41.902 47.3388 40.339 46.224C39.7643 46.5573 39.2472 46.3044 38.6725 46.5458C37.6841 45.7758 36.6153 46.0631 35.6729 44.7644C35.6384 42.7417 36.7073 40.8109 37.144 38.8226C37.4083 38.5123 37.6152 38.8226 37.8795 38.4204C38.1553 35.9839 40.7297 34.1451 43.0972 32.3522C44.1201 33.0762 45.2579 32.582 46.3382 32.6395C48.338 34.3979 48.4414 35.869 50.4526 37.5584C51.9467 37.386 53.3833 37.8802 55.0268 36.0988C54.5096 34.7312 56.2565 33.5589 57.6931 32.3637C58.0953 30.8007 58.9458 29.2836 60.3249 27.8125C59.1182 26.9391 57.9574 25.5025 56.7162 25.0313C54.59 22.8591 50.602 21.8708 51.2341 18.4689C53.2339 14.9176 61.75 11.4928 57.6356 6.89567C55.7968 5.66594 53.9924 4.02247 52.1536 2.90767C51.6938 3.26395 51.1997 3.99949 50.8434 3.13753C49.0965 4.16039 48.338 5.63146 47.2232 7.02209C47.499 6.57387 47.6829 7.11403 47.9012 7.3209C46.9818 9.14826 46.706 11.0331 45.4303 12.8259C45.1659 12.2628 44.7637 13.2857 44.5224 12.5156C43.3501 13.9178 42.3387 13.4581 41.2354 13.9752C39.6264 12.8259 37.7991 14.0672 36.2475 12.3662C34.3972 12.1134 32.6848 10.4814 30.8459 10.0217C30.4322 9.45856 29.984 9.22871 29.5358 8.97587C27.7889 11.8491 23.2722 14.2855 22.4792 17.4575L22.4562 17.4116ZM30.1449 7.12553C30.5356 6.88418 29.869 6.55089 30.0989 6.30954C32.1676 6.2176 33.995 8.87243 36.1096 8.36675C36.8337 10.0447 38.753 10.1137 38.7874 11.0561C40.6723 11.5732 43.1432 12.4812 44.7867 10.5389C45.5107 9.68842 44.9016 8.30928 46.1084 7.50479C45.8325 4.51666 47.3266 1.40212 50.9813 0C52.9006 1.16077 54.9003 1.39063 56.7392 3.55127C56.9231 3.68918 57.1414 3.39037 57.3483 3.25246C57.877 3.90755 58.3941 4.63159 58.9688 4.67756C59.8767 6.06819 61.2788 7.89554 62.9338 9.94126C62.9913 11.2285 63.5429 12.5616 63.8647 13.8833C63.8302 16.5266 59.7273 19.0895 57.2219 20.2963C56.8771 20.5031 57.7735 20.8134 57.1644 20.9858C63.7153 24.8359 70.2662 28.5021 76.7251 33.3636C76.6907 35.1909 77.9549 37.1332 77.2883 38.9031C76.5298 39.064 76.4608 39.788 75.8747 40.2937C73.9209 40.2133 71.5419 42.7187 70.9558 44.4081C71.8407 45.454 71.289 46.3849 71.2775 47.3503C73.0245 47.8445 74.7943 48.0628 76.6102 47.8215C79.9201 45.6723 78.1847 39.6731 83.1611 38.4778C83.5518 38.1675 83.0806 37.7768 83.5978 37.4665C84.046 37.6044 84.5172 37.6734 85.0114 37.363C85.8734 38.972 87.6663 39.3628 88.9994 39.8225C89.1029 39.9834 88.8615 40.1213 88.7236 40.2592C90.2636 41.7418 91.9531 41.6039 93.4471 43.6036C93.6195 43.3738 93.7689 43.5002 93.9068 43.6496C93.9643 43.4542 93.7919 43.2474 94.0792 43.075C95.1366 45.0402 95.1711 46.9136 96.5962 48.9018C96.7571 49.3845 96.4238 49.8212 97.1708 50.3499C96.872 50.5568 96.8605 50.7866 97.1133 51.0395C94.5045 53.1426 94.1482 55.4412 92.5507 57.6363C92.7461 58.1535 92.7806 57.9351 93.1828 58.3948C92.8035 58.7511 93.1023 59.1649 92.6197 59.5096C93.3092 59.682 93.9413 60.475 94.6079 60.8543C96.6421 60.7968 98.6993 60.3371 100.653 61.1646C102.021 62.6472 103.365 64.3136 104.078 66.0261C103.618 66.1525 104.262 66.911 103.699 66.3479C103.526 66.7156 104.319 67.1868 104.526 67.5891C104.492 69.4509 103.722 71.2553 103.802 73.1286C103.342 73.3585 103.446 73.6458 103.147 73.8871C103.526 75.9903 100.481 77.7717 99.4694 79.7484C97.8604 80.7138 96.2859 81.4724 94.6309 82.9319C92.5392 82.7595 90.3556 83.7249 88.4708 81.2195C85.3677 80.7368 85.7929 76.6914 83.5289 75.0594C78.7479 77.0936 78.1158 82.0815 75.2426 85.4144C75.1047 85.5983 75.4035 85.8166 75.5414 86.0235C74.3576 86.9314 74.1622 87.9198 73.6451 88.8967C72.4728 89.0231 71.6568 89.4024 70.2777 90C68.5653 88.0692 66.6575 85.7477 64.3244 84.6788C63.474 83.2078 61.8765 83.5181 61.3708 82.4263C61.0145 82.07 60.5548 82.8055 60.1985 82.5527C59.9687 81.5988 59.7503 80.6449 59.7503 79.714C59.5664 79.1738 59.2676 79.9553 59.0722 79.4151C58.1413 76.0707 58.7274 71.9908 63.0832 69.8531C63.5084 67.3707 61.6581 63.4747 58.6125 63.7275C58.0953 64.0378 58.1298 64.3826 57.9459 64.7159C58.1298 65.7387 58.2103 66.7616 58.3712 67.7845C56.5438 71.0829 55.0957 74.4158 52.7052 77.6682C52.5673 77.4958 52.4179 77.335 52.28 77.1626C52.1191 77.3809 52.4983 77.6452 51.9812 77.8406C50.1308 78.3463 47.7633 76.1857 45.7636 74.2434C41.3503 71.6001 37.2014 69.0027 33.0296 66.4513C31.3631 65.9341 29.7886 64.44 28.1566 63.4517C27.9727 63.3942 27.7544 63.5666 27.5935 63.2793C27.3406 63.4861 27.0878 63.7045 26.835 63.9114C26.5821 64.4286 27.2602 65.0377 26.697 65.5319C27.0533 65.7732 27.1567 64.6239 27.6624 65.1526C27.1797 67.727 26.4672 70.9565 23.3986 72.3586C23.1113 72.6804 23.3756 73.0596 22.7205 73.347C19.629 71.3127 16.2501 72.5884 13.2735 69.2325C12.8597 69.4624 12.5264 68.8418 12.1127 69.1291C10.2738 66.7156 7.22826 64.4745 8.18216 62.1185C7.50409 60.2682 6.95243 58.4293 8.65337 56.7859C8.46948 56.4181 9.20502 56.1308 8.63038 55.7285C9.84861 54.6137 11.0898 55.3722 11.8024 54.1425C12.0437 53.7288 11.5725 53.3035 12.1587 52.7749C11.3197 50.8786 9.58428 51.051 8.38903 49.2811C6.79153 48.8328 5.35494 46.7067 3.68848 46.994C3.01041 45.7068 2.81503 45.1437 2.43577 43.9599C0.229153 42.9141 -0.575342 40.6615 0.424531 38.995C0.700357 38.5008 0.861256 39.3168 1.13708 38.8226C1.55082 36.685 4.99866 34.8116 6.12495 32.7315C9.06711 30.3524 10.6876 27.847 12.8482 25.3876C13.6412 26.0656 14.4687 26.353 15.3307 26.307C15.8249 27.1804 16.434 26.9966 16.8707 27.3758C18.5946 28.8814 17.5258 31.4902 19.1693 32.9498C19.5026 33.2486 21.3184 33.7313 22.2723 33.5704C22.5366 33.5245 22.9734 32.9843 23.2607 32.9613C23.3411 32.9498 23.6629 33.2486 23.7089 33.2371C26.1684 32.4097 29.3059 28.4446 30.5816 26.8471C30.3403 26.5483 30.0874 26.261 29.8461 25.9622C30.1564 25.2841 30.0414 24.5831 30.2598 23.8935C29.0646 22.4454 27.7199 22.6753 26.3178 23.5487C25.6282 23.4223 24.9731 22.9626 24.1916 23.8245C23.3986 23.1809 22.5481 22.9971 21.7092 22.9051C20.8127 21.2731 20.6288 19.6986 20.7323 18.1471C20.4565 17.7678 20.0427 18.9056 19.7669 18.5264C19.6979 18.1356 19.9623 16.5841 20.33 16.1244C21.2839 14.9521 23.7089 14.7223 24.1227 12.9639C26.2833 11.171 27.7084 9.30916 28.7083 7.41285C29.214 6.97612 29.6392 7.4818 30.1449 7.06806V7.12553Z" fill="#ED2E38"/>
</svg>
