<svg width="121" height="90" viewBox="0 0 121 90" fill="none" xmlns="http://www.w3.org/2000/svg">
<path fill-rule="evenodd" clip-rule="evenodd" d="M87.5459 68.0698C85.5761 68.0583 82.224 67.3096 80.07 67.5284C81.8439 68.3002 85.507 69.2909 87.5459 68.0698ZM102.866 85.0261C101.991 85.5329 104.099 84.3119 102.866 85.0261V85.0261ZM106.149 72.0785C105.804 72.1361 104.825 71.6523 105.239 72.0785C105.562 71.9748 106 72.6084 106.149 72.0785ZM60.7407 55.4793C61.6508 55.6636 62.4686 54.0049 61.6508 53.6593C61.7659 54.6845 60.7062 54.5348 60.7407 55.4793ZM67.3067 38.7074C68.6199 38.6152 68.5968 37.2099 69.311 36.5187C68.9655 35.8852 68.5047 35.3899 68.0324 34.8715C67.6753 36.0349 67.3067 37.1868 67.3067 38.6959V38.7074ZM9.31903 20.8411C9.49182 20.1154 8.78915 20.2767 8.40902 20.1154C8.098 19.4473 7.18798 18.4221 6.40468 18.8368C7.29165 19.5855 8.27079 20.2536 9.31903 20.8411ZM94.6533 85.7518C94.5035 84.9915 95.0104 84.8878 95.0219 84.2888C93.4553 84.9454 92.7065 81.7892 92.2918 80.0959C91.4394 80.1535 90.6561 80.1535 90.4718 79.5545C89.723 80.0152 89.389 80.5106 88.4674 79.9231C88.0182 81.7892 88.3638 84.4386 87.0045 85.3947C88.1219 86.6964 86.0714 87.6525 85.0002 87.952C85.5646 88.2975 85.7144 89.0693 86.0945 89.5877C85.2421 89.3458 85.484 90.1982 84.6316 89.9563C81.89 88.3782 76.2456 89.7144 75.5083 86.1319C78.6992 85.5675 80.5883 87.5142 84.0786 87.5949C85.173 85.0376 84.4588 80.6833 84.9887 77.5616C85.7259 77.3082 85.5646 77.9533 86.083 77.9303C87.7763 76.8359 91.0823 77.3313 92.4646 75.9259C92.8447 76.0872 93.5474 75.9259 93.3746 76.6516C93.5244 76.26 94.0427 76.2254 94.6533 76.283C96.0586 78.2182 96.5309 81.098 97.9362 83.0333C97.2796 83.471 97.5561 84.8418 96.8419 85.2219C98.7771 85.9015 101.346 84.1621 103.039 83.4019C102.613 80.3262 100.298 78.5062 100.851 75.0159C100.079 74.797 100.056 75.3154 99.572 75.3845C99.5489 73.1959 102.083 72.09 103.581 70.8229C103.673 70.1778 103.281 70.0281 103.028 69.7286C103.108 69.3254 103.35 69.072 103.753 69.0029C104.479 70.3506 106.714 70.1778 107.946 71.0072C107.923 71.5717 108.165 71.8827 108.315 72.2859C109.962 72.1591 110.723 72.9194 112.139 73.0116C113.648 72.0209 113.994 69.8783 115.422 68.8186C113.314 67.6436 111.229 66.4571 109.041 65.3513C108.649 64.0496 107.969 63.6234 107.946 62.2526C107.912 59.9488 110.596 57.4146 107.578 56.5967V55.5024C109.997 55.7328 112.957 54.984 114.328 56.0553C114.973 55.4678 115.388 55.9171 115.791 55.6867C117.07 54.9725 116.24 54.051 116.344 52.9566C116.494 51.2403 117.312 49.4318 117.254 47.8536C114.328 47.5311 111.011 49.3166 108.315 48.7636C107.912 45.8838 104.525 45.9875 104.848 42.382C107.543 41.9788 108.419 38.3388 111.955 38.189C110.55 37.2214 110.066 35.3323 108.304 34.7217C108.039 35.6548 109.294 35.0673 109.029 36.0004C108.027 36.2768 107.624 34.9867 108.119 34.3531C107.658 33.4777 106.414 33.3855 106.115 32.3488C104.306 33.5813 102.82 35.1364 101.922 37.2675C98.1897 38.2121 95.8973 36.2768 93.5359 35.2631C93.6856 34.7448 93.2825 34.7909 93.3516 34.3531H92.073C91.1745 30.9089 94.5266 28.6972 95.3559 25.7828C92.8793 24.7346 89.8728 24.2162 87.5114 23.0413C86.7165 25.4257 87.2003 28.7663 85.507 30.8858C85.9908 31.9917 86.1636 31.9571 86.0484 33.2588C84.0556 31.8304 80.3349 33.9845 77.8467 32.8902C77.697 33.5237 76.6603 33.2818 76.1995 33.6159C74.8748 32.2221 74.9439 26.3934 72.7322 25.9556C71.9604 25.8059 71.3154 26.5085 70.7279 26.6813C70.3478 26.7965 69.9331 26.6122 69.6336 26.6813C68.3549 26.9693 67.8481 28.1673 66.1663 28.3171C66.4543 30.5863 68.5047 31.0817 68.9079 33.2358C69.9791 33.9269 69.9907 35.6893 71.4536 35.9658C71.4882 36.9104 71.2232 38.1429 72.0065 38.3388C70.7855 40.0897 68.7005 40.9882 67.9978 43.2575C67.6868 43.3266 67.6523 43.1192 67.6292 42.8888C66.915 44.3403 65.5097 44.3748 63.4362 44.1675C62.5032 42.7852 60.7292 42.2553 58.3332 42.3474C57.2389 43.6837 57.619 46.4944 55.6032 46.909C57.5614 48.4757 59.8998 49.6621 63.4478 49.6391C63.7933 50.2727 64.5306 50.503 64.3578 51.6434C64.4154 52.1273 63.9776 52.1157 63.6321 52.1848C64.5421 54.2007 63.7588 57.3224 62.3534 58.1979C59.3124 58.4398 56.6514 59.0618 54.3361 60.0179C53.9905 60.8127 55.4765 61.573 54.1518 61.6651C54.1287 63.8077 55.3382 64.7408 55.9718 66.2268C60.1648 66.5723 61.5932 63.2548 65.2678 63.6695C66.5925 65.4434 67.4449 67.6897 69.2765 68.9568C69.1843 69.7862 69.599 69.9935 69.2765 70.604C68.8963 70.5234 68.7927 70.7308 68.5508 70.7884C67.9633 70.9496 68.1706 70.3161 67.8251 70.2469C65.7861 71.7905 64.1619 73.7488 62.9063 76.0872C64.3808 77.769 66.5695 78.7481 67.6523 80.8331C69.3801 78.9785 70.8776 76.8935 72.3982 74.8201C73.7574 74.8546 74.6674 74.8777 74.9554 73.5414C76.1189 74.5551 77.5703 75.6725 79.3327 75.5458C79.3212 76.9511 80.0815 77.5962 80.2427 78.8288C76.4414 78.8518 79.206 85.4523 75.4968 85.579C73.9187 83.1024 76.9598 81.1326 76.5912 78.103C75.7848 78.3565 75.0015 78.3219 74.4025 77.9187C73.4925 78.9555 72.617 80.0267 71.4882 80.8331C71.3384 81.4666 71.7646 81.5358 71.6725 82.1117C71.2463 82.1693 70.9928 82.3997 70.3938 82.296C69.8985 83.3212 68.424 83.3558 68.2052 84.669C66.9611 85.3141 65.9705 84.7842 64.9222 84.3004V83.206C62.6299 82.3421 62.0194 79.7848 59.992 78.6444C60.0841 77.2276 59.0935 76.8705 59.2663 75.3615C61.2937 73.9907 62.987 72.2743 64.7379 70.6156C63.9316 69.9014 63.3326 68.9798 62.5493 68.2426C60.5449 69.1526 58.0222 69.5443 56.1676 70.6156C55.8912 70.0396 55.0733 70.0166 54.1633 70.0626C53.9099 69.0835 54.7738 69.2217 54.7047 68.4154C53.714 68.7955 53.2533 67.4478 53.2417 65.8581C52.3087 64.7753 51.4102 62.1489 52.3317 60.3865C52.2626 59.7299 51.7442 59.5111 51.4217 59.1079C51.2259 58.4283 52.0322 58.7508 52.1474 58.3822C50.8457 57.6449 48.7493 58.3015 47.0444 58.5665C46.5836 58.9581 45.8579 60.3865 46.6758 60.9394C46.9177 62.7825 47.102 64.6371 46.8601 66.0424C47.5513 64.591 48.0927 66.6414 48.6801 66.9525C47.7586 69.3715 42.022 66.9755 40.2942 68.5882C39.5224 68.4845 39.0846 68.7149 38.4741 68.7725C37.5065 68.0698 37.1609 67.7818 35.5598 67.8625C35.3294 67.1368 36.1588 67.4939 35.9284 66.7682C35.721 66.3074 35.1336 66.2268 34.6498 66.0424C34.523 63.3124 35.5598 61.1122 35.5598 58.0251C34.0508 58.3015 32.3459 58.2094 30.8139 58.0251C28.5907 58.9697 28.6828 62.2181 27.5309 64.2224C27.4848 64.9366 27.7152 65.3858 28.0838 65.6853C26.9549 69.1757 23.1881 67.5399 21.3336 65.6853C19.4214 65.8927 18.7417 64.879 17.682 64.2224C17.6589 63.2894 17.5898 62.2987 18.0506 61.8494C18.2119 61.262 17.4516 61.596 17.5092 61.1237C18.1427 58.1057 19.7554 56.0783 20.2392 52.9221C19.2831 52.4267 17.417 51.4131 16.0462 50.7334C15.309 51.2172 14.088 51.2057 14.2262 52.5535C13.4429 52.5074 13.3277 53.1064 12.4062 52.9221C10.9432 54.2698 9.58397 56.4354 6.93456 56.0207C6.9576 55.6982 6.71569 55.6406 6.75025 55.295C6.18581 55.2605 5.71352 55.7212 5.28731 55.295C6.16277 52.3807 2.85676 50.9062 2.91436 47.6348C3.04107 47.1394 2.06194 47.7615 2.18865 47.2661C2.09649 46.2064 3.31753 46.4598 3.28297 45.4461C6.57746 44.9738 8.2823 42.9119 10.7589 41.6217C10.9548 40.0206 10.1369 39.4446 10.0332 38.1545C6.57746 38.8571 3.05259 38.9838 0 39.2488C0.886978 35.7354 -0.587479 31.2314 0.910017 28.3055C3.74374 28.0982 6.96912 28.0636 9.29599 28.3055C10.4134 26.7504 10.8972 24.5503 12.2104 23.2025C9.01953 23.0297 5.85175 20.0578 2.91436 18.4566C4.74591 14.9318 7.04975 11.8907 9.4803 8.97632C10.4018 9.78267 11.5883 8.37733 12.579 9.34494C12.6366 9.71355 12.5444 9.90938 12.2104 9.88634C13.823 11.0728 15.3436 12.3515 17.4977 12.985C17.2097 13.8144 17.4055 14.3097 17.682 14.9893C19.2716 14.7359 19.9743 12.6855 21.5063 12.985C21.0686 9.26431 18.2234 7.06414 18.2234 3.5047C21.1838 2.45646 23.4531 0.705539 26.978 0.221733C27.3466 0.164137 27.5539 0.25629 27.5194 0.590347C27.8534 -0.204478 29.973 -0.054728 30.8023 0.221733C30.8369 0.624905 30.6526 0.797693 30.2494 0.774654C31.8506 2.88267 31.6663 5.88918 32.0695 9.34494C31.9427 9.84026 32.9334 9.21823 32.7952 9.71355C32.703 10.4162 31.8736 10.3701 31.3437 10.6236C31.8275 11.2917 33.0716 11.1995 33.5324 11.9022C34.4309 11.3147 35.8708 11.5336 36.8154 11.9022C37.1725 10.4969 37.6332 9.25279 37.9097 8.07783C37.9903 7.73225 37.5756 7.42123 37.5411 7.53642C37.9673 5.9007 39.3957 4.88701 39.5454 2.79051C41.7917 2.83659 44.418 3.97699 46.6528 4.61055C49.4404 4.55295 50.6154 6.11956 51.9401 7.52491C51.5599 8.08935 51.5715 8.21606 52.1244 8.61923C50.2813 10.1858 48.0696 11.3723 47.9314 14.6323C46.9638 14.8857 46.2957 15.4271 45.017 15.358C45.6506 13.2499 46.4569 11.3262 47.5743 9.70203C46.0998 7.59402 43.6463 6.45362 41.1927 5.32474C39.5109 7.53642 39.1192 11.0383 37.5411 13.3421C35.7556 13.8144 34.1659 12.4782 33.1638 13.3421C32.726 12.8929 30.4222 13.7453 29.5237 13.3421C29.374 12.5818 30.0536 12.6625 30.2494 12.2478C29.1205 11.3147 29.6159 8.75746 27.6922 8.59619C27.3811 7.6401 27.4963 5.94677 28.0608 5.31322C27.4618 4.7027 27.7728 3.17065 27.6922 2.03025C27.2659 2.09936 26.8397 2.14544 26.9664 2.75596C23.9369 2.69836 22.3127 4.05763 20.2162 4.9446C20.7115 7.85896 22.3472 10.589 22.7619 12.962C21.6561 14.8857 19.2371 15.5192 18.016 17.3393H15.6431C13.7539 15.1506 12.0952 12.7431 9.80284 10.9576C7.84457 12.2823 7.08431 14.805 6.15125 17.155C9.04257 18.3414 10.2751 21.1752 13.4429 22.0852C13.2701 22.8685 13.9498 22.7878 13.9843 23.3638C13.489 23.3523 13.6157 23.6633 13.2586 23.3638C13.1204 25.5409 11.5998 27.096 12.1643 29.3768C11.3349 29.8952 10.828 30.7131 9.97563 31.1969C9.4803 31.0817 9.26144 30.69 9.24992 30.1025C6.62354 30.2292 4.84958 29.5151 2.31536 29.5496C1.24407 30.5979 1.65876 33.1551 1.58965 35.2055C2.01586 35.3898 1.82003 36.1847 2.68397 35.9313V36.8413C4.45793 37.9701 7.56811 36.2077 8.52421 37.2099C9.27296 36.7376 10.3673 36.6224 11.6229 36.657C11.1275 37.6476 11.381 37.9932 11.9915 38.6613C11.1851 39.7211 13.201 41.8636 12.7172 43.2229C12.3716 43.3727 12.0491 43.5224 11.6229 43.5915C11.4846 43.4303 11.427 43.1768 11.4386 42.8658C9.01953 44.0293 7.16494 45.7686 4.68831 46.8745C5.84023 49.0747 7.23406 51.0214 9.06561 52.5304C10.5861 51.1942 12.8209 50.5722 13.9843 48.8788C17.0369 48.3489 19.5711 48.5909 20.5503 51.2518C21.4833 51.5283 21.3336 50.6989 22.186 50.8832C21.7367 54.5693 20.1816 57.1496 19.4559 60.5478C21.0225 61.7803 23.8678 61.7343 25.8376 62.5521C27.5885 60.2252 27.289 55.8595 29.4892 53.9818C31.1594 54.385 33.014 54.5924 34.4078 55.2605C35.0875 54.6154 36.8154 54.8343 37.3222 55.4448C35.4907 58.1172 38.7391 62.5406 37.5065 64.568C39.0846 66.2613 42.1257 64.1187 44.4411 64.7523C45.7543 62.1144 43.1624 57.5413 44.2568 54.5348C45.8119 54.6845 47.7356 54.1431 48.2654 52.7147C49.7053 52.6226 50.5117 53.1409 51.5484 53.4404C52.0898 55.6406 54.1057 56.3548 55.7414 57.4491C57.8494 56.1014 58.9092 53.6939 60.303 51.6089C59.2317 51.0675 57.3656 49.3511 56.2943 50.5146C56.6975 48.8443 54.002 49.3166 53.9214 47.6002C53.4952 47.8421 53.092 48.107 52.2856 47.9688C52.9538 45.4692 56.7666 43.0732 54.8429 40.3086C55.2461 38.6037 57.6651 40.4583 58.3102 39.5828C60.0265 40.1473 62.6299 41.2416 64.6918 40.3086C64.473 38.3618 64.0237 36.4496 64.8761 34.8369C64.1504 33.9615 60.2685 33.8808 58.4945 34.8369C57.5499 34.3186 57.3887 33.0169 56.3058 32.6483C56.6399 29.5266 54.7277 28.0636 55.3958 25.1723C55.7644 25.2299 55.9603 25.1378 55.9372 24.8037C57.5154 25.2875 59.3584 23.0413 61.4089 22.7994C61.2015 20.1154 58.9437 18.0074 57.4002 16.0491C56.686 16.0146 55.7299 16.602 55.3958 15.8648C54.4973 16.6136 53.3109 17.0628 53.2072 18.5949C52.6312 18.5027 52.5621 18.9289 51.9286 18.7792C51.9401 19.4358 52.7579 19.286 52.6543 20.0578C49.3022 21.1291 49.21 17.4429 46.814 16.9591C46.7334 16.3256 46.8831 15.9339 46.9983 15.4962C48.9566 15.6114 49.5671 17.0628 50.8227 17.8691C52.3778 15.8994 54.5664 14.5631 56.2943 12.7661C57.2389 13.3997 58.1374 12.4321 58.8516 12.5818C59.969 12.8237 59.704 13.6301 60.8559 14.0448V15.1391C62.5262 16.9361 63.4823 19.4473 64.6803 21.705C64.7609 22.0967 64.4154 22.0506 64.1389 22.0737C64.4154 22.3501 64.9568 22.3501 64.8646 22.9837C63.1598 24.9304 60.4412 25.8635 58.1144 27.1767C58.0337 27.8678 58.6903 27.8217 58.8401 28.271C59.0244 28.8239 58.4369 28.5935 58.1144 28.6396C58.483 29.7339 58.0798 30.8167 57.9301 32.2912C59.6925 31.8535 62.0539 32.2221 64.496 32.1069C65.3715 30.69 63.1943 29.5496 64.1274 27.5453C65.8322 27.6144 65.8553 26.1169 67.2261 25.5409C68.6775 24.9304 69.0346 23.456 70.6933 23.3523C71.0619 22.9952 71.4882 22.6957 71.7877 22.258C72.0065 22.2925 72.1102 22.2234 72.1563 22.0737C72.5018 22.2234 72.8935 22.304 73.0663 22.6151C73.5155 22.4538 73.7344 22.0737 74.5292 22.2464C74.4716 22.9722 74.9554 23.168 74.8978 23.8822C76.6603 24.4927 76.188 27.3379 78.5379 27.3494C78.4918 27.672 78.7222 28.2595 78.1693 28.0752C79.1945 29.757 81.1182 31.4157 84.0095 30.6324C83.8022 27.5107 84.8619 22.8224 86.9239 20.7835C90.0686 21.4055 92.7526 22.4883 95.1255 23.8822C96.289 23.3062 96.9341 23.8706 98.0399 24.2508C98.397 24.9304 97.7404 25.5064 98.5813 25.7137C98.5928 26.2782 98.0284 26.2551 97.487 26.2551C97.6022 27.407 96.8189 27.6605 96.2084 28.0752C96.8419 29.1119 95.1025 30.667 95.4826 32.6368C97.199 33.4777 98.2472 34.9752 99.8599 35.9197C102.037 34.3301 103.304 31.8304 105.332 30.0795C105.988 30.3444 106.737 30.4942 106.979 31.1738C110.285 30.7822 110.377 33.6159 112.635 34.2725C112.577 35.9082 114.558 35.505 114.823 36.8297C114.236 37.7282 114.132 38.6843 114.823 39.5598C114.317 39.9169 113.913 39.8132 113.188 39.9284C112.404 40.0551 111.679 41.1264 110.63 41.9328C109.951 42.4626 109.018 42.4396 108.81 43.3957C108.649 44.156 109.121 45.1812 109.352 46.1257C112.013 44.9393 116.344 45.5152 119.385 45.5843C119.546 46.0912 119.489 46.8169 120.111 46.863C120.629 49.9271 119.005 53.2216 119.926 55.249C119.258 55.6176 119.051 56.3548 118.106 55.9747C117.761 56.4124 118.337 57.0229 117.922 57.6104C116.114 57.668 115.123 57.4261 113.545 57.6104C112.9 59.154 112.232 60.6745 112.082 62.7134C113.925 65.3052 119.765 63.9114 119.926 68.185C119.604 68.2887 118.855 67.9661 118.832 68.3693C118.556 68.9683 119.846 69.3715 119.558 70.558C118.993 70.7308 118.417 70.8805 118.648 71.8366C115.975 72.6199 116.425 76.5479 113.902 77.4925C110.216 77.6653 108.868 75.4767 106.242 74.5782C105.147 75.062 104.686 76.1793 102.959 76.0411C104.272 78.4371 104.26 82.1578 106.61 83.5171C106.53 84.1506 106.679 84.5423 106.795 84.98C106.483 85.3371 106.011 85.5329 105.884 86.0743C104.099 85.7172 103.12 87.4566 102.06 87.8944C101.069 88.3091 99.0651 88.5394 97.6828 88.8044C97.487 88.8389 96.4963 89.4955 95.4942 89.173C96.2084 88.1708 94.9067 88.1132 95.6785 86.9843C97.0493 86.6618 94.6648 86.6273 94.5841 85.7057L94.6533 85.7518ZM34.6613 44.179C37.8291 44.0638 39.6145 42.5663 40.6743 40.3546C39.1192 42.0825 36.6311 42.8773 34.6613 44.179ZM44.3259 41.2646C44.2107 40.7117 44.5563 39.698 44.1416 39.4446C44.1761 40.1818 43.6578 40.896 44.3259 41.2646ZM35.9399 35.6087C35.0299 34.7563 34.6267 33.397 33.9356 32.3257C30.9521 31.5309 29.8923 34.0767 29.7426 36.703C30.0766 36.9795 30.307 37.3596 30.284 37.9817C32.2422 38.8456 34.5922 38.8687 35.9399 37.4287V35.6087ZM37.9442 33.6044C37.9442 32.51 36.9651 32.4064 36.6656 31.6C36.7693 32.5907 37.2301 33.2358 37.9442 33.6044ZM40.6858 38.166C41.7801 34.7102 39.9255 32.6368 39.0386 31.0586C38.2898 29.7109 38.2783 29.9413 37.0342 29.2386C36.1357 28.7202 35.3409 27.7411 34.8456 27.5914C33.2329 27.1191 31.4244 27.8448 29.7426 27.2227C28.6482 27.8908 27.9341 28.9391 26.8282 29.5957C26.2177 31.8304 24.582 33.4316 24.6396 35.9773C24.6626 36.8643 25.3538 37.6822 24.8239 38.7189C25.3192 39.1106 25.5841 38.6152 26.1025 38.9032C26.8743 40.8039 28.8556 41.495 29.7541 43.2805C31.4589 43.3381 34.0508 43.3266 34.5 42.7276C31.4129 42.5894 29.708 41.0688 27.7498 39.8132C27.4503 39.2257 27.6576 38.8226 27.7498 38.1775C27.5654 37.7628 27.3696 37.3366 27.024 37.0832C26.8167 34.9176 25.9528 32.9593 27.5654 31.6116C27.7498 31.4618 28.3833 31.577 28.6598 31.4272C29.109 31.1853 29.397 30.5633 29.9384 30.3329C30.5489 30.0795 31.3898 30.2408 32.127 29.9643C32.6915 29.757 32.8528 29.2616 33.4057 29.2386C34.8225 29.1925 35.5022 30.5287 36.873 30.3329V31.2429C38.7506 31.4848 38.8543 33.4431 38.3359 34.3416C39.8219 37.4748 37.2185 40.7348 35.4215 42.3705C37.3568 41.7254 40.0753 40.1703 40.7089 38.1775L40.6858 38.166ZM37.9442 24.1241C38.2783 24.5733 38.8773 24.7691 39.0386 25.4027C41.2963 25.7022 41.6534 27.8908 43.4159 28.6857C43.2661 29.3192 43.6923 29.3883 43.6002 29.9643C44.4296 30.1256 43.9112 30.4136 44.3259 31.0586C44.5678 31.4388 45.4548 32.6483 45.6045 33.4316C46.0307 35.6433 45.5469 40.5965 44.8788 41.6333C43.9573 43.0501 43.6232 44.3057 42.3215 45.6419C41.8953 46.0797 41.5728 46.3101 41.0429 46.7363C40.3863 47.2777 38.9003 48.1646 37.9442 48.5563C32.0349 49.4433 26.4135 47.8191 23.718 43.9947C23.3494 42.1171 22.5892 40.6311 21.7137 39.2488C20.7691 34.1343 22.186 30.5518 24.271 27.5798C27.9456 25.6561 32.2538 23.4214 37.9442 24.1126V24.1241ZM79.517 66.9755V66.0655C79.2521 66.1692 78.5725 65.8466 78.607 66.2498C78.872 66.5378 79.0678 66.8833 79.517 66.9755ZM91.5546 65.6969C91.785 65.4319 92.1766 65.3513 92.6489 65.3282C92.3725 64.7292 93.5129 64.6371 92.8332 64.2339C92.6835 64.8905 90.875 64.8214 91.5546 65.6969ZM85.7144 64.9712C86.8778 65.167 87.2579 64.5795 88.2716 64.6025C87.8454 63.7386 89.0549 63.5773 88.6402 63.3239C87.4538 63.658 86.7626 64.4758 85.7259 64.9712H85.7144ZM94.4689 61.3196C94.1234 61.9877 95.402 60.6975 94.8376 60.5939C94.5841 60.709 94.8145 61.2965 94.4689 61.3196ZM81.5214 60.7666C81.8324 62.149 79.5055 62.3793 78.7913 63.3239C78.7452 63.6695 78.9987 63.7271 78.9756 64.0496C80.6344 63.704 81.4868 62.5521 82.6272 61.6767C81.9706 60.8703 81.1412 60.2483 80.2543 59.6723C78.8489 60.2137 77.9044 61.2159 76.9713 62.2296C77.5012 62.4369 77.6279 63.0244 78.607 62.7825C79.1484 61.6882 80.2427 61.1353 81.5214 60.7782V60.7666ZM86.8087 62.5867C85.6107 62.6212 84.4357 62.6558 83.71 62.2181C82.777 63.0474 81.314 63.3469 80.7957 64.591C83.0995 65.6853 83.8252 63.8077 85.5416 63.3124C86.682 64.1072 87.88 62.0798 89.5503 62.2181C89.5848 62.4369 89.5157 62.7364 89.7346 62.771C91.2205 61.5269 93.2594 60.8242 94.1119 58.9466C92.7526 58.866 92.9369 61.2965 91.5546 60.5823C92.1075 59.0157 93.1442 57.9214 94.8376 57.4837C94.9643 56.804 94.5266 56.7004 94.6533 56.0207C93.9506 55.8595 94.3538 56.8156 93.5589 56.5737C93.294 57.2648 94.3768 56.6082 94.1119 57.2994C91.4394 58.8199 89.5272 61.1007 86.8202 62.5867H86.8087ZM75.6811 59.6723C76.8446 59.488 77.72 57.3109 78.9641 58.3937C78.3536 59.3383 75.1973 60.1216 76.5912 61.3081C77.1326 59.9488 79.4594 59.753 79.6898 58.3937C79.8511 57.4491 78.7798 56.9653 78.7798 55.6636C77.8813 57.1381 75.8078 57.4261 75.6811 59.6723ZM74.2182 57.2994C74.9094 57.4722 74.8863 55.295 74.5868 55.6636C74.8633 56.5967 74.0339 56.4469 74.2182 57.2994ZM90.6331 56.205C91.1514 55.7443 91.186 54.074 90.2644 54.0164C90.1147 54.3965 90.0341 55.9862 90.6331 56.205ZM84.62 55.295C83.7791 55.4102 83.8598 54.6039 83.5257 54.2007C81.6366 56.7349 84.7928 58.9581 87.3616 59.3037C88.4099 57.8523 88.5596 57.6795 88.6402 55.4793C87.6265 54.9149 86.8317 54.1201 85.7259 53.6593C85.4379 54.2813 84.7813 54.5348 84.6316 55.3065L84.62 55.295ZM91.7274 54.7421C92.1306 56.7349 90.9095 57.0805 90.8174 58.5665C91.7274 58.3822 92.0384 57.6104 92.8217 57.2878C92.3264 56.1244 93.8124 55.3641 94.6417 54.9149C94.3538 54.5348 94.2731 53.9473 94.1003 53.452C93.1212 53.6939 92.5913 54.3735 91.7274 54.7306V54.7421ZM83.6985 52.1848C83.7215 51.8969 84.1593 52.0466 84.0671 51.6434H83.5142C83.5488 51.8623 83.4796 52.1618 83.6985 52.1848ZM90.8058 52.9106C90.9441 53.1985 91.3818 53.187 91.3588 53.6363C92.5452 53.786 92.7065 52.9221 93.5474 52.7262C93.6165 51.8623 93.2249 51.4707 92.6374 51.2633C92.096 51.8738 91.2781 52.2194 90.8174 52.9106H90.8058ZM87.5229 50.9062C88.7669 50.5722 89.6424 49.858 90.2529 48.9019C87.9606 48.061 86.2903 49.5585 84.9656 50.7219C86.0023 51.1136 87.7187 52.4728 88.79 51.6319C89.7806 52.9451 91.2321 51.39 91.7043 50.5376C91.4509 50.4915 91.497 50.1344 91.3357 49.9847C89.8728 49.8234 88.4674 52.899 87.5114 50.8947L87.5229 50.9062ZM76.211 55.4678C76.1649 56.205 75.9576 56.7925 75.6696 57.2878C77.4666 56.5276 78.0887 54.6039 80.0469 54.0049C81.1182 51.3094 84.2514 50.6758 86.0599 48.7176C83.6639 47.773 83.2147 50.0423 81.6826 50.5376C80.692 52.1042 78.8374 52.8069 77.674 54.1892C78.1578 54.1316 78.1462 54.5693 78.2154 54.9149C77.2247 54.7767 77.075 55.4793 76.211 55.4678ZM75.6696 49.4548C75.6811 50.8717 73.0778 52.2885 74.9439 53.2792C75.6696 51.0329 77.0404 49.4202 78.5955 47.9919C77.6164 48.4641 76.7409 49.0516 75.6811 49.4548H75.6696ZM78.584 52.1848C80.0008 51.2979 81.1528 50.1344 82.2356 48.9019C80.7841 48.9019 80.3119 49.8925 79.5055 50.5491C79.4825 50.3303 79.4479 50.1114 79.1369 50.1805C78.6992 51.2057 77.1326 52.0581 77.5012 53.2792C77.7892 52.588 78.273 52.1042 78.7798 51.6319C78.7913 51.8853 78.6992 52.0351 78.5955 52.1733L78.584 52.1848ZM94.8145 48.9019V49.9962C97.3027 52.1618 97.6483 56.6889 97.5446 60.9394H96.8189C96.6115 64.7638 93.2134 66.8142 89.8958 68.2311C89.6885 68.3232 89.7 68.6803 89.5272 68.7725C87.4768 69.9014 84.1708 69.7747 81.867 69.3254C78.895 68.7379 77.8122 66.5493 75.8539 64.7638C75.6005 64.4758 74.4716 65.0748 74.0339 64.5795C74.8057 63.2663 75.0821 61.4002 73.4925 60.7551C73.9187 58.866 72.8935 57.357 72.3982 55.8364C72.4558 46.886 81.3371 43.9486 90.0801 45.9875C91.0362 47.5887 93.5705 47.6002 94.826 48.9019H94.8145Z" fill="#ED2E38"/>
</svg>
