<svg width="56" height="55" viewBox="0 0 56 55" fill="none" xmlns="http://www.w3.org/2000/svg">
<path d="M27.9999 51.0521C41.0897 51.0521 51.7011 40.5072 51.7011 27.4994C51.7011 14.4916 41.0897 3.94672 27.9999 3.94672C14.9102 3.94672 4.29883 14.4916 4.29883 27.4994C4.29883 40.5072 14.9102 51.0521 27.9999 51.0521Z" fill="#ED2E38"/>
<path fill-rule="evenodd" clip-rule="evenodd" d="M32.896 5.86624L27.3311 12.3762C25.154 14.9775 22.0562 18.2914 20.0482 20.7896L19.2485 21.7365C18.9757 22.0602 18.6696 22.4159 18.4351 22.6649L13.5651 28.255C12.3679 29.6802 8.82215 33.6109 8.03845 34.9367C7.82987 35.2899 7.70769 35.7891 7.4374 36.0638C6.98816 38.1291 6.53399 38.9742 7.17329 41.4528C7.95452 44.4846 10.3365 46.9105 13.3874 47.7764C15.7496 48.4472 16.9875 47.9836 18.8412 47.6022C19.3805 47.1595 20.6517 46.9694 22.1155 45.4498C22.5573 44.9911 22.9683 44.4674 23.4039 44.0136L28.4567 38.1647C28.8824 37.6251 29.3502 37.1823 29.7735 36.6476C30.1833 36.1288 30.6337 35.7118 31.0423 35.193C31.4495 34.6767 31.8988 34.2548 32.311 33.7385L37.4106 27.8258C37.7315 27.4897 38.3955 26.8201 38.451 26.1639C38.5695 24.756 36.7849 23.6056 35.41 25.4023L34.1425 26.8581C33.2848 27.8859 32.4603 28.8081 31.5594 29.8335L21.3515 41.6466C20.6172 42.5762 19.6237 43.7082 18.5425 44.2945C17.2701 44.9837 15.4151 45.2045 13.9995 44.671L13.7811 44.5594C12.3507 44.2283 10.7302 42.5161 10.3896 41.0812V40.972L10.2797 40.8629C9.50835 38.3634 10.4722 36.5961 11.6632 35.171L15.1547 31.1408C16.9689 29.2153 19.4311 26.0229 21.2737 24.0716L25.6575 18.9684C26.4709 17.9615 27.4002 17.06 28.2394 15.993C29.0244 14.9971 30.0204 14.0307 30.8695 12.9551L36.2036 6.8756C36.6541 6.07596 38.0882 4.94395 38.9151 4.42884C39.8814 3.82665 41.4106 3.30419 42.7805 3.16192C45.9807 2.82833 48.9218 4.21544 50.8273 6.54937C53.7042 10.0742 53.4894 15.0903 50.23 18.7157L49.0415 20.044C49.0304 20.0562 49.0069 20.0844 48.9884 20.1041C48.8489 20.418 48.5157 20.7185 48.2763 21.0153L42.7065 27.4333C42.4177 27.7387 42.2992 27.9521 41.9548 28.3176C41.7203 28.5653 41.4118 28.9259 41.1427 29.2484C38.6189 32.2765 35.7519 35.3893 33.2551 38.3646L24.5258 48.3859C24.3518 48.5392 23.7359 49.0249 23.5162 49.1144C21.4243 51.0498 17.5021 51.9708 14.7573 51.7415C12.8702 51.5845 11.5867 51.1896 10.2094 50.5003C8.56544 49.6786 8.05819 49.2457 6.80921 48.0094C2.35136 43.5942 1.9194 35.9228 6.05266 31.2978C6.25383 30.7974 19.2102 15.9734 20.5012 14.5016C20.885 14.0638 22.3993 12.3578 22.545 11.9592C22.9991 10.7193 21.7514 9.52227 20.4802 10.0202C19.9519 10.2263 18.6721 11.8182 18.2907 12.3026L15.7039 15.2731C15.4904 15.5392 15.4571 15.6153 15.2102 15.8728C14.8696 16.2273 14.4759 16.7043 14.1513 17.1054L7.9286 24.2899C7.55959 24.6799 7.18686 25.1031 6.86351 25.5127C6.67098 25.7567 6.00206 26.5503 5.79471 26.6827L3.85953 28.9406C3.53617 29.3196 3.26218 29.7243 2.96598 30.1168C2.65497 30.5289 2.40567 30.979 2.12304 31.4524C0.807409 33.6551 0.113802 36.1006 -0.000976562 38.551V40.0093C0.174276 43.7426 1.68861 47.379 4.40133 50.0747C6.05759 51.7206 6.05019 51.6728 7.85209 52.8404C10.2032 54.3648 13.3985 55.032 16.3 54.9965C17.9945 54.9756 19.9174 54.4679 21.4515 53.9209C22.424 53.5738 23.415 52.9986 24.2753 52.4884C26.0006 51.4655 26.6387 50.4831 27.7458 49.5584L48.512 25.4869C48.8415 25.1116 49.7042 24.0581 49.9832 23.884C51.0532 22.53 52.2331 21.3305 53.3265 19.9483C55.0137 17.8155 55.8739 15.5343 55.9985 13.101V11.8501C55.9442 10.7622 55.7529 9.64369 55.4296 8.49574C54.8952 6.59352 53.8634 5.24565 52.6848 3.83279L50.7274 2.19057C46.5089 -0.651102 40.8651 -0.803182 36.6392 2.17095C35.2335 3.16069 33.9969 4.53677 32.8948 5.86624H32.896Z" fill="white"/>
</svg>
