<svg width="30" height="30" viewBox="0 0 30 30" fill="none" xmlns="http://www.w3.org/2000/svg">
<path d="M15.0005 30C6.71645 30 0 23.2846 0 15.0005C0 6.71535 6.71535 0 15.0005 0C23.2846 0 30 6.71535 30 15.0005C30 23.2846 23.2846 30 15.0005 30Z" fill="#2E3031"/>
<path d="M16.8736 14.6105H10.8133L10.821 16.3457H14.9072C14.424 18.4589 12.9331 19.7549 10.9305 19.7549C8.30464 19.7549 6.1761 17.6264 6.1761 15.0005C6.1761 12.3746 8.30464 10.246 10.9305 10.246C12.1794 10.246 13.3143 10.7281 14.1633 11.5146L15.5042 10.3589C14.3276 9.19985 12.7129 8.4834 10.9316 8.4834C7.33294 8.4834 4.41455 11.4007 4.41455 15.0005C4.41455 18.5992 7.33294 21.5175 10.9316 21.5175C14.3879 21.5175 16.8845 18.8807 16.8845 15.282L16.8747 14.6094L16.8736 14.6105Z" fill="#FEFEFE"/>
<path d="M25.5841 14.6815H23.0831V12.1794H21.487V14.6815H18.9849V16.2777H21.487V18.7798H23.0831V16.2777H25.5841V14.6815Z" fill="#FEFEFE"/>
</svg>
