<svg width="366" height="61" viewBox="0 0 366 61" fill="none" xmlns="http://www.w3.org/2000/svg">
<path d="M72.4828 36.0012V19.3181L85.4487 36.0012H91.638L78.1309 19.139L90.5093 4.07033H84.4994L72.4846 19.2289V4.07033H67.6055V36.0012H72.4828ZM116.757 17.793C116.757 13.2635 116.124 9.72243 113.64 7.20962C111.425 5.01127 108.49 3.80084 105.146 3.80084C101.85 3.80084 98.9119 5.01113 96.6988 7.20962C93.9883 9.90128 93.582 13.3096 93.582 18.5555V20.6636C93.582 25.418 93.6263 29.7679 96.6988 32.8634C98.9142 35.1052 101.803 36.2694 105.148 36.2694C108.534 36.2694 111.427 35.1045 113.64 32.8611C116.711 29.7211 116.757 25.7322 116.757 20.484V17.7931V17.793ZM111.832 19.7218C111.832 25.1491 111.832 27.9738 109.935 29.9465C108.715 31.2464 107.045 31.9191 105.146 31.9191C105.123 31.9198 105.098 31.9198 105.075 31.9198C103.298 31.9198 101.595 31.207 100.358 29.9472C98.6433 28.2431 98.5066 25.2389 98.5066 21.9635V19.2281C98.5066 15.1488 98.5509 12.0077 100.36 10.1238C101.623 8.82387 103.339 8.15113 105.146 8.15113C106.999 8.15113 108.672 8.82401 109.935 10.1238C111.743 12.007 111.833 14.8782 111.833 19.7218H111.832H111.832ZM147.704 36.0012V4.07176H143.231L128.864 27.2117V4.07019H123.985V36.0011H128.414L142.824 12.8158V36.0011H147.704V36.0012ZM178.922 36.0012V4.07176H173.996V17.7467H160.986V4.07019H156.107V36.0011H160.986V22.0551H173.996V36.0011H178.922V36.0012ZM209.281 17.793C209.281 13.2635 208.647 9.72243 206.164 7.20962C203.948 5.01127 201.013 3.80084 197.671 3.80084C194.373 3.80084 191.435 5.01113 189.222 7.20962C186.511 9.90128 186.105 13.3096 186.105 18.5555V20.6636C186.105 25.418 186.15 29.7679 189.222 32.8634C191.438 35.1052 194.326 36.2694 197.671 36.2694C201.057 36.2694 203.949 35.1045 206.164 32.8611C209.234 29.7211 209.281 25.7322 209.281 20.484V17.7931V17.793ZM204.356 19.7218C204.356 25.1491 204.356 27.9738 202.458 29.9465C201.239 31.2464 199.568 31.9191 197.671 31.9191C197.646 31.9191 197.622 31.9191 197.598 31.9191C195.822 31.9191 194.119 31.2066 192.882 29.9472C191.164 28.2431 191.029 25.2389 191.029 21.9635V19.2281C191.029 15.1488 191.073 12.0077 192.882 10.1238C194.146 8.82387 195.862 8.15113 197.671 8.15113C199.522 8.15113 201.194 8.82401 202.458 10.1238C204.267 12.007 204.356 14.8782 204.356 19.7218ZM235.348 8.41977V4.07019H212.76V8.42049L221.613 8.41977V36.0011H226.493V8.41977H235.348H235.348ZM264.622 36.0011V4.07162H260.149L245.783 27.2116V4.07004H240.906V36.0009H245.332L259.743 12.8156V36.0009H264.622V36.0011ZM306.684 36.0011V4.07162H301.758V17.7466H288.748V4.07004H283.868V36.0009H288.748V22.0549H301.758V36.0009H306.684V36.0011ZM338.668 36.0011L326.921 4.07162H322.992L311.201 36.0011H316.352L318.609 29.5885H331.304L333.564 36.0011H338.668H338.668ZM329.994 25.4615H320.01L325.071 11.2906L329.995 25.4615H329.994ZM366.001 27.0321C366.001 23.3988 364.328 21.1112 361.166 19.6322C364.013 18.2412 365.503 15.9096 365.503 12.6806C365.503 7.47897 361.662 4.07033 355.791 4.07033H343.276V36.0012H356.288C362.296 36.0012 366.001 32.549 366.001 27.0323L366.001 27.0321ZM360.625 12.9946C360.625 15.8658 358.636 17.5694 355.385 17.5694H348.155V8.41977H355.385C358.636 8.41977 360.625 10.1238 360.625 12.9946ZM361.075 26.7633C361.075 29.7676 359.044 31.6512 355.79 31.6512H348.155V21.9197H355.79C359.044 21.9197 361.075 23.8029 361.075 26.7615V26.7633ZM90.6597 48.2366H91.9177V53.4557L98.3112 53.4564V48.2373L99.5671 48.2366V60.6841L98.3094 60.6848V54.6706H91.9177V60.6864H90.6597V48.2389V48.2366ZM108.588 47.9263C110.487 47.9263 112.075 48.5552 113.354 49.8132C114.631 51.0712 115.272 52.6193 115.272 54.4566C115.272 56.2784 114.634 57.8246 113.36 59.0925C112.083 60.3623 110.528 60.9988 108.69 60.9988C106.833 60.9988 105.265 60.3665 103.986 59.1019C102.761 57.9263 102.068 56.3073 102.068 54.6177C102.068 54.5854 102.068 54.5491 102.068 54.5168C102.068 53.3194 102.361 52.212 102.943 51.1903C103.502 50.1942 104.328 49.3631 105.326 48.7934C106.304 48.225 107.42 47.9253 108.554 47.9253C108.566 47.9253 108.577 47.9253 108.589 47.9253L108.588 47.926L108.588 47.9263ZM108.644 49.1389C107.719 49.1389 106.839 49.3786 106.005 49.8593C105.176 50.3396 104.528 50.9838 104.06 51.7943C103.602 52.6037 103.36 53.517 103.36 54.4456C103.36 54.4681 103.361 54.4917 103.361 54.5142C103.361 55.9894 103.877 57.2402 104.91 58.2561C105.869 59.2331 107.189 59.7851 108.566 59.7851C108.592 59.7851 108.621 59.7844 108.646 59.7844C109.619 59.7844 110.519 59.5503 111.345 59.081C112.159 58.6301 112.83 57.9636 113.285 57.1597C113.74 56.3543 113.979 55.4442 113.979 54.5206C113.979 54.4982 113.978 54.4745 113.978 54.4528C113.978 53.465 113.747 52.5714 113.285 51.7748C112.819 50.9735 112.14 50.3102 111.326 49.8586C110.515 49.3875 109.59 49.1382 108.649 49.1382C108.648 49.1382 108.646 49.1382 108.645 49.1382L108.644 49.1389H108.644ZM117.825 48.2366H120.296C121.292 48.2366 122.057 48.3529 122.589 48.5877C123.126 48.8219 123.548 49.1829 123.856 49.6684C124.168 50.1503 124.322 50.692 124.322 51.281C124.322 51.8333 124.185 52.3369 123.914 52.7924C123.645 53.246 123.245 53.6121 122.72 53.8937C123.375 54.1152 123.876 54.3703 124.222 54.6698C124.575 54.963 124.846 55.324 125.041 55.7448C125.235 56.1641 125.336 56.6193 125.336 57.1115C125.336 58.1103 124.969 58.9566 124.232 59.6469C123.494 60.3384 122.508 60.6857 121.27 60.6857L117.825 60.6864V48.2389V48.2366ZM119.048 49.4515V53.4392H119.767C120.64 53.4392 121.283 53.3569 121.693 53.1995C122.497 52.8945 123.029 52.1317 123.03 51.281C123.03 50.711 122.83 50.2627 122.428 49.9372C122.023 49.6129 121.384 49.4508 120.503 49.4508L119.048 49.4515H119.048ZM119.048 54.6877V59.4722H120.605C121.521 59.4722 122.194 59.383 122.621 59.2057C123.049 59.0285 123.392 58.7482 123.652 58.3686C123.906 58.0076 124.043 57.5792 124.044 57.1404C124.044 56.5854 123.859 56.0994 123.495 55.6877C123.133 55.2756 122.632 54.9939 121.992 54.8398C121.566 54.7389 120.821 54.6869 119.758 54.6869L119.048 54.6876V54.6877ZM133.795 47.9263C135.695 47.9263 137.283 48.5552 138.562 49.8132C139.839 51.0712 140.48 52.6193 140.48 54.4566C140.48 56.2784 139.842 57.8246 138.567 59.094C137.29 60.3616 135.736 60.9981 133.898 60.9981C132.04 60.9981 130.473 60.3658 129.194 59.1012C127.97 57.9263 127.278 56.3082 127.278 54.6193C127.278 54.5854 127.278 54.5498 127.278 54.5168C127.278 53.3194 127.567 52.212 128.151 51.1903C128.711 50.1935 129.535 49.3631 130.534 48.7929C131.512 48.2249 132.627 47.9253 133.762 47.9253C133.773 47.9253 133.785 47.9253 133.797 47.9253L133.796 47.926L133.795 47.9263ZM133.852 49.1409C132.927 49.1409 132.047 49.3795 131.213 49.8595C130.384 50.3397 129.735 50.984 129.267 51.796C128.812 52.6042 128.57 53.5171 128.57 54.4443C128.57 54.4675 128.571 54.4911 128.571 54.5145C128.571 55.992 129.085 57.2405 130.118 58.2563C131.078 59.2334 132.397 59.7854 133.775 59.7854C133.801 59.7854 133.829 59.7847 133.855 59.7847C134.828 59.7847 135.727 59.5505 136.554 59.0829C137.383 58.614 138.03 57.9732 138.493 57.1593C138.949 56.3523 139.189 55.4415 139.189 54.5172C139.189 54.4963 139.188 54.4734 139.188 54.4523C139.188 53.4646 138.957 52.5726 138.493 51.7744C138.027 50.974 137.349 50.3105 136.535 49.8589C135.724 49.3885 134.8 49.1399 133.86 49.1399C133.858 49.1399 133.855 49.1399 133.853 49.1399L133.852 49.141L133.852 49.1409ZM143.015 48.2389H150.193V49.4515H144.273V53.3534H150.141V54.566H144.273V59.4744H150.141V60.6885H143.014V48.2411L143.015 48.2388V48.2389ZM157.179 48.2389H166.087V60.6864H164.829V49.4168H158.44V60.6864H157.182V48.2389H157.179H157.179ZM169.129 48.2389H171.629C173.063 48.2389 174.031 48.298 174.532 48.4242C175.247 48.5992 175.832 48.9579 176.287 49.5049C176.743 50.0482 176.97 50.7324 176.97 51.5562C176.97 52.3853 176.749 53.0676 176.304 53.607C175.861 54.1446 175.25 54.507 174.474 54.6935C173.901 54.8292 172.84 54.8955 171.283 54.8955H170.386V60.6864H169.128V48.2389H169.129ZM170.386 49.4515V53.6837L172.511 53.708C173.37 53.708 173.999 53.6318 174.399 53.4739C174.796 53.3172 175.111 53.0693 175.337 52.7229C175.56 52.3821 175.679 51.9861 175.679 51.5812C175.679 51.5739 175.679 51.5661 175.679 51.5588C175.679 51.1418 175.565 50.7583 175.338 50.4098C175.124 50.0747 174.808 49.8151 174.437 49.6699C174.063 49.5227 173.455 49.4506 172.606 49.4506L170.386 49.4513V49.4515ZM185.445 47.9263C187.342 47.9263 188.932 48.5552 190.211 49.8132C191.488 51.0712 192.128 52.6193 192.128 54.4566C192.128 56.2784 191.492 57.8246 190.216 59.094C188.938 60.3616 187.385 60.9981 185.547 60.9981C183.69 60.9981 182.12 60.3658 180.843 59.1012C179.617 57.9263 178.924 56.3073 178.924 54.6179C178.924 54.5855 178.924 54.5493 178.924 54.5169C178.924 53.3195 179.216 52.2145 179.797 51.1905C180.356 50.1928 181.183 49.3626 182.183 48.7931C183.159 48.225 184.275 47.9255 185.409 47.9255C185.421 47.9255 185.433 47.9255 185.444 47.9255L185.445 47.9262L185.445 47.9263ZM185.5 49.1409C184.576 49.1409 183.695 49.381 182.861 49.8595C182.032 50.3397 181.384 50.984 180.916 51.796C180.458 52.605 180.217 53.5187 180.217 54.4473C180.217 54.4691 180.218 54.4927 180.218 54.5136C180.218 55.9911 180.731 57.2396 181.766 58.2555C182.727 59.2332 184.045 59.7852 185.422 59.7852C185.448 59.7852 185.476 59.7845 185.501 59.7845C186.476 59.7845 187.375 59.5504 188.201 59.0827C189.013 58.6318 189.684 57.9662 190.139 57.161C190.596 56.3537 190.837 55.4414 190.837 54.5155C190.837 54.4957 190.836 54.4732 190.836 54.4545C190.836 53.4653 190.603 52.5732 190.139 51.7743C189.673 50.9738 188.994 50.3104 188.18 49.8587C187.368 49.3891 186.445 49.1402 185.505 49.1402C185.503 49.1402 185.502 49.1402 185.5 49.1402V49.1409ZM206.33 50.5358L205.34 51.291C204.824 50.6071 204.15 50.0571 203.376 49.6849C202.61 49.3269 201.773 49.1398 200.926 49.1398C200.903 49.1398 200.879 49.1402 200.856 49.1402C200.845 49.1398 200.834 49.1398 200.822 49.1398C199.862 49.1398 198.916 49.3875 198.081 49.8564C197.228 50.3326 196.569 50.9734 196.101 51.7781C195.639 52.5829 195.396 53.4936 195.396 54.4191C195.396 54.4432 195.397 54.4682 195.397 54.4911C195.397 56.0122 195.921 57.28 196.968 58.2937C198.016 59.312 199.337 59.8189 200.936 59.8189C202.691 59.8189 204.159 59.138 205.34 57.7738L206.33 58.5194C205.704 59.3085 204.924 59.9207 203.989 60.3514C203.038 60.7773 202.003 60.9991 200.957 60.9991C200.924 60.9991 200.889 60.9984 200.857 60.9984C198.663 60.9984 196.931 60.2745 195.664 58.8214C194.602 57.6015 194.068 56.1201 194.068 54.3892C194.068 52.5686 194.712 51.0338 195.999 49.7912C197.29 48.5462 198.902 47.9252 200.84 47.9252C202.011 47.9252 203.067 48.1543 204.01 48.6116C204.931 49.0534 205.73 49.7148 206.33 50.5352V50.5359L206.33 50.5358ZM207.605 49.4516V48.239H214.468V49.4516H211.673V60.6872L210.4 60.6865V49.4532L207.605 49.4539V49.4516H207.605ZM216.283 48.239H218.783C220.215 48.239 221.184 48.3005 221.685 48.4243C222.401 48.5993 222.987 48.958 223.439 49.505C223.898 50.0483 224.123 50.7325 224.123 51.5563C224.123 52.3854 223.903 53.0678 223.457 53.6072C223.016 54.1447 222.403 54.5072 221.626 54.6936C221.057 54.8312 219.993 54.8975 218.436 54.8975H217.539V60.6865H216.283V48.239H216.283ZM217.539 49.4516V53.6838L219.664 53.7081C220.523 53.7081 221.153 53.632 221.552 53.474C221.951 53.3196 222.264 53.0695 222.492 52.7231C222.719 52.3781 222.832 51.9878 222.832 51.5605C222.832 51.1435 222.719 50.76 222.492 50.4126C222.278 50.0757 221.962 49.8152 221.589 49.67C221.217 49.5228 220.608 49.4508 219.759 49.4508L217.539 49.4515L217.539 49.4516ZM231.753 48.239L237.603 60.6865H236.257L234.298 56.5958H228.864L226.917 60.6865H225.518L231.439 48.239H231.753H231.753ZM231.598 50.8507L229.44 55.3817H233.745L231.598 50.8507ZM239.52 48.239H240.776V53.4565H247.17V48.239H248.428V60.6865H247.17V54.6707H240.776V60.6865H239.52V48.239ZM263.152 50.5358L262.164 51.291C261.647 50.6078 260.974 50.0571 260.198 49.6849C259.434 49.3262 258.598 49.1398 257.752 49.1398C257.728 49.1398 257.703 49.1402 257.681 49.1402C256.682 49.1402 255.758 49.3803 254.904 49.8572C254.051 50.3333 253.392 50.9737 252.924 51.7789C252.463 52.5813 252.22 53.4905 252.22 54.415C252.22 54.4393 252.221 54.4668 252.221 54.4904C252.221 56.0114 252.745 57.2793 253.791 58.2933C254.84 59.3111 256.162 59.8185 257.758 59.8185C259.513 59.8185 260.981 59.1376 262.164 57.7729L263.152 58.5185C262.525 59.3077 261.746 59.9198 260.811 60.3506C259.861 60.7772 258.828 60.999 257.782 60.999C257.748 60.999 257.713 60.9983 257.681 60.9983C255.486 60.9983 253.755 60.2744 252.489 58.8212C251.425 57.6014 250.893 56.12 250.893 54.389C250.893 52.5684 251.537 51.0337 252.821 49.791C254.112 48.5461 255.724 47.925 257.662 47.925C258.834 47.925 259.889 48.1541 260.833 48.6115C261.777 49.069 262.551 49.7117 263.153 50.5351V50.5358H263.152ZM264.428 49.4516V48.239H271.291V49.4516H268.499V60.6872L267.223 60.6865V49.4532L264.428 49.4539V49.4516ZM273.14 48.239H275.612C276.608 48.239 277.373 48.3537 277.906 48.5879C278.442 48.822 278.864 49.1844 279.172 49.6686C279.484 50.1504 279.638 50.6921 279.638 51.2811C279.638 51.8334 279.501 52.3386 279.229 52.7925C278.96 53.2462 278.561 53.6122 278.037 53.8962C278.688 54.1154 279.189 54.3723 279.539 54.67C279.89 54.9654 280.162 55.3241 280.356 55.745C280.551 56.1642 280.651 56.6218 280.651 57.1116C280.651 58.1104 280.284 58.959 279.548 59.6471C278.811 60.3386 277.823 60.6858 276.585 60.6858L273.14 60.6865V48.239ZM274.364 49.4516V53.4394H275.082C275.955 53.4394 276.598 53.3593 277.009 53.1996C277.811 52.8932 278.342 52.1318 278.346 51.2811C278.346 50.7112 278.145 50.2628 277.743 49.9374C277.338 49.613 276.698 49.4509 275.818 49.4509L274.364 49.4516H274.364ZM274.364 54.6879V59.4724H275.92C276.837 59.4724 277.51 59.3831 277.937 59.2059C278.364 59.0286 278.709 58.7484 278.968 58.3687C279.228 57.9914 279.359 57.5796 279.359 57.1413C279.359 56.5885 279.176 56.1002 278.812 55.6885C278.448 55.2787 277.947 54.9948 277.309 54.8423C276.882 54.7413 276.136 54.6893 275.073 54.6893L274.364 54.69V54.6877V54.6879ZM289.112 47.9264C291.011 47.9264 292.601 48.5554 293.878 49.8133C295.155 51.0713 295.796 52.6194 295.796 54.4568C295.796 56.2808 295.159 57.8247 293.884 59.0942C292.607 60.3617 291.052 60.9983 289.214 60.9983C287.357 60.9983 285.789 60.3659 284.51 59.1013C283.285 57.9264 282.592 56.3083 282.592 54.6194C282.592 54.5855 282.593 54.55 282.593 54.5169C282.593 53.3195 282.884 52.2145 283.466 51.1905C284.026 50.1928 284.851 49.3626 285.851 48.7931C286.828 48.225 287.943 47.9255 289.077 47.9255C289.088 47.9255 289.101 47.9255 289.112 47.9255V47.9262V47.9264ZM289.167 49.141C288.24 49.141 287.362 49.3812 286.53 49.8596C285.702 50.3399 285.051 50.9841 284.583 51.7962C284.126 52.6058 283.885 53.5196 283.885 54.4475C283.885 54.4692 283.886 54.4936 283.886 54.5146C283.886 55.9921 284.4 57.2406 285.433 58.2565C286.392 59.2328 287.712 59.7855 289.091 59.7855C289.116 59.7855 289.142 59.7848 289.167 59.7848C290.142 59.7848 291.041 59.5518 291.867 59.083C292.68 58.6328 293.352 57.9665 293.808 57.1613C294.27 56.3494 294.503 55.4458 294.503 54.4548C294.503 53.4656 294.27 52.5735 293.808 51.7746C293.342 50.9741 292.664 50.3115 291.849 49.8597C291.038 49.3893 290.113 49.1405 289.174 49.1405C289.171 49.1405 289.17 49.1405 289.168 49.1405L289.167 49.1412L289.167 49.141ZM310.415 54.9071V60.6865H309.157V54.9071L308.773 54.5617L303.649 60.6865H301.987L307.961 53.7859L302.459 48.2389H304.141L309.158 53.5006V48.2389H310.413V53.5006L315.462 48.2389H317.13L311.628 53.7859L317.602 60.6865H315.939L310.798 54.5617L310.414 54.9071H310.415ZM329.364 60.6865H328.054V51.1252L319.779 60.6888H319.495V48.2413H320.753V57.946L329.081 48.2413H329.364V60.6888V60.6865H329.364ZM332.656 49.4493C333.539 48.4349 334.627 47.9264 335.925 47.9264C336.956 47.9264 337.81 48.2219 338.482 48.8113C339.154 49.3984 339.487 50.1607 339.487 51.0985C339.487 52.4202 338.859 53.3675 337.601 53.9431C339.256 54.4516 340.083 55.5499 340.083 57.2428C340.083 58.3696 339.713 59.2803 338.973 59.9691C338.231 60.6556 337.219 60.9998 335.931 60.9998C335.032 60.9998 334.25 60.8145 333.589 60.4452C332.925 60.0755 332.299 59.427 331.713 58.5029L332.684 57.933C333.266 58.7809 333.811 59.324 334.319 59.5646C334.826 59.8031 335.352 59.9271 335.899 59.9271C336.697 59.9271 337.376 59.698 337.936 59.2407C338.494 58.7832 338.774 58.1139 338.774 57.2256C338.774 56.7586 338.677 56.3488 338.488 56.0034C338.297 55.6576 338.019 55.3672 337.681 55.1622C337.378 54.967 337.042 54.8286 336.688 54.7543C336.255 54.696 335.813 54.667 335.375 54.667C335.298 54.667 335.219 54.6686 335.143 54.6693L334.929 54.6708V53.5787H335.349C337.213 53.5787 338.144 52.8315 338.144 51.3364C338.144 50.6426 337.93 50.0936 337.507 49.6839C337.092 49.289 336.54 49.0683 335.965 49.0683C335.941 49.0683 335.918 49.069 335.895 49.069C335.049 49.069 334.257 49.4486 333.516 50.2054L332.656 49.4488V49.4495L332.656 49.4493ZM342.527 48.239H343.785V53.4581H350.177V48.239H351.434V60.6865H350.177V54.6707H343.785V60.6865H342.527V48.239ZM364.362 60.6865H363.051V51.1252L354.776 60.6888H354.493V48.2413H355.751V57.948L364.079 48.2413H364.362V60.6888V60.6865Z" fill="white"/>
<path fill-rule="evenodd" clip-rule="evenodd" d="M22.844 0.549732L22.9538 0.528825V56.181L22.844 56.1581L22.7761 56.1444L22.6871 56.1257L22.4217 56.0686L22.3327 56.05L22.0977 55.9989L21.8936 55.9493L21.8069 55.9303L21.7183 55.9074L21.545 55.8654L21.456 55.8425L21.127 55.7567L20.9444 55.7072C20.8015 55.6687 20.6612 55.6271 20.5207 55.5868L20.4187 55.5578L20.3344 55.5312L19.9934 55.4264L19.9072 55.3997L19.8224 55.3731L19.738 55.3465L19.3436 55.2146L19.2087 55.1708L18.7252 54.9992L18.6443 54.9687C18.4784 54.9104 18.3062 54.8391 18.1428 54.7774L18.1182 54.7694L18.1028 54.7614C17.9334 54.6965 17.7499 54.621 17.5781 54.5517L17.57 54.5483L17.5547 54.5403L17.5301 54.5307L17.4877 54.5121C6.8902 50.0661 0.000488281 39.7693 0.000488281 28.3773C0.000488281 28.37 0.000488281 28.3636 0.000488281 28.3564C0.000488281 28.3507 0.000488281 28.3369 0.000488281 28.3298C0.000488281 16.9378 6.88948 6.64187 17.487 2.19506L17.5294 2.17759L17.554 2.16842L17.5693 2.1604L17.5774 2.15811C17.7461 2.08766 17.9325 2.01406 18.1052 1.94733L18.1205 1.93931L18.1451 1.92971C18.3111 1.86485 18.4763 1.80241 18.6436 1.74098L18.7233 1.71277C18.8832 1.65363 19.045 1.59693 19.2087 1.54165L19.3436 1.49554L19.7364 1.36366L19.8212 1.33702L19.9056 1.31039L19.9923 1.28376L20.3328 1.17851L20.4171 1.15187L20.5191 1.12295C20.6598 1.08285 20.8003 1.04104 20.9428 1.0028L21.1269 0.954404L21.4558 0.86863L21.5448 0.845718L21.7182 0.803762L21.8067 0.780851L21.8934 0.762235L22.0976 0.71226L22.3326 0.658847L22.4216 0.640232L22.687 0.583383L22.776 0.564767L22.8438 0.551021V0.550305L22.844 0.549732ZM34.7871 20.199L29.7553 26.6384V17.2791L29.7518 17.2783C29.7341 11.5176 29.733 5.76322 29.733 0.000144958C35.8449 0.238423 41.4642 2.38264 46.0029 5.85014C42.2655 10.635 38.5273 15.4158 34.7856 20.1984L34.7872 20.1991L34.7871 20.199ZM38.5299 42.4008L38.5396 42.3951L45.2005 51.4498C40.6838 54.6607 35.2953 56.495 29.7334 56.7078L29.7357 38.2228L29.7322 38.2244V30.4164L34.5671 37.0102L38.5292 42.4008H38.5299Z" fill="white"/>
<path fill-rule="evenodd" clip-rule="evenodd" d="M34.6666 20.3516L29.7543 26.638V18.6236C31.5164 18.7578 33.2148 19.3559 34.6666 20.3516ZM38.9819 27.7412C39.0051 28.018 39.0166 28.2981 39.0166 28.5761C39.0166 28.9588 38.9943 29.3435 38.9511 29.7231L38.1844 28.7468L38.9838 27.7404L38.9819 27.7411V27.7412ZM34.4875 36.9046C33.0707 37.834 31.4303 38.3917 29.7331 38.5149V30.4177L34.4875 36.9046ZM22.5191 36.2189C20.2408 34.3263 18.9214 31.5285 18.9214 28.5841C18.9214 28.5806 18.9214 28.5742 18.9214 28.5703C18.9214 28.5676 18.9214 28.5612 18.9214 28.5573C18.9214 25.5084 20.3324 22.6257 22.749 20.7361L22.8496 20.8737V35.7903L22.5218 36.2187H22.5191V36.2189Z" fill="white"/>
<path fill-rule="evenodd" clip-rule="evenodd" d="M48.8155 43.5289L37.0376 28.4256L49.0793 13.5741C52.3155 17.8292 54.069 23.015 54.069 28.3421C54.069 28.3543 54.069 28.3687 54.069 28.381C54.0686 28.3913 54.0686 28.4092 54.0686 28.4214C54.0686 33.8939 52.2177 39.2145 48.8161 43.5282L48.8154 43.5289H48.8155ZM22.9527 20.58V36.5574C20.416 34.6758 18.9214 31.7176 18.9214 28.5799C18.9214 28.5761 18.9214 28.5726 18.9214 28.5689C18.9214 28.5655 18.9214 28.5605 18.9214 28.5567C18.9214 25.4194 20.4168 22.4609 22.9535 20.58H22.9527Z" fill="white"/>
</svg>
