<svg width="30" height="30" viewBox="0 0 30 30" fill="none" xmlns="http://www.w3.org/2000/svg">
<path d="M15 0C6.71586 0 0 6.71671 0 15.0009C0 23.2833 6.71586 30.0009 15 30.0009C23.2841 30.0009 30 23.2833 30 15.0009C30 6.71671 23.2841 0 15 0Z" fill="#010201"/>
<path d="M22.3018 8.90745C22.2447 8.73888 22.1758 8.69375 22.0694 8.65203C21.8352 8.56519 21.4393 8.69631 21.4393 8.69631C21.4393 8.69631 7.42099 13.7366 6.61982 14.2943C6.44784 14.4143 6.38994 14.485 6.36099 14.5676C6.22222 14.9635 6.65388 15.1389 6.65388 15.1389L10.2672 16.3164C10.2672 16.3164 10.4017 16.3368 10.4503 16.3053C11.2719 15.7851 18.7199 11.0828 19.1499 10.9253C19.218 10.9057 19.2682 10.9278 19.2546 10.9738C19.0826 11.5783 12.6137 17.327 12.6137 17.327C12.6137 17.327 12.589 17.3576 12.5737 17.3934L12.5652 17.3891L12.228 20.9735C12.228 20.9735 12.0867 22.071 13.185 20.9735C13.9598 20.1979 14.709 19.5491 15.0845 19.2358C16.3267 20.0932 17.6642 21.0425 18.2415 21.538C18.5309 21.7866 18.7736 21.8266 18.9728 21.8198C19.5203 21.8002 19.6735 21.1974 19.6735 21.1974C19.6735 21.1974 22.2286 10.9151 22.3137 9.53749C22.3222 9.40212 22.3341 9.31783 22.335 9.22418C22.3367 9.09561 22.3248 8.9662 22.3035 8.9066L22.3018 8.90745Z" fill="white"/>
</svg>
