<?xml version="1.0" encoding="UTF-8"?>
<!DOCTYPE svg PUBLIC "-//W3C//DTD SVG 1.1//EN" "http://www.w3.org/Graphics/SVG/1.1/DTD/svg11.dtd">
<!-- Creator: CorelDRAW -->
<svg xmlns="http://www.w3.org/2000/svg" xml:space="preserve" width="76.8095mm" height="78.8499mm" version="1.1" style="shape-rendering:geometricPrecision; text-rendering:geometricPrecision; image-rendering:optimizeQuality; fill-rule:evenodd; clip-rule:evenodd"
viewBox="0 0 2614.79 2684.25"
 xmlns:xlink="http://www.w3.org/1999/xlink"
 xmlns:xodm="http://www.corel.com/coreldraw/odm/2003">
 <defs>
  <style type="text/css">
   <![CDATA[
    .fil0 {fill:white}
   ]]>
  </style>
 </defs>
 <g id="Слой_x0020_1">
  <metadata id="CorelCorpID_0Corel-Layer"/>
  <g id="_1746883026976">
   <path class="fil0" d="M431.49 1269.33l-0.03 0.05c-6.59,69.87 -15.98,137.67 -27.88,202.86l0.7 -3.9c-5.92,-17.11 -15.53,-35.96 -26.91,-49.87 -94.71,95.89 -83.52,153.01 -64.11,263.66 -4.69,-5.39 -7.98,-13.75 -11.41,-20.11l-17.7 -35.42c-14.25,-28.51 -26.52,-58.58 -38.53,-88.41 -1.53,-3.61 -4.08,-7.15 -1.87,-15.64 1.5,-5.77 3.93,-10.58 6.53,-15.08 8.65,-15.03 38.45,-37.13 52.41,-52.94 13.5,-15.25 23.83,-33.8 31.94,-52.69 19.61,-45.62 12.52,-96.99 0.44,-144.02 -2.82,-11.02 -11.13,-39.32 -15.49,-48.42 -17.29,0.39 -46.67,32.02 -57.26,48.09 -22.9,34.7 -35.13,62.86 -43.65,105.81 -2.48,12.45 -2.91,25.61 -4.29,38.03 -1.57,14.08 -0.15,26.98 -0.15,41.28 -0.13,-0.18 -0.28,-0.7 -0.33,-0.55l-4.49 -14.42c-7.62,-26.31 -28.84,-127.18 -30.2,-151.76 -0.64,-11.34 15.37,-27.46 25.64,-34.44 8.33,-5.65 17.2,-9.61 25.76,-14.75 20.96,-12.65 37.74,-28.79 52.43,-48.41 35.68,-47.65 47.09,-145.12 33.82,-202.08 -35.29,0 -82.15,51.72 -98.09,79.28 -21.25,38.7 -34.78,67.51 -43.63,112.15 -1.11,5.66 -3.22,13.55 -3.22,19.29l-0.89 0c-2.43,-51.07 0.29,-100.51 2.71,-151.27 1.02,-21.48 2.12,-32.05 18.62,-44.39 31.49,-23.55 51.01,-6.24 108.52,-63.44 37.56,-37.36 57.25,-116 65.86,-169.13 1.96,-12.01 4.05,-16.32 -11.6,-13.4 -71.88,13.33 -136.45,104.54 -161.35,167.24 -1.16,2.97 -3.51,8.65 -4.75,11.44 0.36,-6.84 3.2,-19.13 4.59,-26.04 4.56,-22.9 12.16,-53.24 18.43,-75.19 4.76,-16.67 9.14,-31.69 14.46,-47.68 1.39,-4.18 2.58,-7.77 3.82,-11.49 4.13,-12.41 3.46,-15.65 20.78,-26.05 25.25,-15.18 53.04,-3.41 95.41,-28.81 34.16,-20.48 46.83,-37.17 68.18,-63.54 18.26,119.98 28.14,247.76 28.14,380.38 0,83.42 -3.9,164.93 -11.34,243.78l-0.02 0zm792.19 1324.66c5.8,24.34 62.03,89.04 83.84,90.26l0.06 0 0.09 0c21.82,-1.23 78.07,-65.93 83.84,-90.26l0 0 -83.93 52.1 0 0 324.56 -201.48c-28.99,2.89 -58,5.29 -87.07,7.2 -79.17,49.14 -158.34,98.27 -237.48,147.42l-250.13 -155.25c-30.71,-2.95 -61.4,-6.37 -91.99,-10.25l0 0c-29.85,-3.79 -59.64,-8.03 -89.32,-12.73l-0.03 0.05c-3.29,2.87 -16.6,14.19 -15.3,20.09 1.23,5.6 50.68,29.64 62.74,34.47 32.87,13.17 70.07,24.27 106.47,24.08 7.75,-0.05 31.31,-0.98 36.23,-3.38l157.39 97.71 0.01 -0.02zm524.65 -163.71c3.45,3.84 6.27,7.98 5.65,10.87 -1.23,5.6 -50.68,29.64 -62.74,34.47 -32.87,13.17 -70.07,24.27 -106.47,24.07 -7.66,-0.04 -30.64,-0.96 -36.01,-3.29l83.42 -51.79c38.86,-3.87 77.61,-8.63 116.16,-14.33l-0.01 -0.01zm415.49 -2111.61c-9.6,-33.42 -51.86,-109.32 -39.6,-134.85 3.48,0.82 15.33,8.55 18.66,11.05 31.6,23.88 97.81,74.18 115.23,109.29l-3.17 0.67c9.66,-1.99 19.23,-4.16 28.66,-6.47 -3.57,10.45 -7.05,21.01 -10.46,31.68 12.75,26.83 21.42,70.05 15.91,97.88 -5.6,28.32 -19.24,36.63 -13.75,69.39 2.9,17.35 9.07,20.75 19.09,37.62l56.06 102.4c1.81,3.59 2.69,6.33 4.47,9.91l9.61 19.21c-15.68,-77.92 -63.7,-206.1 -31.5,-274.63 8.62,2.3 48.19,53.16 53.75,60.59 21.58,28.74 45.89,74.05 54.44,108.51 6.02,24.24 7.25,58.87 1.1,83.39 -13.27,52.74 -48.2,59.09 -44.46,105.86 0.26,3.3 1.68,6.47 2.57,9.14 15.84,47.21 30.7,95.24 40.71,144.77 1.02,5.13 3.51,14.48 3.51,19.9l0.89 -60.33c-0.12,-20.63 4.02,-75.62 6.69,-95.07 3.29,-23.8 15.18,-109.73 37.42,-124.63l16.58 27.53c52.67,88.04 82.5,220.5 -11.95,291.34 -9.24,6.94 -16.04,12.8 -23.55,21.46 -16.92,22.02 -11.13,29.24 -9.86,52.21 4.05,53.11 4.47,99.59 4.47,153.1l2.52 -9.19c0.83,-3.52 1.43,-5.71 2.35,-9.35 1.68,-6.69 3.35,-12.58 4.85,-18.56l10.68 -37.06c14.25,-48.42 31.75,-90.14 55.19,-133.89 5.94,-9.91 29.92,-50.95 44.17,-51.27 0.26,3.05 4.29,13.3 5.52,16.99 24.8,74.43 36.85,175.66 -14.25,243.49 -3.26,4.32 -6.18,8.86 -9.92,12.58 -20.9,20.78 -27.36,25.12 -54.55,37.28 -16.26,7.26 -31.52,12.81 -44.05,25.28 -2.51,2.5 -8.6,10.01 -9.48,13.02l-8.8 60.52c-2.28,13.66 -4.16,25.79 -7.07,38.85l-12.95 56.39c-1.4,5.65 -4.22,13.28 -4.69,18.72 0.15,-0.16 0.34,-0.64 0.39,-0.51l6.22 -10.89c11.15,-22.72 33.84,-58.28 48.12,-79.72 35.93,-53.91 69.43,-95.07 125.1,-129.79 5.17,-2.68 6.47,1.71 7.33,9.38 9.71,88.17 -3.52,204.72 -87.29,254.72 -55.48,33.12 -89.38,16.75 -125.06,43.78 -3.35,2.77 -3.13,3.59 -5.44,9.38l-15.3 38.72c-15.64,39.34 -35.03,74.68 -53.13,112.55 2.3,-2.4 19.98,-21.33 24.53,-25.89l18.9 -18.92c13.17,-12.19 26.43,-24.78 40.42,-36.12 35.58,-28.92 108.62,-85.65 156.51,-85.65 0,45.9 -22.53,108.11 -42.6,148.27 -26.17,48.62 -65.17,80.68 -119.41,93.96 -25.56,6.25 -51.59,1.99 -77.43,-0.92 -6.88,-0.79 -12.7,-0.88 -20.73,-0.92 -9.54,-0.03 -26.33,1.73 -31.55,10.76 -9.4,16.26 -23.86,34.89 -35.17,50.37 -4.54,6.01 -8.96,12.33 -13.71,18.33 -5.42,15.14 -11.3,29.67 -17.61,43.56 9.4,-6.24 26.88,-14.92 35.34,-19.16 44.42,-22.2 85.26,-39.6 134.72,-51.63 14.59,-3.54 56.98,-12.14 72.93,-4.49 -17.56,36.59 -29.83,80.13 -56.08,112.28 -35.67,43.71 -68.38,73.04 -123.26,81.97 -0.26,-13.55 -0.26,-27.03 -0.04,-40.34 0.15,-9.24 2.53,-19.48 -1.08,-28.32 -1.96,-4.78 -12.01,-15.83 -16.32,-19.4 -16.44,-13.68 -33.55,-19.33 -51.14,-20.42l0 0c-16.03,-0.99 -32.45,1.8 -49.11,5.73l2.94 -3.49c36.5,-66.69 56.61,-145.77 64.68,-221.19 -12.6,-43.1 -23.67,-86.67 -33.36,-130.52 -20.14,-91.11 -34.38,-183.62 -43.48,-276.48l-0.05 -0.1 -0.86 -9.22c-7.77,-82.26 -11.52,-164.92 -11.52,-247.54 0,-224.05 27.48,-458.01 92.34,-674.45 -172.25,28.92 -353.04,10.19 -517.69,-45.76 -148.77,-50.55 -289.66,-133.22 -399.49,-246.48 -109.83,113.24 -250.73,195.92 -399.49,246.48 -164.66,55.95 -345.42,74.71 -517.68,45.76 64.84,216.44 92.35,450.41 92.35,674.45 0,82.62 -3.77,165.27 -11.54,247.54l-0.86 9.22 -0.05 0.1c-9.09,92.85 -23.32,185.36 -43.47,276.48 -9.7,43.86 -20.78,87.42 -33.36,130.52 8.08,75.44 28.2,154.56 64.73,221.28 -13.17,3.04 -22.85,8.37 -33.84,17.3l-1.42 1.17 -1.52 -2.79 1.52 2.79c-7.86,6.5 -15.23,13.58 -17.65,23.95 -1.78,7.63 -0.21,15.08 0,22.75 0.38,13.56 0.46,27.15 0.26,40.73 -1.68,0.38 -3.43,0.75 -5.22,1.06 -12.78,2.12 -26.36,2.37 -39.31,1.36 -65.86,-5.13 -101.63,-35.86 -140.98,-84.07 -26.24,-32.16 -38.52,-75.69 -56.08,-112.28 15.95,-7.66 58.33,0.95 72.93,4.49 49.46,12.03 90.32,29.43 134.72,51.63 8.63,4.32 26.63,13.27 35.91,19.52l0.45 0.99c-7.44,-16.2 -14.3,-33.33 -20.47,-51.23 0.83,2.4 1.68,4.8 2.52,7.19 -5.03,-6.24 -9.64,-12.92 -14.41,-19.21 -11.31,-15.47 -25.77,-34.11 -35.17,-50.37 -5.22,-9.03 -22,-10.79 -31.55,-10.76 -8.03,0.03 -13.82,0.15 -20.73,0.92 -25.83,2.92 -51.87,7.16 -77.43,0.92 -54.24,-13.27 -93.26,-45.32 -119.41,-93.96 -20.07,-40.15 -42.6,-102.37 -42.6,-148.27 47.88,0 120.91,56.74 156.49,85.65 13.99,11.33 27.24,23.91 40.43,36.12l18.91 18.92c4.55,4.55 22.23,23.48 24.53,25.89 -18.1,-37.9 -37.49,-73.22 -53.13,-112.55l-15.3 -38.72c-2.31,-5.81 -2.09,-6.63 -5.44,-9.38 -35.68,-27.02 -69.58,-10.66 -125.06,-43.78 -83.76,-50 -97,-166.53 -87.29,-254.72 0.85,-7.67 2.15,-12.06 7.33,-9.38 55.69,34.72 89.2,75.88 125.1,129.79 14.28,21.45 36.97,57 48.12,79.72l6.22 10.89c0.04,-0.13 0.26,0.34 0.39,0.51 -0.45,-5.44 -3.28,-13.08 -4.69,-18.72l-12.94 -56.39c-2.91,-13.08 -4.78,-25.19 -7.07,-38.85l-8.8 -60.52c-0.88,-3.04 -6.97,-10.53 -9.48,-13.02 -12.52,-12.47 -27.78,-18.02 -44.04,-25.28 -27.19,-12.16 -33.65,-16.5 -54.55,-37.28 -3.74,-3.72 -6.66,-8.24 -9.92,-12.58 -51.1,-67.83 -39.04,-169.08 -14.25,-243.49 1.24,-3.69 5.27,-13.94 5.52,-16.99 14.25,0.31 38.21,41.36 44.17,51.27 23.44,43.76 40.94,85.46 55.19,133.89l10.68 37.05c1.5,5.97 3.19,11.86 4.85,18.56 0.92,3.65 1.54,5.83 2.35,9.35l2.51 9.19c0,-53.51 0.42,-99.99 4.47,-153.1 1.27,-23 7.07,-30.2 -9.86,-52.21 -7.51,-8.66 -14.32,-14.53 -23.55,-21.46 -94.43,-70.84 -64.61,-203.3 -11.95,-291.34l16.58 -27.53c22.25,14.9 34.16,100.83 37.42,124.63 2.68,19.43 6.79,74.44 6.69,95.07l0.9 60.33c0,-5.42 2.5,-14.77 3.51,-19.9 10.01,-49.54 24.87,-97.58 40.71,-144.77 0.89,-2.65 2.32,-5.85 2.57,-9.14 3.74,-46.8 -31.19,-53.13 -44.46,-105.86 -6.15,-24.52 -4.93,-59.15 1.09,-83.39 8.55,-34.45 32.87,-79.76 54.45,-108.51 5.58,-7.41 45.13,-58.28 53.74,-60.59 32.2,68.54 -15.81,196.73 -31.5,274.63l9.61 -19.21c1.8,-3.59 2.66,-6.31 4.47,-9.91l56.06 -102.4c10.04,-16.88 16.19,-20.27 19.1,-37.62 5.48,-32.76 -8.14,-41.07 -13.75,-69.39 -5.54,-28.01 3.26,-71.57 16.14,-98.39 -3.36,-10.51 -6.81,-20.91 -10.3,-31.19 8.27,2.04 16.67,3.95 25.13,5.74 17.45,-35.11 83.62,-85.34 115.2,-109.22 3.33,-2.51 15.18,-10.25 18.66,-11.05 12.26,25.53 -29.97,101.39 -39.58,134.82 13.32,1.34 26.77,2.4 40.3,3.2 2.92,-4.13 9.03,-10.46 11.69,-13.08 8.18,-8 14.42,-21.7 17.35,-33.07 4.02,-15.62 -0.88,-35.95 0,-46.82 4.54,-55.43 43.78,-98.85 86.25,-130.74 39.35,-29.57 66.15,-40.02 107.84,-58.71 5.06,-2.26 19.13,-8.24 24.62,-8.69 0,44.45 -137.32,178.78 -169.23,216.99 4.47,-3.2 8.53,-6.2 12.81,-9.7 28.71,-22.31 65.7,-49.91 89.12,-76.53 11.15,-12.65 6.74,-7.03 16.22,-16.18 46.65,-44.9 65.27,-59.54 129.09,-91.48 30.94,-15.49 65.63,-25.95 99.38,-32.95 33.59,-6.97 85.71,-12.68 120.55,-4.57 -4.82,15.93 -141.8,85.08 -164.42,96.64 -17.07,8.62 -42.13,17.97 -60.29,26.11 -51.93,23.29 -122.84,40.28 -170.5,68.98 -14.13,8.5 -25.69,15.21 -38.46,26.36 -3.9,3.41 -7.98,6.37 -12.01,9.6 -2.63,2.09 -9.82,8.1 -11.59,10.02 2.92,-1.26 9.66,-5.54 13.11,-7.59 24.09,-14.42 40.48,-23.14 66.23,-33.71l29 -10.59c20.6,-6.68 42.11,-11.57 65.65,-14.48 18.79,-2.32 62.38,-2.5 69.97,7.85 -0.88,3.3 -0.54,2.09 -3.17,4.05 -23.21,17.56 -47.05,33.86 -70.84,50.72 -33.69,22.37 -63.67,42.03 -103.71,52.05 -60.83,15.23 -75.91,-4.82 -99.43,-2.24 -8.21,0.9 -15.68,3.39 -22.33,6.47 -6.82,3.19 -11.9,9.89 -17.01,16.06 128.08,5.48 264.35,-12.99 387.97,-55 182.64,-62.05 312.51,-153.37 411.78,-266.91 0.18,-0.21 0.47,-0.54 0.65,-0.73 0.18,0.21 0.46,0.52 0.66,0.73 99.28,113.53 229.14,204.85 411.79,266.91 123.49,41.96 259.61,60.46 387.59,55.03 -5.11,-6.19 -10.19,-12.92 -17.01,-16.07 -6.65,-3.08 -14.12,-5.58 -22.33,-6.48 -23.52,-2.57 -38.6,17.45 -99.43,2.24 -40.03,-10.02 -70.02,-29.67 -103.71,-52.05 -23.79,-16.86 -47.61,-33.15 -70.84,-50.71 -2.64,-1.96 -2.28,-0.73 -3.17,-4.05 7.58,-10.35 51.18,-10.17 69.97,-7.85 23.54,2.91 45.03,7.8 65.65,14.48l29 10.59c25.74,10.56 42.12,19.27 66.23,33.71 3.45,2.08 10.19,6.33 13.11,7.59 -1.76,-1.93 -8.96,-7.95 -11.59,-10.02 -4.05,-3.23 -8.11,-6.17 -12.01,-9.6 -12.75,-11.15 -24.32,-17.84 -38.46,-26.36 -47.66,-28.71 -118.56,-45.69 -170.5,-68.98 -18.16,-8.14 -43.22,-17.52 -60.29,-26.11 -22.63,-11.57 -159.63,-80.73 -164.44,-96.64 34.86,-8.11 86.98,-2.38 120.57,4.57 33.75,6.99 68.44,17.46 99.38,32.95 63.81,31.93 82.44,46.58 129.09,91.48 9.48,9.14 5.1,3.52 16.22,16.18 23.42,26.62 60.42,54.22 89.12,76.53 4.26,3.49 8.34,6.51 12.81,9.7 -31.91,-38.21 -169.23,-172.55 -169.23,-217 5.47,0.46 19.54,6.41 24.62,8.7 41.69,18.69 68.49,29.13 107.84,58.71 42.45,31.91 81.71,75.31 86.25,130.74 0.9,10.87 -4,31.21 0,46.82 2.92,11.38 9.19,25.07 17.35,33.07 2.66,2.63 8.78,8.96 11.7,13.09 13.53,-0.79 26.98,-1.86 40.3,-3.19l-0.05 -0.02zm261.06 1135.65l-0.28 0.28c0.01,-0.01 0.36,-0.18 0.28,-0.28zm-214.07 13.28c5.94,-16.89 15.46,-35.42 26.65,-49.13 94.71,95.89 83.52,153.01 64.11,263.66 4.69,-5.39 7.98,-13.75 11.41,-20.11l17.7 -35.42c14.25,-28.51 26.52,-58.58 38.53,-88.42 1.53,-3.61 4.08,-7.15 1.87,-15.64 -1.5,-5.77 -3.93,-10.58 -6.53,-15.08 -8.65,-15.03 -38.45,-37.13 -52.41,-52.93 -13.5,-15.26 -23.83,-33.8 -31.94,-52.69 -19.61,-45.62 -12.52,-96.99 -0.44,-144.02 2.82,-11.02 11.13,-39.32 15.49,-48.43 17.29,0.39 46.67,32.02 57.26,48.09 22.9,34.7 35.13,62.86 43.65,105.81 2.48,12.45 2.91,25.61 4.29,38.03 1.57,14.09 0.13,26.98 0.13,41.28 0.13,-0.18 0.29,-0.7 0.34,-0.55l4.49 -14.42c7.62,-26.31 28.84,-127.18 30.2,-151.76 0.62,-11.34 -15.37,-27.45 -25.64,-34.44 -8.33,-5.65 -17.2,-9.61 -25.76,-14.76 -20.96,-12.65 -37.74,-28.79 -52.43,-48.41 -35.68,-47.65 -47.09,-145.12 -33.82,-202.08 35.29,0 82.15,51.72 98.09,79.28 21.25,38.7 34.78,67.5 43.63,112.14 1.11,5.67 3.22,13.55 3.22,19.29l0.89 0c2.43,-51.07 -0.29,-100.51 -2.71,-151.27 -1.02,-21.48 -2.12,-32.05 -18.62,-44.39 -31.49,-23.55 -51.01,-6.24 -108.52,-63.44 -37.56,-37.36 -57.25,-116 -65.86,-169.13 -1.96,-12.01 -4.05,-16.32 11.6,-13.4 71.88,13.34 136.45,104.54 161.35,167.24 1.16,2.97 3.51,8.65 4.75,11.44 -0.36,-6.84 -3.2,-19.13 -4.59,-26.04 -4.56,-22.9 -12.16,-53.24 -18.43,-75.19 -4.76,-16.67 -9.14,-31.69 -14.46,-47.68 -1.39,-4.18 -2.57,-7.77 -3.82,-11.49 -4.13,-12.41 -3.46,-15.65 -20.78,-26.05 -25.25,-15.18 -53.04,-3.41 -95.41,-28.81 -34,-20.37 -46.71,-36.98 -67.87,-63.14 -18.23,119.87 -28.06,247.51 -28.06,379.97 0,83.42 3.9,164.93 11.34,243.78l0.03 0.05c6.43,68.22 15.52,134.45 27.03,198.23l0.03 -0.01zm6.46 -918.58c11.3,8.26 43.23,25.04 57.92,37.53 9.21,7.82 21.89,20.78 30.67,29.66 8.68,8.78 40.54,50.99 40.72,51.12 -1.11,-4.73 -13.5,-29.72 -16.51,-35.71 -2.21,-4.37 -3.33,-8.08 -5.7,-12.29 -4.44,-7.89 -7.89,-15.26 -11.98,-23.15 -12.8,-24.56 -24.16,-43.3 -38.34,-67.02 -9.57,-16 -26.62,-31.81 -46.71,-28.38 -3.51,15.89 -6.87,31.99 -10.07,48.25zm-1864.3 1136.62l0 0 0.43 4.24 -0.43 -4.24 0 0 0 0zm0.46 4.53c0.42,4.22 0.89,8.46 1.4,12.65 -0.51,-4.19 -0.98,-8.41 -1.4,-12.65zm1.44 12.92c0.67,5.6 1.39,11.15 2.18,16.68 -0.79,-5.52 -1.5,-11.08 -2.18,-16.68zm2.99 22.26c0.38,2.56 0.77,5.11 1.17,7.66 -0.41,-2.53 -0.8,-5.1 -1.17,-7.66zm1.29 8.33c1.78,11.05 3.77,21.92 5.99,32.61 -2.22,-10.69 -4.21,-21.56 -5.99,-32.61zm6.01 32.73c4.22,20.4 9.25,40.15 15,59.1 -5.74,-18.95 -10.75,-38.68 -15,-59.1zm16.28 63.26c1.13,3.64 2.28,7.26 3.48,10.86 -1.19,-3.59 -2.35,-7.22 -3.48,-10.86zm3.54 11.05c0.79,2.37 1.58,4.73 2.38,7.08 -0.82,-2.35 -1.6,-4.72 -2.38,-7.08zm2.96 -1339.87c3.49,15.8 6.84,31.78 10.01,47.94 -10.99,8.16 -43.43,25.15 -58.27,37.78 -9.21,7.82 -21.89,20.78 -30.67,29.66 -8.68,8.78 -40.54,50.99 -40.72,51.12 1.11,-4.74 13.5,-29.72 16.51,-35.71 2.2,-4.37 3.33,-8.08 5.7,-12.29 4.44,-7.88 7.89,-15.25 11.98,-23.14 12.8,-24.57 24.15,-43.31 38.34,-67.02 9.63,-16.09 26.83,-32.03 47.12,-28.32l0 -0.02zm-197.95 953.45l0.28 0.28c-0.02,-0.01 -0.36,-0.18 -0.28,-0.28zm213.65 608.82c-22.37,0.19 -45.44,3.91 -65.26,14.39 4.56,19.51 38.93,54.25 55.5,73.91 4.63,-29.27 7.9,-58.74 9.76,-88.32l0 0.02zm-26.36 233.42c21.79,-3.48 24.26,-9.54 60.24,-9.04 66.88,0.95 106.14,29.98 162.22,48.7 70.87,23.65 144.94,43.54 222.53,57.44 327.27,58.56 704.55,65.06 1031.1,0.23 79.86,-15.85 201.41,-43.56 273.08,-77.09 44.61,-20.86 94.1,-35.09 144.6,-27.09 10.56,1.68 19.24,5.07 28.35,6.92l-10.47 -34.76c-26.49,-89.85 -36.78,-191.67 -35.26,-285.66 0.09,-4.74 1.68,-17.73 0.26,-21.25 -0.54,-1.29 -10.15,-11.51 -11.18,-12.39 -32.84,-27.33 -70.69,-14.84 -110.42,-4.36 -614.03,161.96 -978.57,179.57 -1586.13,0.46 -20.75,-6.12 -56.47,-15.34 -79.37,-11.43 -14.46,2.49 -22.28,7.42 -31.21,14.67 -17.3,14.07 -12.95,15.43 -12.45,33.44 2.65,96.95 -9.03,194.22 -35.17,286.46 -3.23,11.44 -7.92,23.71 -10.71,34.75zm-70.8 1.96c-4.77,-3.74 -16.62,3.02 -23.65,-7.77 -5.11,-7.83 0.55,-19.15 4.22,-25.3 2.97,-4.99 10.33,-15.09 18.62,-14.97 7.83,0.12 11.67,6.12 12.99,12.73 0.79,3.95 0.09,4.13 3.2,5.29 3.96,-1.86 4.78,-12.58 4.52,-15 -4.18,-2.18 -2.74,0.67 -7.03,-2.89 -17.96,-14.89 -35.99,-7.56 -46.37,13.32 -17.59,35.36 32.09,49.18 33.49,34.59l0.01 0zm-56.68 -80.14c-0.02,4.44 -8.64,21.1 -11.02,25.87 -1.99,4.02 -4.29,8.59 -6.07,12.75 -4.75,11.06 -6.91,1.15 -9.57,7.29 -1.68,3.92 12.81,8.13 16.67,10.1 2.79,1.43 5.52,3.07 6.31,0.49 1.04,-3.43 -3.54,-1.81 -2.54,-7.57 0.25,-1.42 1.62,-3.67 2.4,-5.16 3.39,-6.61 14.86,-33.28 18.28,-36.61 12.86,0.83 7.75,10.18 13.51,13.02 2.41,-1.6 2.15,-1.27 2.41,-4.86 0.67,-9.25 -1.02,-9.38 -9.09,-13.25 -6.68,-3.2 -13.37,-6.46 -20.14,-9.53 -1.78,-0.8 -7.9,-4.05 -10.1,-4 -3.52,0.09 -19.77,14.38 -2.27,8.27 4.82,-1.68 8.6,0.83 11.21,3.19l0 0.01zm-62.76 0.05c-1.01,7.44 5.73,3.65 9.82,10.64 7.61,12.96 -9.22,24.82 -16.01,15.96 -2.43,-3.18 3.26,-28.77 4.13,-34.02 1.11,-6.75 0.29,-13.4 8.16,-12.93 5.99,0.38 9.29,7.1 6.55,13.28 -2.56,5.77 -7.15,4.83 -12.65,7.03l0 0.03zm-18.92 -23.48c1.54,2.84 1.39,1.75 4.28,3.21 -0.23,6.43 -4.41,28.45 -5.88,37.57 -1.58,9.85 -3.02,3.39 -5.48,8.74 3.87,7.77 48.05,20.66 50.25,-6.3 0.95,-11.46 -7.22,-12.39 -9.14,-17.11 6.1,-2.41 10.14,-4.52 11.26,-11.1 1.38,-7.98 -3.08,-11.86 -7.98,-14.7 -6.6,-3.85 -33.98,-8.52 -37.31,-0.31zm2171.01 82.51c3.46,6.2 4.13,-4.05 10.07,9.06l13.47 29.59c7.36,15.31 -0.54,7.65 1.16,15.36 3.18,1.16 8.77,-2.57 11.95,-4.03 4.19,-1.91 10.59,-2.82 10.31,-7.67l-6.27 -0.98c-6.15,-11.38 -11.3,-24.76 -17.12,-36.92 -6.84,-14.22 1.83,-9.22 -0.52,-13.92 -1.23,-2.43 -2.74,-1.37 -4.93,-0.59 -3.63,1.27 -16.65,7.11 -18.13,10.1l0.02 0.01zm29.9 -12.6c2.91,2.37 2.84,0.83 6.43,1.68 0.67,8.26 -5.29,19.46 -5.32,28.02 4.21,4.08 17.53,11.23 23.61,14.83 3.89,2.3 7.59,6.11 12.92,4 3.93,-1.55 12.33,-4.03 9.99,-7.9 -2.91,-1.94 -4.27,0.77 -10.43,-3.17l-27.19 -15.93c0.52,-5.61 2.25,-10.62 3.48,-16.07 3.54,-15.93 5.67,-7.54 5.47,-14.48 -3.61,-1.93 -6.52,0.83 -10.17,2.51 -3.92,1.81 -8.27,2.21 -8.78,6.5zm78.89 -26.12c2.37,9.12 4.22,-6.55 8.18,13.84 1.11,5.8 3.26,13.63 3.36,19.49 -4.96,-1.93 -8.11,-5.92 -12.03,-9.14l-22.43 -19.01c-3.07,-1.99 -8.99,-0.95 -12.71,0.36 -4.11,1.43 -1.8,-0.01 -3.25,2.58 3.07,7.05 4.74,-4.6 7.8,11.41 1.16,5.99 2.19,10.92 3.29,16.62 1.1,5.58 1.99,10.28 3.15,15.93 3.19,15.68 -2.76,5.86 -2.82,13.67 2.21,1.49 16.88,0.34 18.13,-4.5 -2.27,-2.88 -1.91,-1.21 -6.04,-2.3 -1.21,-5.58 -6.91,-30.73 -6.35,-34.97 1.91,0.38 34.44,26.62 36.46,29.09 2.65,3.23 0.96,4.98 5.38,5.01 6.68,0.03 2.85,-9.06 1.84,-14.06 -1.01,-5.14 -2.09,-10.65 -3.13,-15.85 -1.03,-5.07 -2.08,-10.41 -3.1,-15.72 -3.35,-16.96 1.58,-8.47 2.38,-15.15 -3.01,-2.37 -16.45,0.44 -18.13,2.71l0.02 0zm-1569.24 -60.19c3.3,9.22 9.34,4.24 12.34,9.22 1.75,2.88 -8.65,76.65 -11.97,78.59 -7.89,1.45 -9.66,-1.36 -13.63,4.93l2.37 5.91c13.86,2.09 27.73,3.18 41.67,5.46 46.37,7.57 41.36,10.48 44.99,-9.06 1.37,-7.35 2.24,-10.46 -2.19,-14.87 -12.65,1.84 -3.02,21.42 -36.56,14 -16.83,-3.72 -10.95,-11.83 -7.52,-38.39 17.82,-0.26 13.06,13.28 16.96,17.32 9.61,9.91 9.95,-17.42 10.59,-21.35 0.7,-4.46 2.15,-9.66 2.79,-14.3 0.75,-5.68 -2.5,-10.87 -8.1,-7.22 -5.67,3.71 -0.03,16.6 -20.03,14.25 -0.55,-4.59 3.08,-28.58 4.69,-32.05 1.83,-1.83 17.74,1.79 19.67,2.37 8.05,2.38 10.14,4.19 11.18,12.16 1.49,11.33 9.73,8.94 10.92,1.71 4.3,-26.02 4.26,-22.25 -40.45,-27.78 -6.81,-0.83 -13.69,-1.65 -20.53,-3.05 -9.14,-1.9 -11.77,-4.24 -17.15,2.18l-0.03 -0.01zm304.06 72.69c13.3,-8.44 -5.33,-16.22 29.27,-13.84 0.99,7.16 -0.88,57.13 -2.79,61.32 -3.82,1.7 -10.01,0.93 -11.35,5.6 -1.6,5.52 5.02,5.45 10.04,5.67l30.82 1.09 2.6 -4.57c-2.99,-6.95 -5.69,-4.41 -11.84,-7.13 -1.52,-12.68 0.62,-46.77 1.57,-60.83 3.91,-0.99 16.41,-0.1 19.88,1.47 5.57,2.52 2.41,8.9 8.27,14.67 7.38,-5.96 8.46,-24.34 0.55,-26.15 -5.44,-1.26 -29.56,-0.42 -37.42,-0.71 -36.87,-1.39 -43.1,-8 -43.73,9.19 -0.32,9.42 -0.89,9.38 4.13,14.22l0.01 0.01zm125.71 -13.82c34.89,-7.64 37.46,58.48 10.02,65.32 -33.9,8.44 -39.57,-58.84 -10.02,-65.32zm-3.19 -9.58c-22.31,4.21 -41.01,23.8 -36.77,50.5 8.34,52.34 98.45,43.97 88.94,-16.32 -3.49,-22.05 -26.21,-39.07 -52.16,-34.18zm166.64 -22.84c-7.73,-7.72 -36.66,-6.68 -46.43,12.81 -6.25,12.45 -2.56,26.96 9.42,36.19 3.22,2.49 6.84,4.15 11.3,5.81 7.49,2.79 17.82,5.55 22.85,10.45 5.99,5.84 6.74,19.64 -0.57,24.84 -7.54,5.39 -20.11,2.93 -26.05,-1.8 -4.47,-3.59 -9.57,-15.75 -12.36,-21.66 -11.44,-0.34 -6.43,7.95 -6.43,23.95 0,4.21 -1.08,6.69 1.1,9.88 3.26,4.31 6.56,2.5 8.67,-1.36 11.41,2.68 13.97,6.97 29.25,5.04 8.7,-1.09 19.27,-6.56 23.52,-10.77 13.98,-13.89 8.53,-38.4 -4.37,-48.05 -16.27,-12.16 -41.89,-11.15 -41.03,-27.68 0.49,-9.31 12.91,-13.66 22.53,-9.64 6.92,2.89 11.15,13.21 13.82,20.51 12.65,-0.95 7.92,-8.8 7.64,-19.9 -0.04,-1.62 0.55,-16.85 -7.72,-12.8l-3.01 2.73c-2.04,1.7 1.94,-0.41 -2.07,1.43l-0.05 0.02zm486.72 -77.27c-6.81,0.25 -9.21,-2.74 -18.2,-0.77 -5.88,1.29 -10.77,3.69 -14.61,6.14 -19.01,12.23 -18.57,40.97 5.71,51.79 10.09,4.49 24.65,3.07 33.97,8.34 9.58,5.4 12.23,20.66 2.34,26.96 -23.32,14.82 -35.86,-15.26 -39.48,-17.05 -2.63,-1.29 -5.49,0.06 -6.4,2.74 -1,2.97 0.49,6.46 1.21,8.96 1.94,6.65 2.38,10.74 3.69,17.37 1.37,6.94 8.01,8.68 10.84,1.08 12.23,1.99 17.81,3.79 30.1,-0.54 30.73,-10.83 33.23,-45.23 8.1,-60.7 -13.94,-8.59 -46.13,-4.11 -46.71,-21.48 -0.29,-8.78 10.73,-15.08 21.22,-12.55 8.6,2.09 11.75,10.93 17.25,17.02 12.21,-1.39 5.55,-11.88 3.72,-19.93 -0.95,-4.18 -0.95,-9.3 -3.85,-11.49 -5.06,-3.82 -7.15,0.34 -8.88,4.09l0 0.02zm-986.2 126.97c-9.7,-0.71 -7.92,6.86 -8.5,14.77 -0.67,8.77 -4.06,14.36 0.09,20.58 5.86,1.04 4.15,0.66 8.05,-2.38 6.27,2.45 10.17,8.22 25.16,9.24 37.77,2.56 50.73,-34.44 29.67,-55.28 -15.65,-15.51 -38.46,-17.27 -35.81,-33.18 1.54,-9.12 14.3,-11.57 22.85,-6.97 7.8,4.18 9.61,13.37 12.11,23.01 12.87,0.77 8.99,-8.72 10.5,-19.24 0.57,-4.06 1.96,-8.44 -0.6,-11.4 -3.84,-4.41 -7.51,0.32 -9.89,1.73 -9.32,-4.86 -12.5,-8.83 -27,-7 -32.57,4.1 -37.07,42.78 -8.21,57.51 8.13,4.16 15.61,7.54 20.84,13.45 7.02,7.9 3.39,20.04 -3.23,23.89 -8.44,4.93 -20.42,0.8 -25.51,-4.18 -6.79,-6.66 -5.66,-16.91 -10.52,-24.57l0.01 0.01zm-379.43 -84.27c1.29,-2.82 15.18,-21.89 17.63,-23.1l3.33 28.89c-5.55,-1.03 -17.2,-3.23 -20.96,-5.8l0 0.01zm-50.38 31.52c2.66,7.64 7.36,6.61 16.13,8.41 6.53,1.34 12.73,5.2 20.16,4.29 1.5,-2.21 2.28,-3.46 2.41,-6.52 -2.32,-1.9 -6.46,-4.34 -8.49,-6.5 -0.18,-5.61 8.88,-16.95 12.14,-20.4l30.18 7.52c1.52,6.22 3.32,18.69 1.6,24.18 -1.21,1.44 -15.24,-2.15 -13.19,6.48 1.15,4.88 9.32,5.3 15.13,6.5 16.41,3.38 25.44,9.95 33.28,4.46 0.67,-10.71 -10.01,-3.49 -12.57,-21.71 -2.56,-18.22 -8.84,-84.31 -13.69,-91.5 -9.06,-1.49 -12.55,7.57 -21.89,19.88 -6.15,8.11 -11.85,15.8 -18.17,24.14 -4.32,5.7 -22.88,31.34 -27.53,34.59 -6.81,4.75 -10.71,-2.21 -15.49,6.17l-0.02 0.01zm511.35 61.31c-9.4,-1.01 -7.85,6.65 -8.26,14.36 -0.39,7.03 -2.69,14.07 -0.83,19.91 5.84,2.98 5.8,0.83 9.92,-1.75 14.09,11.47 37.01,12.13 52.47,0.93 14.02,-10.17 14.5,-35.45 1.65,-47.97 -4.28,-4.15 -14.37,-9.24 -20.94,-13.25 -6.72,-4.1 -17.46,-7.31 -16.55,-18 1.11,-12.8 17.32,-11.59 23.1,-8.31 8.44,4.8 8.78,12.57 12.41,22.47 10.53,0.49 9.29,-5 9.63,-14.39 0.12,-2.92 4.86,-26.23 -8.99,-15.59 -1.39,1.07 0.09,0.28 -1.81,1.32 -20.06,-19.55 -64.45,1.5 -51.3,33.59 6.92,16.88 28.17,19.33 38.42,30 6.01,6.27 5.3,18.7 -1.68,23.98 -7.77,5.85 -20.53,2.09 -26.31,-3.2 -6.91,-6.33 -5.88,-16.71 -10.95,-24.09l0.03 -0.01zm982.29 -155.5c-13,-1.86 -17.71,-3.13 -29.03,3.32 -6.92,3.93 -13.11,8.97 -15.75,18.39 -6.05,21.53 10.77,35.13 27.88,37.8 8.4,1.32 21.01,2.28 27.45,6.79 6.43,4.5 8.91,17.25 2.19,23.73 -5.8,5.58 -18.63,7.16 -26.51,2.52 -7.07,-4.16 -9.76,-13.17 -16.13,-17.99 -10.61,2.6 -3.39,13.11 -1.41,22.02 0.86,3.87 0.74,10.22 3.66,12.55 5.14,4.11 7.39,-1.68 9.45,-3.82 20.38,5.91 41.1,-3.82 49.16,-15.96 12.26,-18.43 0.62,-38.72 -12.83,-45.88 -18.95,-10.1 -47.18,-2.68 -47.27,-21.32 -0.03,-8.46 11.8,-14.5 21.27,-12.03 9.62,2.5 11.57,11.23 17.57,16.76 11.49,-2.85 5.35,-11.3 3.05,-20.37 -1.08,-4.28 -1.27,-9.19 -4.16,-11.23 -4.75,-3.35 -7.62,0.55 -8.59,4.74l-0.01 -0.02zm-1293.75 139.13c0.15,0.19 0.31,0.28 0.36,0.62 0.55,3.51 6.11,7.95 10.08,3.58 1.73,-1.9 5.89,-23.45 6.71,-27.31 1.39,-6.54 -0.46,-8.9 -6.59,-9.29 -5.61,7.46 -9.91,17.82 -17.3,22.17 -17.89,10.55 -42.99,-1.7 -42.36,-31.11 1.07,-48.7 37.08,-66.04 57.11,-41.32 6.56,8.1 5.6,32.34 14.76,21.87 0.32,-0.36 12.58,-38.55 -1.42,-33.07l-3.35 2.45c-4.15,-1.87 -6.87,-4.7 -11.46,-6.95 -33.77,-16.54 -69.87,1.42 -78.61,37.24 -8.55,35.13 10.49,56.49 40.12,63.4 14.92,3.48 19.39,0.38 31.94,-2.27l-0.01 -0.01zm1052.3 -80.73c-12.44,-0.88 -18.26,-4.83 -33,-0.86 -10.28,2.76 -17.76,7.03 -23.73,12.33 -22.3,19.71 -28.26,78.85 17.42,92.49 10.14,3.02 22,2.85 32.25,0.34 11.77,-2.87 16.26,-7.2 23.29,-12.69 3.85,1.94 1.9,4.63 8.77,3.2 4.88,-4.57 1.65,-12.37 0.38,-20.35 -1.37,-8.64 -0.26,-18.54 -10.04,-17.07 -4.75,2.78 -0.28,38.21 -32.39,36.95 -20.55,-0.82 -28.73,-20.71 -31.58,-37.92 -8.1,-48.93 29.43,-56.97 46.45,-41.83 5.17,4.6 9.95,21.84 16.96,13.25 2.09,-3.26 -2.24,-29.16 -6.61,-31.83 -4.93,-3.01 -6.33,1.01 -8.11,3.95l-0.04 0.04zm-949.68 100.75c1.73,2.55 0.85,4.34 4.24,5.55 3.46,1.24 5.77,-0.73 6.74,-2.88 1.16,-2.56 2.84,-14.08 3.56,-17.82 1.07,-5.54 4.36,-14.28 -0.83,-16.81 -10.55,-5.13 -8.44,26.82 -37.01,25.28 -12.36,-0.66 -21.37,-9.44 -24.93,-18.28 -4.36,-10.84 -2.27,-25.61 0.54,-37.21 9.86,-40.58 49.27,-36.94 57.83,-12.84 2.25,6.37 0,12.45 6.09,15.62 5.3,-0.32 5.85,-2.48 6.72,-7.75 0.73,-4.36 1.24,-8.34 1.96,-12.68 0.59,-3.59 2.05,-8.7 0.22,-12.13 -1.78,-3.33 -4.36,-3.33 -7,-1.81l-2.81 2.06c-9.25,-5.06 -12.11,-8.46 -25.12,-11.12 -67.46,-13.76 -97.07,93.02 -21.48,106.2 16.68,2.9 20.82,-0.96 31.31,-3.39l-0.03 0.04zm848.86 -84.79c-11.44,-2.45 -19.77,-5.04 -32.67,-1.84 -29.66,7.33 -46.27,32.92 -41.42,65.12 3.21,21.45 14.42,33.47 32.67,39.42 10.05,3.29 21.07,3.58 31.94,1.24 12.45,-2.68 16.79,-6.92 24.12,-12.67 2.79,2.37 0.55,2.48 3.88,3.82 10.59,4.28 6.3,-13.86 6.22,-14.5 -0.67,-4.78 -1.24,-9.4 -1.91,-14.1 -0.88,-6.18 -1.63,-9.48 -8.4,-9.17 -6.12,2.79 -0.9,37.45 -32.41,36.4 -18.82,-0.64 -28.6,-18.59 -31.34,-37.18 -8.36,-56.65 40.17,-60.11 52.85,-33.9 2.06,4.27 3.49,8.47 9.86,6.87 3.71,-2.51 -0.13,-31.05 -5.42,-33.93 -4.37,-2.4 -5.85,1.62 -7.95,4.41l-0.02 0.01zm-124.24 13.24c-1.29,9.57 6.69,7.15 13.53,9.17 2.38,7.73 5.96,47.33 5.99,56.88 0.13,23.7 -19.31,29.8 -35.11,26.36 -16.75,-3.64 -15.23,-27.16 -17.01,-45.28 -0.83,-8.42 -2.51,-19.74 -2.56,-27.94 -0.1,-15.21 13.51,0.26 12.13,-18.4 -8.88,0.64 -17.61,1.77 -26.47,2.4 -9.17,0.65 -18.88,-0.3 -23.67,5.22 1.04,8.5 5.8,4.62 12.23,7.13 3.96,1.55 3.65,9.53 4.13,14.52 1.58,16.96 2.79,54.28 11.42,64.28 13.86,16.07 44.02,13.11 58.61,5.6 22.13,-11.38 17.93,-35.42 15.9,-56.69 -0.68,-7.35 -3.52,-28.45 -2.51,-34.08 3.49,-5.01 8.75,-2.32 11.62,-6.78 7.33,-11.3 -19.2,-5.48 -22.87,-5.35 -6.92,0.26 -9.92,-0.66 -15.36,2.92l0 0.02zm242.96 -33.36c-0.51,4.08 4.32,3.64 14.36,4.3 3.99,5.17 7.49,29.23 9.32,38.29 1.79,8.84 7.85,33.24 6.97,40.72 -2.91,1.84 -7.52,1.97 -9.66,4.66 -3.38,4.28 -0.47,5.99 1.24,8.94 6.38,-0.36 9.17,-2.01 14.54,-3.24 4.43,-1.03 9.57,-1.85 14.13,-2.79 9.45,-1.94 19.15,-3.99 28.77,-5.5 25.95,-4.05 27.83,-0.06 23.47,-23.11 -1.16,-6.17 -1.96,-8.81 -6.74,-10.46 -10.9,5.21 4.49,20.69 -28.83,25.27 -12.06,1.66 -13.82,-0.74 -16.2,-10.84 -1.3,-5.57 -4.28,-18.05 -4.33,-23.37 23.41,-4.43 12.92,13.66 25.95,11.57 5.26,-5.21 -0.18,-16.45 -1.65,-23.83 -3.04,-15.09 -0.52,-21.29 -10.2,-21.17 -6.3,6.66 -1.06,8.03 -4.28,15.24 -1.68,3.74 -6.72,6.69 -12.44,6.99 -1.34,-4.6 -6.24,-27.93 -5.86,-32.2 4.21,-2.09 14.7,-3.72 20.01,-3.87 11.31,-0.33 10.76,2.79 14.79,9.76 4.16,7.18 11.94,2.97 9.48,-5.94 -1.54,-5.61 -1.66,-15.9 -6.65,-17.56 -5.63,-1.88 -33.36,5.27 -40.12,6.82 -6.84,1.57 -13.09,3.04 -20.38,4.09 -8.8,1.27 -14.92,0.52 -15.73,7.25l0.02 0zm635.55 200.11c2.54,14.92 6.15,27.47 7.88,43.4 3.66,-2.32 12.29,-4.05 20.12,-3.69l-10.85 -43.4 -17.15 3.67 0 0.02zm-2298.38 15.87c11.86,-1.45 17.49,-0.13 25.82,5.43 0.82,-9.22 2.4,-18.45 4.06,-27.6 1.52,-8.33 4.44,-18.02 5.48,-25.71 -3.35,-2.38 -17.15,-5.42 -22.18,-5.6l-13.19 53.47 0.01 0zm2329.69 -21.71c1.12,12.73 14.05,52.7 13.66,57.44 -0.93,11.43 -14.64,3.36 -14.64,3.36 -25.3,-10.3 -38.44,40.84 18.56,21.07 20.76,-7.2 50.61,-22.21 45.98,-49.49 -2.04,-12.04 -13.37,-20.53 -22.75,-25.09 -13.19,-6.39 -24.43,-7.77 -40.81,-7.3zm-2330.47 -33.88c-26.05,-1.88 -47.17,3.36 -65.9,18.88 -4.28,3.56 -9.1,10.12 -10.82,17.93 -7.31,33.05 28.69,52.02 53.5,60.24 69.02,22.9 54.15,-35.86 24.56,-27.15 -2.65,0.79 -15.64,9.53 -17.55,-1.39 -0.47,-2.77 4.06,-18.69 5.1,-22.72 2.56,-10.07 10.8,-37.52 11.08,-45.78l0.02 -0.01zm2018.8 -7.51l10.25 89.67c12.14,-9.44 14.78,-12.04 33.21,-16.31 15.18,-3.49 29.92,-4.03 45.82,-4.8 29.09,-1.4 62.33,-10.35 60.11,-41.69 -0.54,-7.57 -2.88,-13.92 -5.85,-19.43 -4.29,-8.03 -4.82,-7.69 -13.98,-11.3 -39.1,-15.39 -93.44,-10.77 -129.55,3.87l-0.02 -0.02zm-1668.67 89.33l9.55 -89.82c-5.83,-1.26 -12.96,-3.99 -19.33,-5.58 -35.27,-8.9 -124.93,-21.09 -129.72,32.05 -4.52,50.21 71.42,39.65 104.66,47.02 14.63,3.15 22.91,5.65 34.86,16.32l-0.01 0zm1801.25 -154.25c0.71,11.42 14.61,51.41 21.36,62.79 3.84,6.43 6.58,13.11 8.2,20.62 7.85,36.35 -19.11,54.89 -49.19,61.25 -24.22,5.14 -76.78,0.39 -93.3,20.2 -9.16,11 -9.29,40.61 -5.96,48.09 5.33,11.99 20.2,19.11 38.31,18.25 55.64,-2.65 158.84,-131.91 258.29,-138.6 23.15,-1.57 30.1,2.47 48.67,8.47 -17.97,-50.22 -25.94,-82.77 -33.01,-136.51 -1.43,-3.52 -10.69,-11.84 -13.79,-14.12 -5.45,-4.05 -11.33,-7.41 -18.69,-9.95 -48.23,-16.73 -108.34,17.81 -144.97,46.26 -4.11,3.18 -13.04,9.95 -15.93,13.28l0.01 -0.02zm-2210.62 69.66c8.59,-2.85 13.75,-6.37 24.21,-8.68 58.29,-12.93 120.15,21.63 164.52,52.1 38.91,26.72 112.64,87.68 151.61,102.25 25.09,9.38 60.1,2.88 65.96,-20.71 1.81,-7.26 -0.83,-20.12 -4.11,-25.82 -20.97,-36.44 -110.89,-2.67 -140.17,-50.74 -9.21,-15.09 -6.81,-35.08 0.51,-50.25 1.91,-3.95 4.13,-7.1 5.86,-10.23 5.3,-9.66 26.85,-81.67 25.63,-85.47l-40.18 -33.97c-38.81,-31.22 -99.42,-69.14 -154.97,-63.1 -22.88,2.5 -39.47,11.8 -50.88,23.27 -10.02,10.08 -7.95,9.33 -9.66,27 -5.06,52.63 -18.93,97.34 -38.29,144.36l-0.03 0zm899.44 -631.51c1.35,6.12 -3.49,21.33 -2.88,29.92 0.66,9.27 5.8,21.07 14.23,21.07 10.31,0 8.39,0.7 14.17,-4.11 11.81,-9.85 6.95,-7.49 15.59,-20.44 20.38,-30.54 32.32,-26.39 61.42,-10.23 10.31,5.73 20.73,11.56 31.34,17.39 36.19,19.91 100.03,37.74 147.52,45.05 85.26,13.15 173.7,5.73 254.84,-21.58 12.21,-4.11 23.63,-7.82 35.65,-12.96 7.82,-3.35 28.3,-10.99 32.82,-15.93l-119.82 0.55c-25.82,0.09 -16.87,1.65 -41.22,6.97 -44.99,9.86 -89.2,10.09 -134.38,3.64 -54.89,-7.83 -100.41,-28.99 -139.95,-55.69 -33.27,-22.47 -66.34,-63.87 -86.31,-109.04 -16.16,-36.48 -28.89,-65.11 -46.26,-100.54 -2.73,-5.57 -5.14,-10.84 -7.83,-16.45 -2.12,-4.39 -6.13,-13.69 -8.55,-16.83 -20.26,-0.55 -20.03,21.45 -17.84,38.76 2.09,16.6 1.52,40.28 2.04,57.81 1.13,37.09 3.92,76.44 0.13,113.23 -15.37,-5.35 -28.11,-24.3 -33.75,-40.21 -10.19,-28.68 -6.24,-35.11 -2.4,-64.17 2.51,-19 12.68,-39.38 18.51,-56.62 6.05,-17.99 14.2,-36.58 21.02,-54.58 20.53,-54.22 41.99,-107.79 62.19,-162.03 7,-18.8 14.13,-35.65 21.79,-53.83 29.71,-70.56 58.94,-141.13 87.86,-211.95 12.01,-28.84 77.03,-197.81 88.01,-211.65 3.18,4.43 9.35,22.98 12.04,30l155.95 401.4c23.7,60.39 46.29,126.27 69.73,187.86 6.05,15.93 30.96,79.9 34.98,93.75 3.26,11.25 6.41,22.38 9.74,33.49 13.26,44.17 29.02,96.35 -29.46,115.87 -11.15,3.72 -23.8,5.45 -36.11,6.43 -7.13,0.55 -14.41,0.51 -21.56,0.49 -29.59,-0.09 -61.42,38.21 0,37.46 55.08,-0.67 110.35,-3.69 165.71,-5.03 56.31,-1.36 112.18,2.4 168.25,3.49 34.16,0.69 46.74,1.97 82.23,0.09 43.34,-2.32 15.75,-23.88 -8.16,-33.18 -32.84,-12.78 -68.08,-18.5 -89.4,-39.35 -40.58,-39.73 -54.88,-77.87 -78.11,-136.15 -16.41,-41.12 -32.57,-82.07 -48.8,-123.16 -96.97,-245.33 -195.59,-491.44 -292.24,-736.81 -6.04,-15.34 -23.61,-49.18 -42.37,-39.13 -14.58,7.82 -23.23,35.8 -31.14,54.41l-50.55 121.36c-33.45,80.87 -68.03,161.03 -101.44,241.58 -58.52,141.03 -118.09,281.79 -176.93,422.74 -37.51,88.35 -84.47,231.88 -197.36,231.78 -36.91,-0.03 -36.41,30.23 -7.1,35.19 42.58,7.22 116.51,-7 162.84,-4.7 26.93,1.35 53.74,3.91 81.33,4.6l-0.01 -0.04zm755.81 -159.38c5.14,-5.54 6.63,-38.09 7.86,-48.76 9.78,-84.73 -36.43,-185.58 -96.49,-241.35 -5.41,-5.03 -26.21,-22.98 -32.01,-25.8 0.98,5 5.21,14.92 7.33,19.84l113.32 296.06 -0.02 0.01zm-504.2 -163.56c0.12,8.47 8.24,5.7 21.09,8.74 8.18,1.93 15.7,5.14 19.07,11.56 6.25,11.88 4.31,41.26 4.31,57.16 0,40.52 0,81.04 0,121.57 0,17.7 1.55,43.65 -0.12,60.34 -0.9,8.97 -11.57,10.46 -19.93,10.51 -27.15,0.19 -61.29,2.76 -81.46,-10.04 -16.34,-10.38 -10.9,-32.48 -18.48,-42.47 -5.85,3.99 -4.7,13.95 -4.7,22.18 0,9.01 0.01,18 -0.02,27.01 -0.09,18.93 10.04,15.4 38.98,14.79 16.63,-0.36 34.08,-1.49 51.27,-2.21 34.19,-1.4 130.74,-0.51 160.49,1.7 9.08,0.68 17.66,0.64 26.75,0.67 11.16,0.04 15.46,-0.86 15.61,-12.23 0.09,-6.27 0.95,-41.72 -1.01,-47.15l-2.89 -4.44c-8.01,6.24 0.28,30.6 -19.61,41.9 -21.61,12.3 -55.12,10.3 -81.22,10.28 -10.45,0 -18.53,-0.03 -19.42,-10.64 -1.53,-18.02 -0.12,-43.22 -0.12,-62.03 0,-41.12 0,-82.25 0,-123.36 0,-15.75 -2.38,-42.39 4.63,-54.47 5.7,-9.78 19.07,-9.97 33.02,-12.96 6.41,-1.37 7.39,-2.37 4.75,-8.55 -18.1,-3.52 -46.43,3.01 -66.09,2.2 -11.12,-0.45 -22.18,-1.19 -33.3,-1.78 -8.88,-0.47 -25.74,-3.77 -31.62,1.73l0 -0.01zm410.01 -406.47c33.97,0 29.78,-30.11 28.63,-56.34 -3.08,-71.38 -8.4,-93.23 -0.67,-166.21 3.25,-30.57 -5.35,-66.95 -29.03,-49.73 -10.2,7.42 -19.23,25.43 -28.19,36.63l-9.85 12.7c-5.57,5.67 -5.46,5.07 -14.77,2.24 -39.43,-12.01 -72.15,-32.5 -106.53,-46.43 -14.13,-5.73 -55.95,-17.15 -70.7,-16.41 0.04,0.83 15.03,42.45 18.29,44.49 2.12,1.34 20.59,4.85 25.63,6.72 8.37,3.13 15.06,6.17 22.56,9.82 43.92,21.33 75.97,50.77 101.28,91.4 19.67,31.56 29.71,49.55 45.15,84.5l18.18 46.58 0.04 0.05zm-594.75 127.7l44.9 -97.11c14.53,-32.44 29.69,-64.36 44.26,-97.07 9.94,-22.26 -2.12,-68.21 33.15,-108.21 6.58,-7.46 9.21,-10.55 17.61,-17.49 8.08,-6.69 7.44,-8.08 13.35,-21.79 5.01,-11.62 19.58,-40.17 21.9,-49.7 -15.42,2.84 -43.63,15.75 -57.68,22.03 -18.23,8.14 -36.31,18.25 -50.44,28.79 -71.91,53.68 -97.93,121.81 -101.13,215.94 -1.14,33.9 7,68.45 20.71,98.3l13.37 26.31 -0.02 -0.02zm82.54 87c24.3,29.98 244.74,117.26 272.85,124.26 -1.23,-6.01 -64.83,-172.81 -66.93,-178.43 -5.73,-15.3 -11.1,-29.28 -16.7,-44.51 -1.9,-5.11 -1.68,-7 -6.1,-9.17 -3.96,-1.94 -6.81,-2.92 -10.61,-4.69 -25.1,-11.62 -92.92,-37.42 -102.79,-53.1 -3.17,5.11 -7.54,15.52 -9.34,19.75l-60.37 145.87 0 0.02zm-693.06 520.42c7.92,64.98 25.49,132.84 56.6,190.38 7.66,10.38 15.64,20.54 23.88,30.54 8.97,2.11 17.56,4.47 25.15,6.71 136.47,40.23 275.1,74.91 415.6,97.76 122.6,19.93 245.54,30.33 369.78,29.17 248.01,-2.3 491.47,-50.81 730.92,-111.92 15.64,-18.25 31.12,-36.59 46.58,-54.94 30.22,-56.97 47.38,-123.72 55.17,-187.72 -11.72,-40.94 -22.13,-82.26 -31.33,-123.82 -19.7,-89.15 -33.87,-179.5 -43.2,-270.32l-0.15 -0.23 -2.03 -21.51c-7.92,-83.86 -11.75,-168.13 -11.75,-252.37 0,-204.58 22.18,-414.41 73.48,-613.67 -156.14,13.82 -316.02,-7.61 -463.93,-57.86 -140.38,-47.69 -273.63,-122.57 -382.95,-223.38 -109.31,100.8 -242.58,175.69 -382.94,223.38 -147.91,50.25 -307.79,71.7 -463.93,57.86 51.3,199.26 73.48,409.09 73.48,613.67 0,84.23 -3.86,168.49 -11.75,252.37l-2.03 21.51 -0.15 0.23c-9.34,90.81 -23.51,181.17 -43.22,270.32 -9.19,41.57 -19.58,82.9 -31.33,123.82l0.02 0.02zm723.31 758.81l138.67 86.08 131.9 -81.87c-33.9,0.98 -67.77,1.37 -101.5,1.21 -56.24,-0.28 -112.67,-2.07 -169.04,-5.42l-0.01 0z"/>
  </g>
 </g>
</svg>
