<?xml version="1.0" encoding="UTF-8"?>
<!DOCTYPE svg PUBLIC "-//W3C//DTD SVG 1.1//EN" "http://www.w3.org/Graphics/SVG/1.1/DTD/svg11.dtd">
<!-- Creator: CorelDRAW -->
<svg xmlns="http://www.w3.org/2000/svg" xml:space="preserve" width="32.6801mm" height="12.7396mm" version="1.1" style="shape-rendering:geometricPrecision; text-rendering:geometricPrecision; image-rendering:optimizeQuality; fill-rule:evenodd; clip-rule:evenodd"
viewBox="0 0 138.26 53.9"
 xmlns:xlink="http://www.w3.org/1999/xlink"
 xmlns:xodm="http://www.corel.com/coreldraw/odm/2003">
 <defs>
  <style type="text/css">
   <![CDATA[
    .fil1 {fill:white}
    .fil0 {fill:white;fill-rule:nonzero}
   ]]>
  </style>
 </defs>
 <g id="Слой_x0020_1">
  <metadata id="CorelCorpID_0Corel-Layer"/>
  <g id="_1748992271232">
   <path class="fil0" d="M60.2 32.11c-0.85,0 -1.43,0.29 -1.74,0.89 -0.31,0.59 -0.63,1.84 -0.94,3.74l-1.7 0 0 -6.28 1.38 0c1.31,-1.83 2.37,-4.07 3.16,-6.71 0.8,-2.64 1.2,-4.85 1.2,-6.63 0,-0.68 -0.12,-1.12 -0.35,-1.34 -0.23,-0.22 -0.55,-0.34 -0.95,-0.39l0 -0.85 11.59 0 0 0.85c-0.6,0.15 -1,0.34 -1.2,0.58 -0.2,0.23 -0.3,0.9 -0.3,2l0 12.49 2.05 0 0 6.28 -1.7 0c-0.3,-1.76 -0.6,-2.97 -0.91,-3.63 -0.31,-0.66 -0.91,-1 -1.81,-1l-7.78 0 -0 0zm6.15 -1.65l0 -14.38 -2.77 0c-0.52,6.13 -1.88,10.92 -4.09,14.38l6.85 0zm16.16 -2.96c-0.78,1.65 -1.56,2.88 -2.31,3.69 -0.76,0.82 -1.75,1.22 -2.96,1.22 -0.68,0 -1.48,-0.12 -2.42,-0.37l0 -3.6 1.88 0c0.04,1.1 0.45,1.65 1.22,1.65 0.92,0 1.77,-0.79 2.53,-2.35l-4.49 -9.74c-0.46,-0.98 -0.81,-1.66 -1.09,-2.02 -0.27,-0.36 -0.61,-0.55 -1.02,-0.58l0 -0.85 6.86 0 0 0.85c-0.66,0.09 -0.99,0.41 -0.99,0.98 0,0.33 0.23,1 0.68,2.03l2.2 5.12 2.11 -5.01c0.38,-0.89 0.57,-1.6 0.57,-2.11 0,-0.65 -0.33,-0.98 -1,-1.02l0 -0.85 5.09 0 0 0.85c-0.48,0.11 -0.9,0.4 -1.28,0.88 -0.37,0.48 -0.8,1.19 -1.29,2.13l-4.28 9.09zm19.82 -12.55l0 3.73 -1.75 0c-0.21,-0.97 -0.53,-1.68 -0.98,-2.14 -0.44,-0.46 -1.03,-0.69 -1.75,-0.69 -1.36,0 -2.38,0.65 -3.07,1.95 -0.7,1.3 -1.04,3.23 -1.04,5.78 0,2.37 0.32,4.17 0.95,5.4 0.64,1.22 1.57,1.83 2.79,1.83 0.63,0 1.14,-0.11 1.53,-0.32 0.39,-0.21 0.71,-0.52 0.94,-0.94 0.24,-0.42 0.44,-1.01 0.61,-1.77l1.76 0 0 3.89c-0.94,0.23 -1.8,0.39 -2.58,0.49 -0.78,0.1 -1.6,0.16 -2.43,0.16 -1.78,0 -3.24,-0.32 -4.37,-0.97 -1.13,-0.64 -1.96,-1.62 -2.49,-2.91 -0.54,-1.3 -0.8,-2.95 -0.8,-4.93 0,-1.86 0.32,-3.47 0.94,-4.85 0.63,-1.38 1.56,-2.44 2.78,-3.18 1.23,-0.75 2.7,-1.12 4.4,-1.12 0.87,0 1.65,0.05 2.35,0.14 0.71,0.1 1.44,0.25 2.2,0.47l0 -0.01zm5.96 17.15l0 -0.85c0.36,-0.06 0.65,-0.14 0.86,-0.24 0.21,-0.1 0.37,-0.24 0.47,-0.42 0.11,-0.18 0.17,-0.41 0.19,-0.69 0.03,-0.28 0.04,-0.62 0.04,-1.03l0 -12.82 -1.04 0c-0.52,0 -0.91,0.06 -1.19,0.18 -0.27,0.12 -0.51,0.31 -0.72,0.57 -0.2,0.26 -0.37,0.6 -0.52,1.03 -0.15,0.43 -0.27,0.84 -0.36,1.23l-1.76 0 0 -4.51 15.14 0 0 4.51 -1.77 0c-0.16,-0.58 -0.29,-1.01 -0.39,-1.29 -0.09,-0.27 -0.2,-0.5 -0.31,-0.7 -0.12,-0.19 -0.24,-0.36 -0.37,-0.48 -0.13,-0.13 -0.27,-0.23 -0.41,-0.31 -0.15,-0.07 -0.33,-0.13 -0.55,-0.17 -0.22,-0.04 -0.5,-0.06 -0.86,-0.06l-0.92 0 0 12.82c0,0.45 0.01,0.8 0.04,1.03 0.03,0.24 0.07,0.43 0.14,0.57 0.07,0.15 0.15,0.26 0.25,0.35 0.1,0.09 0.24,0.17 0.41,0.25 0.18,0.08 0.42,0.13 0.72,0.18l0 0.85 -7.1 0 0 -0zm28.62 -3.23c0,0.86 0.07,1.44 0.22,1.73 0.15,0.29 0.53,0.5 1.14,0.65l0 0.85 -6.71 0 0 -0.85c0.62,-0.15 1,-0.35 1.14,-0.6 0.15,-0.25 0.22,-0.85 0.22,-1.78l0 -5.03c0,-1.52 0.04,-2.67 0.12,-3.46l-0.07 0 -6.11 8.49c0,0.85 0.08,1.42 0.24,1.72 0.16,0.3 0.55,0.51 1.15,0.66l0 0.85 -6.75 0 0 -0.85c0.59,-0.15 0.97,-0.36 1.13,-0.65 0.16,-0.29 0.25,-0.86 0.25,-1.73l0 -11.09c0,-0.88 -0.08,-1.46 -0.23,-1.73 -0.16,-0.28 -0.54,-0.5 -1.15,-0.66l0 -0.85 6.75 0 0 0.85c-0.61,0.17 -0.99,0.4 -1.15,0.68 -0.16,0.28 -0.24,0.86 -0.24,1.72l0 5.66c0,1.07 -0.03,1.92 -0.09,2.53l0.08 0 6.08 -8.5c0,-0.72 -0.08,-1.21 -0.23,-1.48 -0.15,-0.26 -0.53,-0.47 -1.13,-0.62l0 -0.85 6.71 0 0 0.85c-0.6,0.16 -0.97,0.39 -1.13,0.66 -0.15,0.28 -0.23,0.86 -0.23,1.74l0 11.08 -0.01 0z"/>
   <path class="fil1" d="M7.39 43.7c1.91,0.4 3.52,1.02 5.66,1.1 4.01,0.15 4.02,-2.64 10.3,1.8 1.35,0.96 2.9,1.85 3.63,3.16 -5.85,1.67 -1.49,1.07 -10.33,-1.19 -2.41,-0.61 -5.36,-1.46 -7.34,-2.92 -0.36,-0.26 -0.7,-0.54 -1,-0.82 -0.6,-0.56 -0.48,-0.64 -0.91,-1.13zm11.15 -14.86c-0.09,-0.27 -0.2,-0.53 -0.32,-0.78l-9.59 9.59c0.25,0.12 0.51,0.23 0.78,0.32 0.37,0.13 0.75,0.22 1.14,0.29 0.37,0.06 0.77,0.09 1.18,0.09 0.98,0 1.91,-0.19 2.75,-0.54 0.87,-0.36 1.66,-0.9 2.33,-1.56 0.67,-0.67 1.2,-1.45 1.56,-2.33 0.35,-0.84 0.54,-1.77 0.54,-2.75 0,-0.41 -0.03,-0.81 -0.09,-1.18 -0.06,-0.39 -0.16,-0.77 -0.29,-1.14l0 0zm-4.48 -4.48c-0.37,-0.13 -0.75,-0.22 -1.14,-0.29 -0.37,-0.06 -0.77,-0.09 -1.18,-0.09 -0.98,0 -1.91,0.19 -2.75,0.54 -0.87,0.36 -1.66,0.89 -2.33,1.56 -0.67,0.67 -1.2,1.45 -1.56,2.33l0 0c-0.35,0.84 -0.54,1.77 -0.54,2.74 0,0.41 0.03,0.81 0.09,1.18 0.06,0.39 0.16,0.77 0.29,1.14 0.09,0.27 0.2,0.53 0.32,0.78l9.59 -9.59c-0.25,-0.12 -0.51,-0.23 -0.78,-0.32l-0 0zm-0.87 -1.96c0.49,0.08 0.96,0.2 1.41,0.35 0.37,0.12 0.73,0.28 1.08,0.45 0.36,0.18 0.7,0.37 1.01,0.59l0.85 0.58 -0.73 0.73 -11.15 11.15 -0.73 0.73 -0.58 -0.85c-0.21,-0.32 -0.41,-0.66 -0.59,-1.01 -0.17,-0.35 -0.32,-0.71 -0.45,-1.08 -0.15,-0.45 -0.27,-0.92 -0.35,-1.41 -0.08,-0.48 -0.12,-0.97 -0.12,-1.45 0,-1.2 0.24,-2.35 0.68,-3.39 0.22,-0.54 0.5,-1.05 0.81,-1.52l-0.23 0.12c-3,2.28 -5.58,12.34 6.38,15.21 5.66,1.36 6.28,-2.03 11.18,0.64 5.6,3.06 5.95,4.46 7.73,5.63 4.1,-1.94 7.11,-8.51 7.04,-14.08 -0.08,-6.7 -3.14,-8.58 -4.44,-11.61 -1.02,-2.38 -0.13,-2.67 2.02,-2.63 -0.21,-1.48 -0.6,-3.32 0.09,-4.64 0.69,-1.31 1.76,-1.24 3.53,-1.45 -1.13,-2.99 -4.54,-6.15 -7.4,-7.65 -3.52,-1.85 -7.83,-2.68 -12.33,-2.84l0.09 19.63c-0.4,-0.27 -0.82,-0.51 -1.27,-0.73 -0.44,-0.22 -0.9,-0.41 -1.37,-0.57 -0.58,-0.19 -1.17,-0.35 -1.8,-0.45 -0.61,-0.1 -1.23,-0.15 -1.85,-0.15 -0.91,0 -1.8,0.11 -2.66,0.32l-0.03 -0c-0.05,-3.51 -0.04,-7.89 -0,-11.4 0.09,-6.94 -0.57,-5.19 -3.41,-6.83l0.01 -2.75c7.68,0.08 15.87,-0.3 22.99,1.61 6.95,1.87 10.78,4.47 15.29,9.16 3.58,3.71 6.92,11.01 6.09,18.24 -0.71,6.11 -4.72,11.95 -8.82,15.54 -4.28,3.74 -9.13,6.21 -15.85,8.61 -3.07,1.09 -2.32,0.89 -4.79,-0.35 -3.65,-1.83 -8.82,-1.62 -13.1,-5.04 -4.89,-3.9 -8.67,-10.46 -7.09,-16.97 1.48,-6.1 6.67,-8.33 10.7,-8.5 0.22,-0.02 0.45,-0.03 0.68,-0.03 0.49,0 0.97,0.04 1.45,0.12l0 -0zm6.5 4.81c0.17,0.35 0.32,0.71 0.45,1.08 0.16,0.45 0.27,0.92 0.35,1.41 0.08,0.48 0.12,0.97 0.12,1.45 0,1.2 -0.24,2.34 -0.68,3.39 -0.45,1.09 -1.11,2.07 -1.93,2.89 -0.82,0.82 -1.79,1.47 -2.88,1.93 -1.05,0.43 -2.19,0.68 -3.39,0.68 -0.49,0 -0.97,-0.04 -1.45,-0.12 -0.49,-0.08 -0.96,-0.2 -1.41,-0.35 -0.37,-0.12 -0.73,-0.28 -1.08,-0.45 -0.36,-0.18 -0.7,-0.37 -1.01,-0.59l-0.85 -0.57 0.73 -0.73 11.15 -11.15 0.73 -0.73 0.58 0.85c0.21,0.32 0.41,0.66 0.59,1.01l-0.01 0.01zm19.17 7.67c-0.18,-5 0.28,-5.76 -1.42,-10.53 -0.45,-1.27 -3.66,-8.47 -0.41,-8.88 2.89,-0.36 3.26,6.18 3.43,8.82 0.21,3.2 -0.48,8 -1.6,10.59zm-26.81 -31.88l2.53 -0.02c-0.03,5.22 -0.06,10.26 -0.09,15.48 -0.81,-0.28 -1.63,-0.26 -2.43,-0.29l-0 -15.16 -0 0zm26.49 39.66c0.57,-2.16 7.73,-11.34 3.66,-25.71 -1.21,-4.27 -2.4,-5.16 -3.07,-7.09 1.89,0.97 4.63,4.29 5.88,6.64 3.25,6.1 2.91,13.89 -0.58,19.73 -1.08,1.8 -4.49,5.84 -5.9,6.43z"/>
   <path class="fil0" d="M74.21 39.04l0 -0.56 4.43 0 0 0.56c-0.39,0.1 -0.63,0.23 -0.74,0.41 -0.11,0.18 -0.16,0.51 -0.16,0.99 3.2,0.02 4.81,1.29 4.81,3.82 0,2.6 -1.6,3.92 -4.81,3.99 0,0.52 0.05,0.88 0.16,1.06 0.11,0.18 0.35,0.32 0.74,0.41l0 0.56 -4.43 0 0 -0.56c0.36,-0.09 0.6,-0.21 0.72,-0.38 0.12,-0.17 0.19,-0.53 0.19,-1.09 -1.56,0 -2.75,-0.32 -3.59,-0.97 -0.84,-0.64 -1.26,-1.6 -1.26,-2.87 0,-1.25 0.42,-2.22 1.25,-2.91 0.84,-0.69 2.04,-1.04 3.6,-1.07 -0.01,-0.52 -0.08,-0.86 -0.21,-1.03 -0.13,-0.16 -0.37,-0.28 -0.71,-0.37l-0 0zm0.91 8.3l0 -5.98c-1.47,0.12 -2.21,1.07 -2.21,2.86 0,0.94 0.19,1.67 0.58,2.22 0.39,0.54 0.93,0.84 1.63,0.9l0 -0zm2.62 -5.98l0 5.98c0.68,-0.06 1.21,-0.34 1.59,-0.86 0.38,-0.51 0.57,-1.18 0.57,-1.99 0,-1.94 -0.72,-2.98 -2.16,-3.13l0 0zm11.23 7.81l-0.13 -0.04c-0.47,0.45 -0.91,0.78 -1.35,0.98 -0.43,0.2 -0.9,0.3 -1.39,0.3 -0.48,0 -0.91,-0.09 -1.26,-0.26 -0.36,-0.18 -0.63,-0.42 -0.81,-0.74 -0.18,-0.31 -0.27,-0.68 -0.27,-1.09 0,-0.83 0.41,-1.48 1.22,-1.95 0.81,-0.47 2.05,-0.78 3.7,-0.9l0 -0.8c0,-0.52 -0.06,-0.93 -0.18,-1.21 -0.12,-0.28 -0.27,-0.48 -0.46,-0.6 -0.19,-0.12 -0.41,-0.17 -0.67,-0.17 -0.26,0 -0.48,0.05 -0.67,0.14 -0.19,0.09 -0.36,0.26 -0.51,0.51 -0.15,0.25 -0.26,0.6 -0.34,1.04l-1.59 0 0 -1.54c0.52,-0.23 0.95,-0.41 1.29,-0.53 0.34,-0.12 0.68,-0.22 1.02,-0.31 0.33,-0.08 0.63,-0.14 0.9,-0.17 0.26,-0.03 0.53,-0.05 0.79,-0.05 0.68,0 1.23,0.09 1.63,0.27 0.41,0.18 0.72,0.47 0.92,0.88 0.2,0.41 0.3,0.96 0.3,1.68l0 3.3c0,0.37 0.01,0.66 0.02,0.86 0.02,0.2 0.04,0.35 0.08,0.45 0.04,0.1 0.08,0.18 0.14,0.24 0.06,0.06 0.13,0.11 0.21,0.14 0.08,0.04 0.24,0.08 0.46,0.14l0 0.56 -3.14 0 0.08 -1.11 0 0zm-0.28 -2.88c-0.87,0.02 -1.52,0.19 -1.94,0.49 -0.42,0.3 -0.63,0.75 -0.63,1.34 0,0.35 0.09,0.61 0.29,0.8 0.19,0.18 0.46,0.27 0.79,0.27 0.26,0 0.51,-0.07 0.74,-0.21 0.23,-0.14 0.41,-0.32 0.55,-0.55 0.14,-0.23 0.2,-0.47 0.2,-0.74l0 -1.4 0 -0zm7.7 5.5c0,0.42 0.02,0.72 0.07,0.9 0.05,0.17 0.13,0.31 0.24,0.41 0.12,0.1 0.32,0.19 0.61,0.25l0 0.56 -4.21 0 0 -0.56c0.26,-0.08 0.45,-0.16 0.55,-0.26 0.1,-0.1 0.18,-0.23 0.23,-0.4 0.04,-0.17 0.07,-0.47 0.07,-0.9l0 -7.39c0,-0.4 -0,-0.68 -0.01,-0.85 -0.01,-0.17 -0.03,-0.31 -0.06,-0.43 -0.03,-0.12 -0.08,-0.22 -0.13,-0.29 -0.06,-0.08 -0.14,-0.14 -0.25,-0.2 -0.11,-0.06 -0.27,-0.11 -0.48,-0.15l0 -0.57 2.34 -0.07 1.04 0 -0.13 1.23 0.1 0.02c0.48,-0.47 0.94,-0.8 1.35,-1.01 0.42,-0.2 0.85,-0.31 1.3,-0.31 1,0 1.75,0.35 2.26,1.06 0.5,0.71 0.75,1.76 0.75,3.17 0,0.97 -0.15,1.79 -0.44,2.44 -0.3,0.65 -0.74,1.15 -1.32,1.48 -0.59,0.33 -1.31,0.5 -2.16,0.5 -0.58,0 -1.15,-0.08 -1.71,-0.22l0 1.59 0 0zm0 -4.28c0,0.69 0.12,1.2 0.36,1.53 0.24,0.33 0.61,0.49 1.11,0.49 0.52,0 0.91,-0.27 1.19,-0.82 0.27,-0.54 0.41,-1.32 0.41,-2.33 0,-1.12 -0.12,-1.95 -0.37,-2.49 -0.25,-0.54 -0.63,-0.81 -1.14,-0.81 -0.25,0 -0.5,0.06 -0.74,0.2 -0.24,0.13 -0.43,0.31 -0.58,0.55 -0.15,0.24 -0.23,0.51 -0.23,0.81l0 2.86zm14.21 -5.61l3.68 0 0 0.56c-0.36,0.06 -0.58,0.2 -0.68,0.41 -0.09,0.21 -0.14,0.66 -0.14,1.34l0 3.77c0,0.67 0.04,1.1 0.13,1.31 0.09,0.2 0.32,0.35 0.68,0.43l0 0.56 -3.94 0 0 -0.56c0.36,-0.09 0.58,-0.23 0.68,-0.43 0.09,-0.2 0.14,-0.64 0.14,-1.31l0 -2.26c0,-0.56 0.02,-1.27 0.04,-2.11l-0.1 0c-0.21,0.64 -0.47,1.31 -0.77,2.02l-1.39 3.35 -1.36 0 -1.33 -3.3c-0.32,-0.78 -0.57,-1.48 -0.74,-2.08l-0.11 0c0.04,0.58 0.06,1.25 0.06,2.02l0 2.35c0,0.67 0.05,1.11 0.14,1.31 0.09,0.2 0.32,0.35 0.67,0.43l0 0.56 -2.81 0 0 -0.56c0.36,-0.09 0.58,-0.23 0.68,-0.43 0.09,-0.2 0.14,-0.64 0.14,-1.31l0 -3.77c0,-0.69 -0.04,-1.14 -0.14,-1.34 -0.09,-0.21 -0.32,-0.34 -0.67,-0.41l0 -0.56 3.73 0 1.6 4.57 1.8 -4.57 -0 0zm10.12 7.27l-0.12 -0.04c-0.46,0.45 -0.91,0.78 -1.35,0.98 -0.44,0.2 -0.9,0.3 -1.39,0.3 -0.48,0 -0.91,-0.09 -1.26,-0.26 -0.36,-0.18 -0.63,-0.42 -0.81,-0.74 -0.18,-0.31 -0.27,-0.68 -0.27,-1.09 0,-0.83 0.41,-1.48 1.22,-1.95 0.81,-0.47 2.05,-0.78 3.7,-0.9l0 -0.8c0,-0.52 -0.06,-0.93 -0.18,-1.21 -0.12,-0.28 -0.27,-0.48 -0.46,-0.6 -0.19,-0.12 -0.41,-0.17 -0.67,-0.17 -0.26,0 -0.48,0.05 -0.67,0.14 -0.19,0.09 -0.36,0.26 -0.51,0.51 -0.15,0.25 -0.26,0.6 -0.34,1.04l-1.6 0 0 -1.54c0.52,-0.23 0.95,-0.41 1.29,-0.53 0.34,-0.12 0.68,-0.22 1.02,-0.31 0.33,-0.08 0.63,-0.14 0.9,-0.17 0.26,-0.03 0.53,-0.05 0.79,-0.05 0.68,0 1.23,0.09 1.63,0.27 0.41,0.18 0.72,0.47 0.92,0.88 0.2,0.41 0.31,0.96 0.31,1.68l0 3.3c0,0.37 0.01,0.66 0.02,0.86 0.02,0.2 0.04,0.35 0.08,0.45 0.04,0.1 0.08,0.18 0.14,0.24 0.06,0.06 0.13,0.11 0.21,0.14 0.08,0.04 0.24,0.08 0.46,0.14l0 0.56 -3.14 0 0.08 -1.11 0.01 0zm-0.28 -2.88c-0.87,0.02 -1.52,0.19 -1.94,0.49 -0.42,0.3 -0.63,0.75 -0.63,1.34 0,0.35 0.09,0.61 0.29,0.8 0.19,0.18 0.46,0.27 0.79,0.27 0.26,0 0.51,-0.07 0.74,-0.21 0.23,-0.14 0.41,-0.32 0.55,-0.55 0.14,-0.23 0.2,-0.47 0.2,-0.74l0 -1.4 0 -0z"/>
   <polygon class="fil1" points="126.03,11.89 133.66,11.89 133.66,12.79 126.03,12.79 "/>
  </g>
 </g>
</svg>
