<?xml version="1.0" encoding="UTF-8"?>
<!DOCTYPE svg PUBLIC "-//W3C//DTD SVG 1.1//EN" "http://www.w3.org/Graphics/SVG/1.1/DTD/svg11.dtd">
<!-- Creator: CorelDRAW -->
<svg xmlns="http://www.w3.org/2000/svg" xml:space="preserve" width="32.68mm" height="12.8694mm" version="1.1" style="shape-rendering:geometricPrecision; text-rendering:geometricPrecision; image-rendering:optimizeQuality; fill-rule:evenodd; clip-rule:evenodd"
viewBox="0 0 138.26 54.45"
 xmlns:xlink="http://www.w3.org/1999/xlink"
 xmlns:xodm="http://www.corel.com/coreldraw/odm/2003">
 <defs>
  <style type="text/css">
   <![CDATA[
    .fil0 {fill:white;fill-rule:nonzero}
   ]]>
  </style>
 </defs>
 <g id="Слой_x0020_1">
  <metadata id="CorelCorpID_0Corel-Layer"/>
  <g id="_1748669683744">
   <path class="fil0" d="M26.04 2.1c0,1.49 -0.87,2.23 -2.62,2.23 -1.83,0 -2.75,-0.74 -2.75,-2.23 0,-1.4 0.92,-2.1 2.75,-2.1 1.75,0 2.62,0.7 2.62,2.1zm-7.39 0c0,1.49 -0.92,2.23 -2.75,2.23 -1.75,0 -2.62,-0.74 -2.62,-2.23 0,-1.4 0.87,-2.1 2.62,-2.1 1.83,0 2.75,0.7 2.75,2.1zm-1.25 18.21c-0.03,-0.09 -0.1,-0.23 -0.21,-0.43 -0.11,-0.2 -0.28,-0.39 -0.49,-0.58 -0.21,-0.19 -0.49,-0.35 -0.84,-0.49 -0.34,-0.14 -0.77,-0.21 -1.29,-0.21 0.03,0 -0.04,0 -0.21,0 -0.17,0 -0.44,0.01 -0.82,0.04 0.06,1.95 0.83,2.92 2.32,2.92 1.03,0 1.55,-0.42 1.55,-1.25zm10.56 1.03l-6.18 16.66 -0.9 -0.09 0.52 -2.15c-0.46,0.34 -1.03,0.66 -1.72,0.94 -0.69,0.29 -1.42,0.54 -2.19,0.75 -0.77,0.21 -1.55,0.38 -2.34,0.49 -0.79,0.11 -1.5,0.17 -2.13,0.17 -1.83,0 -3.51,-0.21 -5.02,-0.64 -1.52,-0.43 -2.82,-1.07 -3.91,-1.91 -1.09,-0.84 -1.93,-1.88 -2.53,-3.09 -0.6,-1.22 -0.9,-2.61 -0.9,-4.19 0,-0.52 0.06,-1.09 0.19,-1.72 0.13,-0.63 0.29,-1.23 0.49,-1.8 0.2,-0.57 0.42,-1.1 0.67,-1.59 0.24,-0.49 0.46,-0.86 0.67,-1.12 0.77,-0.97 1.71,-1.85 2.81,-2.62 1.1,-0.77 2.43,-1.43 3.97,-1.98 -0.06,-0.63 -0.1,-1.19 -0.13,-1.67 -0.03,-0.49 -0.04,-0.89 -0.04,-1.2l0 0.04c0.03,-0.03 0.04,-0.09 0.04,-0.17 0,-0.06 0,-0.13 0,-0.21 0,-0.09 0.01,-0.2 0.04,-0.34 0.31,-2.18 1.11,-3.91 2.38,-5.2 1.27,-1.29 2.75,-2.14 4.42,-2.56 1.67,-0.42 3.4,-0.37 5.17,0.13 1.78,0.5 3.32,1.47 4.64,2.9l-4.04 11.59 -0.82 -0.13c0.4,-0.86 0.6,-1.67 0.6,-2.45 0,-0.69 -0.09,-1.34 -0.28,-1.95 -0.19,-0.62 -0.47,-1.17 -0.86,-1.65 -0.39,-0.49 -0.88,-0.87 -1.48,-1.16 -0.6,-0.29 -1.32,-0.43 -2.15,-0.43 -0.92,0 -1.65,0.32 -2.19,0.94 -0.54,0.63 -0.99,1.6 -1.33,2.92 3.92,0.57 5.88,1.79 5.88,3.65 0,0.74 -0.31,1.44 -0.92,2.08 -0.62,0.64 -1.47,0.97 -2.56,0.97 -2.03,0 -3.92,-1.2 -5.67,-3.61 -0.52,0.14 -1.01,0.39 -1.48,0.73 -0.47,0.34 -0.88,0.75 -1.22,1.22 -0.34,0.47 -0.62,0.98 -0.82,1.52 -0.2,0.54 -0.3,1.07 -0.3,1.59 0,0.77 0.14,1.43 0.43,1.98l0.39 0.69c0.52,0.92 1.41,1.65 2.68,2.19 1.27,0.54 2.64,0.82 4.1,0.82 1.66,0 3.22,-0.32 4.68,-0.97 1.46,-0.64 2.76,-1.45 3.91,-2.43 1.15,-0.97 2.12,-2.03 2.92,-3.16 0.8,-1.13 1.39,-2.17 1.76,-3.11l0.73 0.3zm37.06 -7c0,-0.03 -0.03,0.14 -0.09,0.52 -0.4,1.92 -1.27,3.46 -2.62,4.64 -0.72,0.63 -2.26,1.57 -4.64,2.83 0.23,0.09 0.6,0.23 1.12,0.43 2.52,1.23 3.78,3.29 3.78,6.18 0,2.49 -0.83,4.61 -2.49,6.36 -1.63,1.75 -3.66,2.62 -6.1,2.62 -0.77,0 -2.16,-0.37 -4.17,-1.12l-0.39 1.55 -0.82 0.04 3.44 -12.02 0.86 0.13c-0.14,0.69 -0.21,1.27 -0.21,1.76 0,0.77 0.14,1.36 0.43,1.76 0.49,0.74 1.3,1.12 2.45,1.12 0.97,0 1.75,-0.5 2.32,-1.5 0.49,-0.83 0.73,-1.76 0.73,-2.79 0,-1.46 -0.59,-2.52 -1.76,-3.18 -0.6,-0.31 -1.16,-0.47 -1.67,-0.47 -0.72,0 -1.46,0.27 -2.23,0.82l0.86 -2.62c0.4,0.34 0.83,0.52 1.29,0.52 0.52,0 1.2,-0.29 2.06,-0.86 1.46,-0.97 2.19,-2.32 2.19,-4.04 0,-1.4 -0.79,-2.49 -2.36,-3.26 -0.89,-0.43 -1.9,-0.64 -3.05,-0.64 -1.55,0 -3.28,0.52 -5.2,1.55 -1.92,1.09 -3.35,2.26 -4.29,3.52 -0.54,0.74 -1.25,1.69 -2.1,2.83l-0.73 -0.04 4.64 -12.54c3.35,-1.57 6.53,-2.36 9.53,-2.36 2.52,0 4.64,0.66 6.36,1.98 1.92,1.43 2.88,3.36 2.88,5.8l0 0.52zm-9.02 0.94c-1.46,1.2 -2.29,2.09 -2.49,2.66 -0.54,1.26 -1.17,3.25 -1.89,5.97 -0.72,2.63 -1.36,4.64 -1.93,6.01 -0.89,2.12 -1.92,3.72 -3.09,4.81 -2.55,2.29 -5.68,3.44 -9.4,3.44 -2.18,0 -4.11,-0.73 -5.8,-2.19 -1.72,-1.46 -2.58,-3.25 -2.58,-5.37 0,-3.41 1.62,-5.8 4.85,-7.17 1.6,-0.69 3.35,-1.03 5.24,-1.03 1.6,0 3.09,0.46 4.47,1.37 1.35,0.94 2.32,2.16 2.92,3.65l0.17 0.56c-1.4,-1.98 -3.25,-2.96 -5.54,-2.96 -1.23,0 -2.29,0.36 -3.18,1.07 -1,0.77 -1.5,1.75 -1.5,2.92 0,1.14 0.49,2.05 1.46,2.71 0.83,0.57 1.86,0.86 3.09,0.86 1.95,0 3.51,-0.62 4.68,-1.85 0.11,-0.11 0.44,-0.5 0.99,-1.16 0.74,-0.86 1.69,-2.91 2.83,-6.14 0.74,-2.12 1.12,-3.69 1.12,-4.72 0,-0.66 -0.26,-1 -0.77,-1.03l-0.39 0.13c1.35,-1.92 2.98,-2.88 4.9,-2.88 0.66,0 1.27,0.11 1.85,0.34zm44.87 8.89l-4.55 13.4 -0.94 0.04c0.29,-1 0.52,-1.77 0.69,-2.32 -0.69,0.69 -1.19,1.2 -1.5,1.55 -0.63,0.52 -1.27,0.77 -1.93,0.77 -1.49,0 -2.46,-0.63 -2.92,-1.89 -0.2,-0.52 -0.3,-1.32 -0.3,-2.4 0,-0.11 0,-0.24 0,-0.39l3.99 -16.83c0.03,-0.14 0.04,-0.26 0.04,-0.34 0,-0.86 -0.49,-1.56 -1.46,-2.1 -0.8,-0.46 -1.67,-0.69 -2.62,-0.69 -1.95,0 -3.72,0.89 -5.32,2.66 -1,1.06 -2.13,2.76 -3.39,5.11l-0.73 -0.04 4.81 -12.45c2.81,-1.6 5.12,-2.4 6.96,-2.4 0.09,0 0.47,0.04 1.16,0.13 3.06,0.4 4.59,1.98 4.59,4.72 0,1.09 -0.23,2.46 -0.69,4.12l-2.83 11.08c-0.03,0.23 -0.04,0.54 -0.04,0.94 0,1.55 0.63,2.32 1.89,2.32 0.94,0 1.85,-0.63 2.71,-1.89 0.23,-0.34 0.79,-1.4 1.67,-3.18l0.73 0.09zm-10.39 -2.02l-0.94 3.69c-1.92,0 -3.36,0.92 -4.34,2.75 0,-0.14 0.07,-0.4 0.21,-0.77 0.26,-0.89 0.66,-1.85 1.2,-2.88 0.63,-1.15 1.26,-1.92 1.89,-2.32 0.51,-0.31 1.17,-0.47 1.97,-0.47zm-0.94 -6.7c-1.35,0.92 -2.33,2.22 -2.96,3.91 -0.29,0.72 -0.7,2.36 -1.25,4.94 -0.57,2.4 -1,4.05 -1.29,4.94 -1.03,3.26 -2.6,5.64 -4.72,7.13 -1.63,1.12 -4.04,1.67 -7.21,1.67 -3.12,0 -5.48,-1.07 -7.09,-3.22 -0.43,-0.54 -0.72,-1.1 -0.86,-1.67 -0.29,-1 -0.43,-1.79 -0.43,-2.36 0,-1.06 0.09,-1.86 0.26,-2.4 0.17,-0.54 0.6,-1.23 1.29,-2.06 1.75,-2.15 4.17,-3.22 7.26,-3.22 1.55,0 3.09,0.53 4.64,1.59 1.52,1.06 2.46,2.32 2.83,3.78 -1,-1 -1.67,-1.63 -2.02,-1.89 -0.83,-0.63 -1.66,-0.94 -2.49,-0.94 -1.2,0 -2.23,0.26 -3.09,0.77 -0.94,0.6 -1.42,1.46 -1.42,2.58 0,1.17 0.33,2.15 0.99,2.92 0.69,0.77 1.6,1.16 2.75,1.16 1.66,0 3.15,-0.43 4.47,-1.29 1.32,-0.8 2.29,-1.98 2.92,-3.52 0.17,-0.52 0.37,-1.06 0.6,-1.63 0.11,-0.37 0.37,-1.35 0.77,-2.92 0.37,-1.55 0.56,-2.49 0.56,-2.83 0,-0.52 -0.36,-0.76 -1.07,-0.73 1.09,-3.15 2.92,-4.72 5.5,-4.72 -0.03,0 0.33,0.01 1.07,0.04zm48.05 -1.46c0,3.23 -1.47,5.78 -4.42,7.64 -1.23,0.77 -3.05,1.25 -5.45,1.42 -0.29,1.49 -0.82,3.05 -1.59,4.68 1.32,2.15 1.98,4.05 1.98,5.71 0,1.46 -0.09,2.63 -0.26,3.52 -0.09,0.34 -0.21,0.84 -0.39,1.5l-0.9 0.04c0.43,-1.37 0.64,-3.06 0.64,-5.07 0,-0.03 -0.03,-0.2 -0.09,-0.52 -0.32,-1.75 -0.82,-3.03 -1.5,-3.86 -2.6,5.81 -6.24,8.92 -10.91,9.32 -1.43,0.11 -2.42,0.17 -2.96,0.17 -1.43,0 -2.86,-0.37 -4.29,-1.12 -3.41,-1.8 -5.11,-4.29 -5.11,-7.47l0 -0.69c0,-2.55 1.09,-4.69 3.26,-6.44 1.8,-1.43 4.05,-2.15 6.74,-2.15 1.6,0 3.33,0.31 5.17,0.92 1.85,0.62 3.36,1.42 4.53,2.43 0.49,0.43 1.23,1.06 2.23,1.89 0.54,-1.06 0.9,-2.18 1.07,-3.35 -1.15,-0.66 -2,-1.46 -2.58,-2.4 0.29,0.06 0.73,0.13 1.33,0.21 0.34,0.09 0.84,0.19 1.5,0.3 0.34,-1.2 0.52,-2.06 0.52,-2.58 0,-0.69 -0.39,-1.12 -1.16,-1.29 0.43,-0.6 1.08,-1.14 1.95,-1.61 0.87,-0.47 1.67,-0.71 2.38,-0.71 0.54,0 0.99,0.11 1.33,0.34 -0.77,0.77 -1.33,1.66 -1.67,2.66 -0.14,0.4 -0.39,1.43 -0.73,3.09 2.75,-0.09 4.12,-1.33 4.12,-3.74 0,-1.4 -0.53,-2.38 -1.59,-2.92 -0.74,-0.37 -1.9,-0.56 -3.48,-0.56 -0.11,0 -0.49,0.06 -1.12,0.17 -1.98,0.37 -3.84,1.12 -5.58,2.23 -1.63,1.06 -3.11,2.38 -4.42,3.95l-0.86 -0.09 4.64 -10.99 1.93 -0.94c2.12,-1.03 4.29,-1.55 6.53,-1.55 1.92,0 3.61,0.39 5.07,1.16 2.75,1.49 4.12,3.71 4.12,6.66zm-13.96 13.05c-0.83,-0.92 -2.07,-1.7 -3.71,-2.34 -1.65,-0.64 -3.13,-0.97 -4.44,-0.97 -1.49,0 -2.79,0.4 -3.91,1.2 -1.26,0.92 -1.89,2.09 -1.89,3.52 0,0.97 0.34,1.81 1.03,2.51 0.69,0.7 1.52,1.17 2.49,1.4 0.52,0.11 1.32,0.17 2.4,0.17 1.66,0 3.25,-0.53 4.77,-1.59 1.52,-1.06 2.6,-2.36 3.26,-3.91z"/>
   <g>
    <path class="fil0" d="M7.82 52.3c0,0.14 -0.03,0.25 -0.1,0.31 -0.07,0.07 -0.16,0.1 -0.28,0.1l-7.05 0c-0.12,0 -0.21,-0.03 -0.28,-0.1 -0.07,-0.07 -0.11,-0.17 -0.11,-0.31l0 -5.94c0,-0.03 0.01,-0.06 0.03,-0.08 0.02,-0.02 0.06,-0.04 0.11,-0.06 0.05,-0.02 0.12,-0.03 0.2,-0.04 0.08,-0.01 0.19,-0.01 0.31,-0.01 0.12,0 0.23,0 0.31,0.01 0.08,0.01 0.15,0.02 0.2,0.04 0.05,0.02 0.09,0.03 0.11,0.06 0.02,0.02 0.03,0.05 0.03,0.09l0 5.27 1.97 0 0 -5.27c0,-0.03 0.01,-0.06 0.03,-0.09 0.02,-0.02 0.06,-0.04 0.11,-0.06 0.05,-0.02 0.12,-0.03 0.2,-0.04 0.08,-0.01 0.19,-0.01 0.31,-0.01 0.12,0 0.22,0 0.3,0.01 0.08,0.01 0.15,0.02 0.2,0.04 0.05,0.02 0.09,0.03 0.11,0.06 0.02,0.02 0.03,0.05 0.03,0.09l0 5.27 1.97 0 0 -5.27c0,-0.03 0.01,-0.06 0.03,-0.09 0.02,-0.02 0.06,-0.04 0.11,-0.06 0.05,-0.02 0.12,-0.03 0.2,-0.04 0.08,-0.01 0.19,-0.01 0.31,-0.01 0.12,0 0.22,0 0.3,0.01 0.08,0.01 0.15,0.02 0.2,0.04 0.05,0.02 0.09,0.03 0.11,0.06 0.02,0.02 0.04,0.05 0.04,0.08l0 5.94zm6.76 -0.08c0.04,0.12 0.07,0.22 0.08,0.29 0.01,0.07 -0,0.12 -0.04,0.16 -0.04,0.03 -0.1,0.06 -0.2,0.07 -0.09,0.01 -0.22,0.01 -0.39,0.01 -0.17,0 -0.31,-0 -0.4,-0.01 -0.1,-0.01 -0.17,-0.02 -0.22,-0.03 -0.05,-0.02 -0.08,-0.04 -0.1,-0.06 -0.02,-0.03 -0.04,-0.06 -0.05,-0.1l-0.43 -1.31 -2.46 0 -0.41 1.27c-0.01,0.05 -0.03,0.09 -0.05,0.12 -0.02,0.03 -0.06,0.06 -0.1,0.08 -0.05,0.02 -0.12,0.03 -0.21,0.04 -0.09,0.01 -0.21,0.01 -0.35,0.01 -0.15,0 -0.28,-0.01 -0.36,-0.02 -0.09,-0.01 -0.15,-0.03 -0.18,-0.07 -0.03,-0.04 -0.05,-0.09 -0.04,-0.16 0.01,-0.07 0.04,-0.16 0.08,-0.28l2.01 -5.78c0.02,-0.06 0.04,-0.1 0.07,-0.14 0.03,-0.04 0.07,-0.06 0.13,-0.08 0.06,-0.02 0.14,-0.03 0.25,-0.04 0.1,-0.01 0.24,-0.01 0.41,-0.01 0.2,0 0.36,0 0.47,0.01 0.12,0.01 0.21,0.02 0.28,0.04 0.07,0.02 0.11,0.05 0.14,0.08 0.03,0.04 0.05,0.09 0.07,0.15l2.01 5.78zm-2.99 -4.78l-0.01 0 -0.91 2.77 1.83 0 -0.92 -2.77zm8.62 3.26c0,0.3 -0.05,0.57 -0.15,0.81 -0.1,0.25 -0.25,0.46 -0.46,0.64 -0.2,0.18 -0.46,0.32 -0.77,0.42 -0.31,0.1 -0.72,0.15 -1.21,0.15l-1.72 0c-0.12,0 -0.22,-0.03 -0.3,-0.1 -0.08,-0.07 -0.11,-0.18 -0.11,-0.34l0 -5.66c0,-0.15 0.04,-0.25 0.11,-0.32 0.08,-0.07 0.17,-0.1 0.28,-0.1l3.69 0c0.03,0 0.06,0.01 0.09,0.03 0.03,0.02 0.05,0.04 0.07,0.09 0.02,0.04 0.03,0.09 0.04,0.16 0.01,0.07 0.01,0.15 0.01,0.25 0,0.09 -0,0.17 -0.01,0.24 -0.01,0.07 -0.02,0.12 -0.04,0.16 -0.02,0.04 -0.04,0.07 -0.07,0.09 -0.03,0.02 -0.05,0.03 -0.08,0.03l-2.77 0 0 1.62 1.09 0c0.42,0 0.77,0.04 1.04,0.12 0.27,0.08 0.5,0.2 0.69,0.36 0.19,0.16 0.33,0.35 0.43,0.58 0.1,0.23 0.15,0.49 0.15,0.78zm-1.34 0.08c0,-0.14 -0.02,-0.27 -0.07,-0.39 -0.05,-0.12 -0.12,-0.21 -0.21,-0.3 -0.09,-0.08 -0.21,-0.15 -0.35,-0.19 -0.14,-0.04 -0.33,-0.07 -0.58,-0.07l-0.86 0 0 1.88 0.87 0c0.22,0 0.4,-0.02 0.53,-0.06 0.14,-0.04 0.26,-0.1 0.35,-0.18 0.09,-0.08 0.17,-0.18 0.22,-0.3 0.05,-0.12 0.08,-0.25 0.08,-0.4zm7.56 1.44c0.04,0.12 0.07,0.22 0.08,0.29 0.01,0.07 -0,0.12 -0.04,0.16 -0.04,0.03 -0.1,0.06 -0.2,0.07 -0.09,0.01 -0.22,0.01 -0.39,0.01 -0.17,0 -0.31,-0 -0.4,-0.01 -0.1,-0.01 -0.17,-0.02 -0.22,-0.03 -0.05,-0.02 -0.08,-0.04 -0.1,-0.06 -0.02,-0.03 -0.04,-0.06 -0.05,-0.1l-0.43 -1.31 -2.46 0 -0.41 1.27c-0.01,0.05 -0.03,0.09 -0.05,0.12 -0.02,0.03 -0.06,0.06 -0.1,0.08 -0.05,0.02 -0.12,0.03 -0.21,0.04 -0.09,0.01 -0.21,0.01 -0.35,0.01 -0.15,0 -0.28,-0.01 -0.36,-0.02 -0.09,-0.01 -0.15,-0.03 -0.18,-0.07 -0.03,-0.04 -0.05,-0.09 -0.04,-0.16 0.01,-0.07 0.04,-0.16 0.08,-0.28l2.01 -5.78c0.02,-0.06 0.04,-0.1 0.07,-0.14 0.03,-0.04 0.07,-0.06 0.13,-0.08 0.06,-0.02 0.14,-0.03 0.25,-0.04 0.1,-0.01 0.24,-0.01 0.41,-0.01 0.2,0 0.36,0 0.47,0.01 0.12,0.01 0.21,0.02 0.27,0.04 0.07,0.02 0.11,0.05 0.14,0.08 0.03,0.04 0.05,0.09 0.07,0.15l2.01 5.78zm-2.99 -4.78l-0.01 0 -0.91 2.77 1.83 0 -0.92 -2.77zm8.73 5.1c0,0.04 -0.01,0.07 -0.03,0.09 -0.02,0.03 -0.06,0.05 -0.11,0.06 -0.05,0.02 -0.12,0.03 -0.21,0.04 -0.09,0.01 -0.2,0.01 -0.34,0.01 -0.15,0 -0.26,-0 -0.35,-0.01 -0.09,-0.01 -0.16,-0.02 -0.21,-0.04 -0.06,-0.02 -0.09,-0.04 -0.12,-0.08 -0.03,-0.03 -0.05,-0.07 -0.06,-0.12l-0.52 -1.45c-0.07,-0.21 -0.15,-0.39 -0.23,-0.53 -0.08,-0.14 -0.17,-0.26 -0.27,-0.35 -0.1,-0.09 -0.21,-0.15 -0.33,-0.19 -0.13,-0.04 -0.26,-0.06 -0.42,-0.06l-0.3 0 0 2.61c0,0.04 -0.01,0.07 -0.03,0.09 -0.02,0.03 -0.06,0.05 -0.1,0.07 -0.05,0.02 -0.12,0.03 -0.2,0.04 -0.08,0.01 -0.19,0.01 -0.32,0.01 -0.13,0 -0.23,-0 -0.32,-0.01 -0.09,-0.01 -0.15,-0.02 -0.2,-0.04 -0.05,-0.02 -0.09,-0.04 -0.11,-0.07 -0.02,-0.03 -0.03,-0.06 -0.03,-0.09l0 -6.16c0,-0.04 0.01,-0.07 0.03,-0.09 0.02,-0.03 0.06,-0.05 0.11,-0.06 0.05,-0.02 0.12,-0.03 0.2,-0.04 0.09,-0.01 0.19,-0.01 0.32,-0.01 0.13,0 0.24,0 0.32,0.01 0.08,0.01 0.15,0.02 0.2,0.04 0.05,0.02 0.09,0.04 0.1,0.06 0.02,0.02 0.03,0.06 0.03,0.09l0 2.44 0.3 0c0.15,0 0.28,-0.02 0.4,-0.06 0.12,-0.04 0.22,-0.1 0.31,-0.19 0.09,-0.09 0.18,-0.2 0.25,-0.34 0.08,-0.14 0.15,-0.31 0.22,-0.52l0.44 -1.3c0.02,-0.05 0.04,-0.09 0.06,-0.12 0.02,-0.03 0.06,-0.06 0.11,-0.08 0.05,-0.02 0.12,-0.03 0.21,-0.04 0.08,-0.01 0.2,-0.01 0.34,-0.01 0.13,0 0.24,0 0.32,0.01 0.09,0.01 0.15,0.02 0.2,0.04 0.05,0.02 0.08,0.03 0.1,0.06 0.02,0.03 0.03,0.06 0.03,0.09 0,0.04 -0.01,0.1 -0.02,0.16 -0.02,0.06 -0.04,0.15 -0.08,0.25l-0.44 1.16c-0.08,0.21 -0.16,0.4 -0.24,0.55 -0.08,0.15 -0.17,0.28 -0.25,0.38 -0.09,0.11 -0.18,0.19 -0.28,0.26 -0.1,0.07 -0.21,0.12 -0.33,0.17l0 0c0.13,0.06 0.26,0.12 0.36,0.19 0.11,0.07 0.21,0.17 0.31,0.28 0.09,0.11 0.19,0.25 0.27,0.41 0.09,0.16 0.18,0.36 0.27,0.59l0.53 1.35c0.06,0.14 0.09,0.23 0.1,0.29 0.01,0.05 0.02,0.09 0.02,0.13zm6.31 -0.32c0.04,0.12 0.07,0.22 0.08,0.29 0.01,0.07 -0,0.12 -0.04,0.16 -0.04,0.03 -0.1,0.06 -0.2,0.07 -0.09,0.01 -0.22,0.01 -0.39,0.01 -0.17,0 -0.31,-0 -0.4,-0.01 -0.1,-0.01 -0.17,-0.02 -0.22,-0.03 -0.05,-0.02 -0.08,-0.04 -0.1,-0.06 -0.02,-0.03 -0.04,-0.06 -0.05,-0.1l-0.43 -1.31 -2.46 0 -0.41 1.27c-0.01,0.05 -0.03,0.09 -0.05,0.12 -0.02,0.03 -0.06,0.06 -0.1,0.08 -0.05,0.02 -0.12,0.03 -0.21,0.04 -0.09,0.01 -0.21,0.01 -0.35,0.01 -0.15,0 -0.28,-0.01 -0.36,-0.02 -0.09,-0.01 -0.15,-0.03 -0.18,-0.07 -0.03,-0.04 -0.05,-0.09 -0.04,-0.16 0.01,-0.07 0.04,-0.16 0.08,-0.28l2.01 -5.78c0.02,-0.06 0.04,-0.1 0.07,-0.14 0.03,-0.04 0.07,-0.06 0.13,-0.08 0.06,-0.02 0.14,-0.03 0.25,-0.04 0.1,-0.01 0.24,-0.01 0.41,-0.01 0.2,0 0.36,0 0.47,0.01 0.12,0.01 0.21,0.02 0.27,0.04 0.07,0.02 0.11,0.05 0.14,0.08 0.03,0.04 0.05,0.09 0.07,0.15l2.01 5.78zm-2.99 -4.78l-0.01 0 -0.91 2.77 1.83 0 -0.92 -2.77zm9.2 5.11c0,0.03 -0.01,0.06 -0.03,0.09 -0.02,0.03 -0.06,0.05 -0.11,0.06 -0.05,0.02 -0.12,0.03 -0.2,0.04 -0.09,0.01 -0.19,0.01 -0.32,0.01 -0.13,0 -0.23,-0 -0.32,-0.01 -0.09,-0.01 -0.15,-0.02 -0.2,-0.04 -0.05,-0.02 -0.08,-0.04 -0.1,-0.06 -0.02,-0.03 -0.03,-0.06 -0.03,-0.09l0 -3.43c0,-0.13 0,-0.26 0.01,-0.38 0,-0.13 0.01,-0.24 0.02,-0.34l-0.01 0c-0.03,0.05 -0.06,0.1 -0.1,0.16 -0.04,0.06 -0.08,0.13 -0.12,0.2 -0.04,0.07 -0.09,0.14 -0.13,0.21 -0.05,0.07 -0.09,0.14 -0.14,0.21l-2.26 3.38c-0.03,0.04 -0.06,0.07 -0.08,0.09 -0.03,0.03 -0.07,0.05 -0.11,0.06 -0.04,0.02 -0.1,0.03 -0.17,0.03 -0.07,0.01 -0.15,0.01 -0.25,0.01 -0.13,0 -0.24,-0 -0.32,-0.01 -0.08,-0.01 -0.14,-0.02 -0.19,-0.04 -0.05,-0.02 -0.08,-0.04 -0.09,-0.07 -0.02,-0.03 -0.03,-0.06 -0.03,-0.1l0 -6.16c0,-0.03 0.01,-0.06 0.03,-0.09 0.02,-0.03 0.06,-0.05 0.11,-0.06 0.05,-0.02 0.12,-0.03 0.2,-0.04 0.08,-0.01 0.19,-0.01 0.32,-0.01 0.13,0 0.24,0 0.32,0.01 0.08,0.01 0.15,0.02 0.2,0.04 0.05,0.02 0.09,0.04 0.1,0.06 0.02,0.03 0.03,0.06 0.03,0.09l0 3.45c0,0.11 -0,0.22 -0.01,0.34 -0,0.12 -0.01,0.24 -0.02,0.35l0.01 0c0.06,-0.1 0.13,-0.22 0.22,-0.36 0.09,-0.14 0.18,-0.28 0.27,-0.41l2.27 -3.38c0.02,-0.03 0.05,-0.06 0.08,-0.09 0.03,-0.03 0.06,-0.05 0.11,-0.06 0.04,-0.02 0.1,-0.03 0.17,-0.03 0.07,-0.01 0.15,-0.01 0.26,-0.01 0.13,0 0.23,0 0.31,0.01 0.08,0.01 0.14,0.02 0.19,0.04 0.05,0.02 0.08,0.04 0.1,0.06 0.02,0.03 0.03,0.06 0.03,0.09l0 6.17zm11.34 -0.01c0,0.03 -0.01,0.06 -0.03,0.09 -0.02,0.03 -0.05,0.05 -0.1,0.07 -0.05,0.02 -0.11,0.03 -0.19,0.04 -0.08,0.01 -0.18,0.02 -0.31,0.02 -0.12,0 -0.22,-0.01 -0.3,-0.02 -0.08,-0.01 -0.14,-0.02 -0.19,-0.04 -0.05,-0.02 -0.08,-0.04 -0.1,-0.07 -0.02,-0.03 -0.03,-0.06 -0.03,-0.09l0 -5.3 -0.01 0 -1.88 5.3c-0.01,0.04 -0.03,0.08 -0.07,0.11 -0.03,0.03 -0.07,0.05 -0.12,0.07 -0.05,0.02 -0.12,0.03 -0.2,0.03 -0.08,0.01 -0.18,0.01 -0.29,0.01 -0.12,0 -0.21,-0 -0.29,-0.01 -0.08,-0.01 -0.15,-0.02 -0.2,-0.04 -0.05,-0.02 -0.09,-0.04 -0.12,-0.07 -0.03,-0.03 -0.05,-0.06 -0.06,-0.1l-1.82 -5.3 -0.01 0 0 5.3c0,0.03 -0.01,0.06 -0.03,0.09 -0.02,0.03 -0.05,0.05 -0.1,0.07 -0.05,0.02 -0.12,0.03 -0.2,0.04 -0.08,0.01 -0.18,0.02 -0.3,0.02 -0.12,0 -0.22,-0.01 -0.3,-0.02 -0.08,-0.01 -0.15,-0.02 -0.19,-0.04 -0.05,-0.02 -0.08,-0.04 -0.1,-0.07 -0.02,-0.03 -0.03,-0.06 -0.03,-0.09l0 -5.81c0,-0.17 0.04,-0.3 0.14,-0.39 0.09,-0.09 0.21,-0.14 0.36,-0.14l0.87 0c0.15,0 0.29,0.01 0.4,0.04 0.11,0.03 0.21,0.07 0.29,0.13 0.08,0.06 0.15,0.14 0.2,0.23 0.05,0.1 0.1,0.21 0.14,0.36l1.4 3.88 0.02 0 1.45 -3.87c0.04,-0.14 0.09,-0.26 0.14,-0.36 0.05,-0.1 0.11,-0.18 0.18,-0.24 0.07,-0.06 0.15,-0.1 0.24,-0.13 0.09,-0.03 0.2,-0.04 0.33,-0.04l0.89 0c0.09,0 0.17,0.01 0.23,0.04 0.07,0.02 0.12,0.06 0.16,0.1 0.04,0.04 0.07,0.1 0.1,0.17 0.02,0.07 0.03,0.14 0.03,0.23l0 5.81zm6.76 -0.31c0.04,0.12 0.07,0.22 0.08,0.29 0.01,0.07 -0,0.12 -0.04,0.16 -0.04,0.03 -0.1,0.06 -0.2,0.07 -0.09,0.01 -0.22,0.01 -0.39,0.01 -0.17,0 -0.31,-0 -0.4,-0.01 -0.1,-0.01 -0.17,-0.02 -0.22,-0.03 -0.05,-0.02 -0.08,-0.04 -0.1,-0.06 -0.02,-0.03 -0.04,-0.06 -0.05,-0.1l-0.43 -1.31 -2.46 0 -0.41 1.27c-0.01,0.05 -0.03,0.09 -0.05,0.12 -0.02,0.03 -0.06,0.06 -0.1,0.08 -0.05,0.02 -0.12,0.03 -0.21,0.04 -0.09,0.01 -0.21,0.01 -0.35,0.01 -0.15,0 -0.28,-0.01 -0.36,-0.02 -0.09,-0.01 -0.15,-0.03 -0.18,-0.07 -0.03,-0.04 -0.05,-0.09 -0.04,-0.16 0.01,-0.07 0.04,-0.16 0.08,-0.28l2.01 -5.78c0.02,-0.06 0.04,-0.1 0.07,-0.14 0.03,-0.04 0.07,-0.06 0.13,-0.08 0.06,-0.02 0.14,-0.03 0.25,-0.04 0.1,-0.01 0.24,-0.01 0.41,-0.01 0.2,0 0.36,0 0.47,0.01 0.12,0.01 0.21,0.02 0.28,0.04 0.07,0.02 0.11,0.05 0.14,0.08 0.03,0.04 0.05,0.09 0.07,0.15l2.01 5.78zm-2.99 -4.78l-0.01 0 -0.91 2.77 1.83 0 -0.92 -2.77zm8.37 0.74c0,0.37 -0.06,0.69 -0.17,0.97 -0.11,0.28 -0.28,0.52 -0.5,0.71 -0.22,0.19 -0.49,0.34 -0.8,0.44 -0.32,0.1 -0.69,0.15 -1.12,0.15l-0.54 0 0 2.08c0,0.03 -0.01,0.06 -0.03,0.09 -0.02,0.03 -0.06,0.05 -0.11,0.07 -0.05,0.02 -0.12,0.03 -0.2,0.04 -0.08,0.01 -0.19,0.02 -0.32,0.02 -0.13,0 -0.23,-0.01 -0.32,-0.02 -0.09,-0.01 -0.15,-0.02 -0.2,-0.04 -0.05,-0.02 -0.09,-0.04 -0.1,-0.07 -0.02,-0.03 -0.03,-0.06 -0.03,-0.09l0 -5.86c0,-0.16 0.04,-0.28 0.12,-0.36 0.08,-0.08 0.19,-0.12 0.32,-0.12l1.54 0c0.15,0 0.3,0.01 0.44,0.02 0.14,0.01 0.31,0.04 0.5,0.08 0.19,0.04 0.39,0.11 0.59,0.21 0.2,0.1 0.37,0.24 0.51,0.4 0.14,0.16 0.25,0.35 0.32,0.56 0.07,0.21 0.11,0.45 0.11,0.72zm-1.38 0.1c0,-0.23 -0.04,-0.42 -0.12,-0.57 -0.08,-0.15 -0.18,-0.26 -0.3,-0.33 -0.12,-0.07 -0.24,-0.12 -0.37,-0.13 -0.13,-0.02 -0.26,-0.03 -0.4,-0.03l-0.57 0 0 2.22 0.6 0c0.21,0 0.39,-0.03 0.53,-0.09 0.14,-0.06 0.26,-0.14 0.35,-0.24 0.09,-0.1 0.16,-0.23 0.21,-0.37 0.05,-0.14 0.07,-0.3 0.07,-0.47zm7.23 4.26c0,0.04 -0.01,0.07 -0.03,0.09 -0.02,0.03 -0.06,0.05 -0.11,0.06 -0.05,0.02 -0.12,0.03 -0.21,0.04 -0.09,0.01 -0.2,0.01 -0.34,0.01 -0.15,0 -0.26,-0 -0.35,-0.01 -0.09,-0.01 -0.16,-0.02 -0.21,-0.04 -0.05,-0.02 -0.09,-0.04 -0.12,-0.08 -0.03,-0.03 -0.05,-0.07 -0.06,-0.12l-0.52 -1.45c-0.07,-0.21 -0.15,-0.39 -0.23,-0.53 -0.08,-0.14 -0.17,-0.26 -0.27,-0.35 -0.1,-0.09 -0.21,-0.15 -0.33,-0.19 -0.13,-0.04 -0.26,-0.06 -0.42,-0.06l-0.3 0 0 2.61c0,0.04 -0.01,0.07 -0.03,0.09 -0.02,0.03 -0.05,0.05 -0.1,0.07 -0.05,0.02 -0.12,0.03 -0.2,0.04 -0.08,0.01 -0.19,0.01 -0.32,0.01 -0.13,0 -0.23,-0 -0.32,-0.01 -0.09,-0.01 -0.15,-0.02 -0.2,-0.04 -0.05,-0.02 -0.09,-0.04 -0.11,-0.07 -0.02,-0.03 -0.03,-0.06 -0.03,-0.09l0 -6.16c0,-0.04 0.01,-0.07 0.03,-0.09 0.02,-0.03 0.06,-0.05 0.11,-0.06 0.05,-0.02 0.12,-0.03 0.2,-0.04 0.09,-0.01 0.19,-0.01 0.32,-0.01 0.13,0 0.24,0 0.32,0.01 0.08,0.01 0.15,0.02 0.2,0.04 0.05,0.02 0.09,0.04 0.1,0.06 0.02,0.02 0.03,0.06 0.03,0.09l0 2.44 0.3 0c0.15,0 0.29,-0.02 0.4,-0.06 0.12,-0.04 0.22,-0.1 0.31,-0.19 0.09,-0.09 0.18,-0.2 0.25,-0.34 0.08,-0.14 0.15,-0.31 0.22,-0.52l0.44 -1.3c0.02,-0.05 0.04,-0.09 0.06,-0.12 0.02,-0.03 0.06,-0.06 0.11,-0.08 0.05,-0.02 0.12,-0.03 0.21,-0.04 0.08,-0.01 0.2,-0.01 0.34,-0.01 0.13,0 0.24,0 0.32,0.01 0.09,0.01 0.15,0.02 0.2,0.04 0.05,0.02 0.08,0.03 0.1,0.06 0.02,0.03 0.03,0.06 0.03,0.09 0,0.04 -0.01,0.1 -0.02,0.16 -0.02,0.06 -0.04,0.15 -0.08,0.25l-0.44 1.16c-0.08,0.21 -0.16,0.4 -0.24,0.55 -0.08,0.15 -0.16,0.28 -0.25,0.38 -0.09,0.11 -0.18,0.19 -0.28,0.26 -0.1,0.07 -0.21,0.12 -0.33,0.17l0 0c0.13,0.06 0.26,0.12 0.36,0.19 0.11,0.07 0.21,0.17 0.31,0.28 0.09,0.11 0.19,0.25 0.27,0.41 0.09,0.16 0.18,0.36 0.27,0.59l0.53 1.35c0.05,0.14 0.09,0.23 0.1,0.29 0.01,0.05 0.02,0.09 0.02,0.13zm6.31 -0.32c0.04,0.12 0.07,0.22 0.08,0.29 0.01,0.07 -0,0.12 -0.04,0.16 -0.04,0.03 -0.1,0.06 -0.2,0.07 -0.09,0.01 -0.22,0.01 -0.39,0.01 -0.17,0 -0.31,-0 -0.4,-0.01 -0.1,-0.01 -0.17,-0.02 -0.22,-0.03 -0.05,-0.02 -0.08,-0.04 -0.1,-0.06 -0.02,-0.03 -0.04,-0.06 -0.05,-0.1l-0.43 -1.31 -2.46 0 -0.41 1.27c-0.01,0.05 -0.03,0.09 -0.05,0.12 -0.02,0.03 -0.06,0.06 -0.1,0.08 -0.05,0.02 -0.12,0.03 -0.21,0.04 -0.09,0.01 -0.21,0.01 -0.35,0.01 -0.15,0 -0.28,-0.01 -0.36,-0.02 -0.09,-0.01 -0.15,-0.03 -0.18,-0.07 -0.03,-0.04 -0.05,-0.09 -0.04,-0.16 0.01,-0.07 0.04,-0.16 0.08,-0.28l2.01 -5.78c0.02,-0.06 0.04,-0.1 0.07,-0.14 0.03,-0.04 0.07,-0.06 0.13,-0.08 0.06,-0.02 0.14,-0.03 0.25,-0.04 0.1,-0.01 0.24,-0.01 0.41,-0.01 0.2,0 0.36,0 0.47,0.01 0.12,0.01 0.21,0.02 0.28,0.04 0.07,0.02 0.11,0.05 0.14,0.08 0.03,0.04 0.05,0.09 0.07,0.15l2.01 5.78zm-2.99 -4.78l-0.01 0 -0.91 2.77 1.83 0 -0.92 -2.77zm7.8 3.39c0,0.33 -0.06,0.62 -0.19,0.87 -0.12,0.25 -0.3,0.46 -0.53,0.63 -0.23,0.17 -0.51,0.3 -0.82,0.38 -0.32,0.08 -0.68,0.13 -1.06,0.13 -0.21,0 -0.41,-0.02 -0.59,-0.04 -0.18,-0.03 -0.34,-0.07 -0.47,-0.11 -0.13,-0.05 -0.24,-0.09 -0.32,-0.13 -0.08,-0.04 -0.14,-0.08 -0.17,-0.11 -0.03,-0.03 -0.06,-0.06 -0.08,-0.09 -0.02,-0.03 -0.03,-0.07 -0.04,-0.13 -0.01,-0.06 -0.02,-0.13 -0.02,-0.21 -0.01,-0.08 -0.01,-0.19 -0.01,-0.31 0,-0.14 0.01,-0.24 0.04,-0.29 0.03,-0.05 0.06,-0.07 0.11,-0.07 0.04,0 0.1,0.02 0.17,0.06 0.07,0.04 0.17,0.09 0.28,0.14 0.11,0.05 0.25,0.1 0.41,0.14 0.16,0.04 0.35,0.07 0.57,0.07 0.18,0 0.35,-0.02 0.49,-0.07 0.15,-0.04 0.27,-0.1 0.37,-0.19 0.1,-0.08 0.18,-0.18 0.24,-0.29 0.06,-0.11 0.09,-0.24 0.09,-0.37 0,-0.15 -0.03,-0.29 -0.08,-0.41 -0.05,-0.12 -0.13,-0.22 -0.24,-0.31 -0.11,-0.08 -0.25,-0.15 -0.42,-0.19 -0.17,-0.04 -0.37,-0.07 -0.61,-0.07l-0.69 0c-0.05,0 -0.09,-0.01 -0.12,-0.02 -0.03,-0.01 -0.05,-0.04 -0.07,-0.08 -0.02,-0.04 -0.03,-0.09 -0.04,-0.15 -0.01,-0.07 -0.01,-0.15 -0.01,-0.26 0,-0.1 0,-0.18 0.01,-0.24 0.01,-0.06 0.02,-0.11 0.04,-0.15 0.02,-0.04 0.04,-0.06 0.07,-0.08 0.03,-0.02 0.06,-0.02 0.1,-0.02l0.7 0c0.21,0 0.39,-0.02 0.54,-0.06 0.16,-0.04 0.29,-0.1 0.4,-0.18 0.1,-0.08 0.19,-0.17 0.24,-0.28 0.06,-0.11 0.08,-0.24 0.08,-0.39 0,-0.12 -0.02,-0.23 -0.06,-0.33 -0.04,-0.1 -0.1,-0.19 -0.18,-0.25 -0.08,-0.07 -0.18,-0.12 -0.31,-0.16 -0.13,-0.04 -0.27,-0.06 -0.44,-0.06 -0.2,0 -0.38,0.02 -0.54,0.07 -0.16,0.04 -0.3,0.09 -0.42,0.14 -0.12,0.05 -0.22,0.1 -0.3,0.14 -0.08,0.04 -0.14,0.07 -0.18,0.07 -0.02,0 -0.04,-0.01 -0.06,-0.02 -0.02,-0.01 -0.03,-0.04 -0.04,-0.07 -0.01,-0.04 -0.02,-0.08 -0.03,-0.14 -0.01,-0.06 -0.01,-0.14 -0.01,-0.24 0,-0.07 0,-0.13 0.01,-0.19 0,-0.06 0.01,-0.11 0.02,-0.16 0.01,-0.05 0.02,-0.09 0.04,-0.12 0.02,-0.03 0.04,-0.07 0.08,-0.1 0.04,-0.03 0.11,-0.08 0.22,-0.13 0.11,-0.05 0.24,-0.1 0.4,-0.15 0.16,-0.04 0.34,-0.08 0.53,-0.11 0.2,-0.03 0.41,-0.04 0.63,-0.04 0.35,0 0.65,0.04 0.91,0.11 0.26,0.07 0.48,0.18 0.65,0.32 0.18,0.14 0.31,0.31 0.39,0.51 0.09,0.2 0.13,0.43 0.13,0.7 0,0.21 -0.03,0.4 -0.09,0.57 -0.06,0.17 -0.14,0.32 -0.24,0.45 -0.1,0.13 -0.23,0.24 -0.38,0.33 -0.14,0.09 -0.31,0.15 -0.48,0.19l0 0.01c0.2,0.02 0.39,0.08 0.56,0.17 0.17,0.09 0.31,0.2 0.43,0.34 0.12,0.14 0.21,0.29 0.28,0.47 0.07,0.18 0.1,0.36 0.1,0.57zm4.78 1.91c-0.09,-0.01 -0.16,-0.02 -0.21,-0.03 -0.05,-0.02 -0.09,-0.04 -0.11,-0.06 -0.02,-0.03 -0.04,-0.06 -0.06,-0.1l-1.23 -2.35 -1.22 2.35c-0.02,0.04 -0.04,0.07 -0.07,0.1 -0.02,0.03 -0.06,0.05 -0.11,0.06 -0.05,0.02 -0.13,0.03 -0.22,0.03 -0.09,0.01 -0.21,0.01 -0.37,0.01 -0.18,0 -0.31,-0.01 -0.41,-0.02 -0.09,-0.01 -0.16,-0.03 -0.19,-0.07 -0.03,-0.04 -0.04,-0.09 -0.02,-0.16 0.02,-0.07 0.06,-0.16 0.13,-0.28l1.56 -2.85 -1.45 -2.67c-0.06,-0.12 -0.1,-0.22 -0.12,-0.29 -0.02,-0.07 -0.01,-0.13 0.03,-0.16 0.04,-0.03 0.11,-0.06 0.21,-0.07 0.1,-0.01 0.25,-0.01 0.44,-0.01 0.16,0 0.28,0 0.38,0.01 0.09,0.01 0.17,0.02 0.22,0.03 0.06,0.02 0.09,0.04 0.11,0.06 0.02,0.03 0.04,0.06 0.06,0.1l1.15 2.16 1.12 -2.16c0.02,-0.04 0.04,-0.07 0.06,-0.1 0.02,-0.03 0.06,-0.05 0.1,-0.06 0.05,-0.02 0.12,-0.03 0.2,-0.03 0.09,-0.01 0.2,-0.01 0.36,-0.01 0.17,0 0.3,0 0.4,0.01 0.1,0.01 0.16,0.03 0.2,0.07 0.04,0.04 0.05,0.09 0.03,0.16 -0.02,0.07 -0.06,0.16 -0.11,0.29l-1.45 2.66 1.23 2.27 0.74 0c0.09,0 0.15,0.02 0.19,0.07 0.04,0.04 0.06,0.1 0.06,0.17l0 2.39c0,0.07 -0.04,0.12 -0.12,0.15 -0.08,0.04 -0.23,0.05 -0.46,0.05 -0.23,0 -0.38,-0.02 -0.46,-0.05 -0.08,-0.03 -0.12,-0.09 -0.12,-0.15l0 -1.49 -0.08 0c-0.16,0 -0.28,-0 -0.37,-0.01z"/>
    <path class="fil0" d="M98.04 49.38c0,0.54 -0.07,1.02 -0.2,1.45 -0.13,0.43 -0.33,0.79 -0.6,1.08 -0.26,0.3 -0.59,0.52 -0.98,0.68 -0.39,0.16 -0.84,0.23 -1.36,0.23 -0.51,0 -0.95,-0.07 -1.32,-0.2 -0.38,-0.13 -0.69,-0.33 -0.94,-0.61 -0.25,-0.27 -0.44,-0.62 -0.57,-1.04 -0.13,-0.42 -0.19,-0.92 -0.19,-1.49 0,-0.53 0.07,-1 0.2,-1.42 0.13,-0.42 0.33,-0.78 0.6,-1.07 0.26,-0.3 0.59,-0.52 0.98,-0.68 0.39,-0.16 0.85,-0.24 1.36,-0.24 0.49,0 0.93,0.07 1.31,0.2 0.38,0.13 0.69,0.33 0.94,0.61 0.25,0.27 0.45,0.61 0.57,1.03 0.13,0.42 0.19,0.9 0.19,1.47zm-1.39 0.07c0,-0.34 -0.03,-0.65 -0.08,-0.93 -0.05,-0.28 -0.14,-0.52 -0.27,-0.72 -0.13,-0.2 -0.3,-0.35 -0.52,-0.46 -0.21,-0.11 -0.48,-0.16 -0.8,-0.16 -0.32,0 -0.6,0.06 -0.81,0.18 -0.22,0.12 -0.4,0.29 -0.53,0.49 -0.13,0.2 -0.23,0.44 -0.28,0.72 -0.06,0.27 -0.08,0.56 -0.08,0.87 0,0.36 0.03,0.68 0.08,0.96 0.05,0.28 0.14,0.53 0.27,0.73 0.13,0.2 0.3,0.35 0.51,0.46 0.21,0.1 0.48,0.16 0.81,0.16 0.32,0 0.6,-0.06 0.81,-0.18 0.22,-0.12 0.4,-0.29 0.53,-0.49 0.13,-0.21 0.23,-0.45 0.28,-0.73 0.06,-0.28 0.08,-0.57 0.08,-0.88zm7.81 3.1c0,0.03 -0.01,0.06 -0.03,0.09 -0.02,0.03 -0.06,0.05 -0.11,0.06 -0.05,0.02 -0.12,0.03 -0.2,0.04 -0.09,0.01 -0.19,0.01 -0.32,0.01 -0.13,0 -0.23,-0 -0.32,-0.01 -0.09,-0.01 -0.15,-0.02 -0.2,-0.04 -0.05,-0.02 -0.08,-0.04 -0.1,-0.06 -0.02,-0.03 -0.03,-0.06 -0.03,-0.09l0 -3.43c0,-0.13 0,-0.26 0.01,-0.38 0,-0.13 0.01,-0.24 0.02,-0.34l-0.01 0c-0.03,0.05 -0.06,0.1 -0.1,0.16 -0.04,0.06 -0.08,0.13 -0.12,0.2 -0.04,0.07 -0.09,0.14 -0.13,0.21 -0.05,0.07 -0.09,0.14 -0.14,0.21l-2.26 3.38c-0.03,0.04 -0.06,0.07 -0.08,0.09 -0.03,0.03 -0.07,0.05 -0.11,0.06 -0.04,0.02 -0.1,0.03 -0.17,0.03 -0.07,0.01 -0.15,0.01 -0.25,0.01 -0.13,0 -0.24,-0 -0.32,-0.01 -0.08,-0.01 -0.14,-0.02 -0.19,-0.04 -0.05,-0.02 -0.08,-0.04 -0.09,-0.07 -0.02,-0.03 -0.03,-0.06 -0.03,-0.1l0 -6.16c0,-0.03 0.01,-0.06 0.03,-0.09 0.02,-0.03 0.06,-0.05 0.11,-0.06 0.05,-0.02 0.12,-0.03 0.2,-0.04 0.08,-0.01 0.19,-0.01 0.32,-0.01 0.13,0 0.24,0 0.32,0.01 0.08,0.01 0.15,0.02 0.2,0.04 0.05,0.02 0.09,0.04 0.1,0.06 0.02,0.03 0.03,0.06 0.03,0.09l0 3.45c0,0.11 -0,0.22 -0.01,0.34 -0,0.12 -0.01,0.24 -0.02,0.35l0.01 0c0.06,-0.1 0.13,-0.22 0.22,-0.36 0.09,-0.14 0.18,-0.28 0.27,-0.41l2.27 -3.38c0.02,-0.03 0.05,-0.06 0.08,-0.09 0.03,-0.03 0.06,-0.05 0.11,-0.06 0.04,-0.02 0.1,-0.03 0.17,-0.03 0.07,-0.01 0.15,-0.01 0.26,-0.01 0.13,0 0.23,0 0.31,0.01 0.08,0.01 0.14,0.02 0.19,0.04 0.05,0.02 0.08,0.04 0.1,0.06 0.02,0.03 0.03,0.06 0.03,0.09l0 6.17zm8.26 -0.81c0,0.08 -0,0.16 -0.01,0.21 -0.01,0.06 -0.01,0.11 -0.02,0.15 -0.01,0.04 -0.02,0.08 -0.04,0.11 -0.02,0.03 -0.04,0.06 -0.08,0.1 -0.04,0.04 -0.11,0.09 -0.21,0.15 -0.11,0.06 -0.24,0.12 -0.39,0.17 -0.15,0.05 -0.33,0.1 -0.52,0.14 -0.2,0.04 -0.41,0.06 -0.64,0.06 -0.45,0 -0.85,-0.07 -1.21,-0.21 -0.36,-0.14 -0.66,-0.34 -0.92,-0.62 -0.25,-0.27 -0.44,-0.61 -0.58,-1.02 -0.13,-0.41 -0.2,-0.89 -0.2,-1.43 0,-0.55 0.07,-1.04 0.22,-1.47 0.15,-0.43 0.35,-0.79 0.62,-1.08 0.26,-0.29 0.58,-0.51 0.95,-0.66 0.37,-0.15 0.78,-0.23 1.22,-0.23 0.18,0 0.35,0.02 0.52,0.05 0.17,0.03 0.32,0.07 0.47,0.12 0.14,0.05 0.27,0.1 0.39,0.17 0.11,0.07 0.19,0.12 0.24,0.17 0.04,0.05 0.08,0.08 0.09,0.11 0.02,0.03 0.03,0.07 0.04,0.12 0.01,0.05 0.02,0.1 0.02,0.17 0.01,0.06 0.01,0.14 0.01,0.24 0,0.1 -0,0.19 -0.01,0.26 -0.01,0.07 -0.02,0.13 -0.03,0.17 -0.02,0.04 -0.04,0.08 -0.06,0.09 -0.02,0.02 -0.05,0.03 -0.08,0.03 -0.05,0 -0.11,-0.03 -0.19,-0.09 -0.08,-0.06 -0.18,-0.12 -0.3,-0.2 -0.12,-0.07 -0.27,-0.14 -0.44,-0.2 -0.17,-0.06 -0.37,-0.09 -0.6,-0.09 -0.26,0 -0.49,0.05 -0.69,0.16 -0.2,0.11 -0.37,0.26 -0.52,0.45 -0.14,0.2 -0.25,0.43 -0.32,0.71 -0.07,0.28 -0.11,0.59 -0.11,0.94 0,0.38 0.04,0.71 0.12,0.99 0.08,0.28 0.19,0.51 0.34,0.69 0.14,0.18 0.32,0.32 0.53,0.4 0.21,0.09 0.44,0.13 0.7,0.13 0.23,0 0.44,-0.03 0.61,-0.08 0.17,-0.05 0.32,-0.12 0.44,-0.18 0.12,-0.07 0.22,-0.13 0.3,-0.18 0.08,-0.05 0.14,-0.08 0.18,-0.08 0.03,0 0.06,0.01 0.08,0.02 0.02,0.01 0.04,0.04 0.05,0.08 0.01,0.04 0.02,0.1 0.03,0.17 0.01,0.07 0.01,0.17 0.01,0.29zm6.29 0.49c0.04,0.12 0.07,0.22 0.08,0.29 0.01,0.07 -0,0.12 -0.04,0.16 -0.04,0.03 -0.1,0.06 -0.2,0.07 -0.09,0.01 -0.22,0.01 -0.39,0.01 -0.17,0 -0.31,-0 -0.4,-0.01 -0.1,-0.01 -0.17,-0.02 -0.22,-0.03 -0.05,-0.02 -0.08,-0.04 -0.1,-0.06 -0.02,-0.03 -0.04,-0.06 -0.05,-0.1l-0.43 -1.31 -2.46 0 -0.41 1.27c-0.01,0.05 -0.03,0.09 -0.05,0.12 -0.02,0.03 -0.06,0.06 -0.1,0.08 -0.05,0.02 -0.12,0.03 -0.21,0.04 -0.09,0.01 -0.21,0.01 -0.35,0.01 -0.15,0 -0.28,-0.01 -0.36,-0.02 -0.09,-0.01 -0.15,-0.03 -0.18,-0.07 -0.03,-0.04 -0.05,-0.09 -0.04,-0.16 0.01,-0.07 0.04,-0.16 0.08,-0.28l2.01 -5.78c0.02,-0.06 0.04,-0.1 0.07,-0.14 0.03,-0.04 0.07,-0.06 0.13,-0.08 0.06,-0.02 0.14,-0.03 0.25,-0.04 0.1,-0.01 0.24,-0.01 0.41,-0.01 0.2,0 0.36,0 0.47,0.01 0.12,0.01 0.21,0.02 0.27,0.04 0.07,0.02 0.11,0.05 0.14,0.08 0.03,0.04 0.05,0.09 0.07,0.15l2.01 5.78zm-2.99 -4.78l-0.01 0 -0.91 2.77 1.83 0 -0.92 -2.77zm8.61 3.32c0,0.23 -0.03,0.44 -0.1,0.63 -0.06,0.19 -0.15,0.35 -0.26,0.5 -0.11,0.14 -0.25,0.27 -0.4,0.37 -0.16,0.1 -0.33,0.19 -0.52,0.26 -0.19,0.07 -0.39,0.12 -0.6,0.15 -0.21,0.03 -0.45,0.05 -0.71,0.05l-1.73 0c-0.11,0 -0.2,-0.03 -0.28,-0.1 -0.08,-0.07 -0.11,-0.17 -0.11,-0.32l0 -5.68c0,-0.15 0.04,-0.25 0.11,-0.32 0.08,-0.07 0.17,-0.1 0.28,-0.1l1.63 0c0.4,0 0.74,0.03 1.01,0.1 0.28,0.07 0.51,0.17 0.7,0.3 0.19,0.14 0.34,0.31 0.43,0.52 0.1,0.21 0.15,0.45 0.15,0.73 0,0.16 -0.02,0.31 -0.06,0.45 -0.04,0.14 -0.1,0.27 -0.18,0.38 -0.08,0.12 -0.17,0.21 -0.28,0.3 -0.11,0.09 -0.24,0.16 -0.38,0.21 0.18,0.03 0.36,0.09 0.51,0.18 0.16,0.08 0.29,0.19 0.41,0.32 0.12,0.13 0.21,0.29 0.28,0.47 0.07,0.18 0.1,0.38 0.1,0.6zm-1.71 -2.75c0,-0.13 -0.02,-0.25 -0.06,-0.35 -0.04,-0.1 -0.1,-0.19 -0.18,-0.26 -0.08,-0.07 -0.18,-0.12 -0.3,-0.16 -0.12,-0.04 -0.29,-0.06 -0.49,-0.06l-0.67 0 0 1.69 0.74 0c0.19,0 0.34,-0.02 0.46,-0.07 0.11,-0.04 0.21,-0.11 0.28,-0.19 0.08,-0.08 0.13,-0.17 0.17,-0.28 0.04,-0.11 0.06,-0.22 0.06,-0.34zm0.34 2.79c0,-0.15 -0.03,-0.29 -0.08,-0.41 -0.05,-0.12 -0.12,-0.22 -0.22,-0.3 -0.1,-0.08 -0.22,-0.14 -0.37,-0.19 -0.15,-0.04 -0.35,-0.07 -0.59,-0.07l-0.78 0 0 1.86 0.96 0c0.18,0 0.34,-0.02 0.47,-0.06 0.13,-0.04 0.23,-0.1 0.33,-0.17 0.09,-0.08 0.16,-0.17 0.22,-0.28 0.05,-0.11 0.08,-0.24 0.08,-0.39zm8.45 3.44c0,0.03 -0.01,0.06 -0.03,0.08 -0.02,0.02 -0.05,0.04 -0.09,0.06 -0.04,0.02 -0.1,0.03 -0.18,0.04 -0.07,0.01 -0.17,0.01 -0.29,0.01 -0.11,0 -0.21,-0 -0.28,-0.01 -0.07,-0.01 -0.13,-0.02 -0.18,-0.04 -0.05,-0.02 -0.08,-0.03 -0.1,-0.06 -0.02,-0.02 -0.03,-0.05 -0.03,-0.09l0 -1.53 -4.34 0 0 1.53c0,0.03 -0.01,0.06 -0.03,0.09 -0.02,0.02 -0.05,0.04 -0.1,0.06 -0.04,0.02 -0.1,0.03 -0.18,0.04 -0.07,0.01 -0.17,0.01 -0.28,0.01 -0.12,0 -0.21,-0 -0.28,-0.01 -0.07,-0.01 -0.13,-0.02 -0.18,-0.04 -0.04,-0.02 -0.08,-0.03 -0.09,-0.06 -0.02,-0.02 -0.03,-0.05 -0.03,-0.08l0 -2.34c-0.01,-0.1 0.01,-0.17 0.05,-0.21 0.04,-0.04 0.1,-0.06 0.19,-0.06l0.3 0c0.08,-0.11 0.16,-0.23 0.23,-0.35 0.07,-0.12 0.14,-0.26 0.21,-0.43 0.07,-0.17 0.13,-0.36 0.2,-0.59 0.07,-0.23 0.13,-0.51 0.19,-0.84 0.07,-0.33 0.13,-0.73 0.19,-1.18 0.07,-0.45 0.13,-0.99 0.2,-1.6 0.02,-0.15 0.06,-0.26 0.12,-0.33 0.06,-0.07 0.15,-0.1 0.26,-0.1l3.33 0c0.12,0 0.21,0.03 0.28,0.1 0.07,0.07 0.1,0.17 0.1,0.31l0 5.01 0.55 0c0.09,0 0.15,0.02 0.19,0.07 0.04,0.05 0.06,0.12 0.06,0.2l0 2.34zm-2.12 -6.97l-1.52 0c-0.06,0.51 -0.12,0.96 -0.18,1.34 -0.06,0.39 -0.12,0.73 -0.18,1.02 -0.06,0.29 -0.12,0.54 -0.18,0.75 -0.06,0.21 -0.12,0.39 -0.19,0.55 -0.06,0.15 -0.13,0.29 -0.19,0.4 -0.07,0.11 -0.14,0.21 -0.21,0.3l2.64 0 0 -4.36zm8.69 2.11c0,0.54 -0.07,1.02 -0.2,1.45 -0.13,0.43 -0.33,0.79 -0.6,1.08 -0.26,0.3 -0.59,0.52 -0.98,0.68 -0.39,0.16 -0.84,0.23 -1.36,0.23 -0.51,0 -0.95,-0.07 -1.32,-0.2 -0.38,-0.13 -0.69,-0.33 -0.94,-0.61 -0.25,-0.27 -0.44,-0.62 -0.57,-1.04 -0.13,-0.42 -0.19,-0.92 -0.19,-1.49 0,-0.53 0.07,-1 0.2,-1.42 0.13,-0.42 0.33,-0.78 0.6,-1.07 0.26,-0.3 0.59,-0.52 0.98,-0.68 0.39,-0.16 0.85,-0.24 1.36,-0.24 0.49,0 0.93,0.07 1.31,0.2 0.38,0.13 0.69,0.33 0.94,0.61 0.25,0.27 0.45,0.61 0.57,1.03 0.13,0.42 0.19,0.9 0.19,1.47zm-1.39 0.07c0,-0.34 -0.03,-0.65 -0.08,-0.93 -0.05,-0.28 -0.14,-0.52 -0.27,-0.72 -0.13,-0.2 -0.3,-0.35 -0.52,-0.46 -0.21,-0.11 -0.48,-0.16 -0.8,-0.16 -0.32,0 -0.6,0.06 -0.81,0.18 -0.22,0.12 -0.4,0.29 -0.53,0.49 -0.13,0.2 -0.23,0.44 -0.28,0.72 -0.06,0.27 -0.08,0.56 -0.08,0.87 0,0.36 0.03,0.68 0.08,0.96 0.05,0.28 0.14,0.53 0.27,0.73 0.13,0.2 0.3,0.35 0.51,0.46 0.21,0.1 0.48,0.16 0.81,0.16 0.32,0 0.6,-0.06 0.81,-0.18 0.22,-0.12 0.4,-0.29 0.53,-0.49 0.13,-0.21 0.23,-0.45 0.28,-0.73 0.06,-0.28 0.08,-0.57 0.08,-0.88z"/>
   </g>
  </g>
 </g>
</svg>
