<?xml version="1.0" encoding="UTF-8"?>
<!DOCTYPE svg PUBLIC "-//W3C//DTD SVG 1.1//EN" "http://www.w3.org/Graphics/SVG/1.1/DTD/svg11.dtd">
<!-- Creator: CorelDRAW -->
<svg xmlns="http://www.w3.org/2000/svg" xml:space="preserve" width="30.1539mm" height="11.3822mm" version="1.1" style="shape-rendering:geometricPrecision; text-rendering:geometricPrecision; image-rendering:optimizeQuality; fill-rule:evenodd; clip-rule:evenodd"
viewBox="0 0 117.35 44.29"
 xmlns:xlink="http://www.w3.org/1999/xlink"
 xmlns:xodm="http://www.corel.com/coreldraw/odm/2003">
 <defs>
  <style type="text/css">
   <![CDATA[
    .fil0 {fill:#FFF212}
    .fil1 {fill:white}
   ]]>
  </style>
 </defs>
 <g id="Слой_x0020_1">
  <metadata id="CorelCorpID_0Corel-Layer"/>
  <polygon class="fil0" points="30.78,27.26 30.77,22.45 25.42,22.43 15.36,12.5 -0,28.67 -0,0.2 44.19,0.2 44.19,44.29 31.02,44.29 31.02,31.23 35.39,31.23 "/>
  <polygon class="fil1" points="61.92,20.77 56.52,20.8 55.45,12.64 54.35,20.78 49.21,20.78 51.37,8.94 49.24,0.04 54.34,0.04 55.43,4.77 56.57,0.04 61.77,0.04 59.83,8.92 "/>
  <polygon class="fil1" points="74.96,18.16 71.97,20.89 66.97,20.89 63.87,18.2 63.87,2.54 68.8,3.83 68.8,16.62 69.03,16.91 69.78,16.92 70.01,16.62 70.01,3.83 69.78,3.58 69.04,3.57 68.8,3.83 63.87,2.54 66.65,0.05 72.09,0.05 74.9,2.57 "/>
  <polygon class="fil1" points="77.7,20.78 77.7,0.04 82.62,0.04 82.62,7.55 83.9,7.55 83.9,0.04 88.78,0.04 88.78,20.78 83.9,20.78 83.9,12.08 82.62,12.08 82.62,20.78 "/>
  <polygon class="fil1" points="-0,44.29 -0,28.67 15.36,12.5 15.36,44.29 "/>
  <polygon class="fil1" points="106.09,44.29 106.09,23.71 111.02,23.71 111.02,31.18 112.29,31.18 112.29,23.71 117.17,23.71 117.17,44.29 112.29,44.29 112.29,35.71 111.02,35.71 111.02,44.29 "/>
  <polygon class="fil1" points="96.75,20.78 92.21,20.78 92.21,13.63 96.75,13.63 98.13,13.63 98.13,3.57 96.75,3.57 96.75,13.63 92.21,13.63 92.21,2.64 95.04,0 103.11,0 103.11,20.78 98.13,20.78 98.13,17.5 96.75,17.5 "/>
  <polygon class="fil1" points="112.51,20.78 117.35,20.78 117.35,0 112.02,0 110.07,7.36 110.07,0 105.43,0 105.43,20.78 110.62,20.78 112.51,14.14 "/>
  <polygon class="fil1" points="83.5,44.29 88.39,44.29 88.39,23.71 83.5,23.71 81.84,29.69 80.29,23.71 75.13,23.71 75.13,44.29 80.29,44.29 80.29,36.32 81.84,42.14 83.5,36.31 "/>
  <polygon class="fil1" points="97.76,44.29 102.64,44.29 102.64,23.71 94.77,23.71 91.82,26.44 91.82,37.62 96.34,37.62 96.34,27.58 97.76,27.58 97.76,37.62 96.34,37.62 91.82,37.62 91.82,44.29 96.34,44.29 96.34,41.16 97.76,41.16 "/>
 </g>
</svg>
