<?xml version="1.0" encoding="UTF-8"?>
<!DOCTYPE svg PUBLIC "-//W3C//DTD SVG 1.1//EN" "http://www.w3.org/Graphics/SVG/1.1/DTD/svg11.dtd">
<!-- Creator: CorelDRAW -->
<svg xmlns="http://www.w3.org/2000/svg" xml:space="preserve" width="32.3246mm" height="14.6892mm" version="1.1" style="shape-rendering:geometricPrecision; text-rendering:geometricPrecision; image-rendering:optimizeQuality; fill-rule:evenodd; clip-rule:evenodd"
viewBox="0 0 134.76 61.24"
 xmlns:xlink="http://www.w3.org/1999/xlink"
 xmlns:xodm="http://www.corel.com/coreldraw/odm/2003">
 <defs>
  <style type="text/css">
   <![CDATA[
    .fil0 {fill:white;fill-rule:nonzero}
   ]]>
  </style>
 </defs>
 <g id="Слой_x0020_1">
  <metadata id="CorelCorpID_0Corel-Layer"/>
  <path id="jysk___.cdr" class="fil0" d="M-0 1.96c4.64,-2.16 10.34,-2.83 15.03,-0.45 2.06,0.86 3.27,2.95 5.36,3.74 4.1,1.81 7.6,4.71 10.66,7.93 0.83,0.68 0.53,2 -0.46,2.33 -2.96,1.03 -6.14,1.32 -9.26,1.43 -1.24,1.79 -2.68,3.58 -4.56,4.72 -0.96,0.58 -1.98,0.96 -3.08,1.17 -1.82,0.35 -3.73,0.3 -5.46,0.99 -1.49,0.57 -1.57,2.44 -1.15,3.74 1.12,3.69 4.19,6.23 6.19,9.41 4.79,7.02 6.74,15.9 5.11,24.26 -1.23,0.01 -2.45,0.01 -3.67,0.02 1.73,-7.22 -0.21,-14.91 -4.14,-21.08 -2.64,-3.95 -5.89,-7.61 -7.49,-12.15 -0.85,-2.33 -0.59,-5.28 1.43,-6.93 2.38,-2.03 5.76,-1.23 8.57,-2.15 2.64,-0.57 4.37,-3.28 4.44,-5.88 0.03,-2.28 -0.43,-4.73 -1.99,-6.49 -4.11,-4.09 -11.11,-3.45 -15.53,-0.16 0.03,-1.48 0.03,-2.96 0,-4.45zm21.1 7.76c-0.2,1.22 -0.01,2.44 0.27,3.63 1.81,0.07 4.02,1.1 5.55,-0.26 -1.93,-1.13 -3.82,-2.35 -5.81,-3.37zm-11.44 -2.13c1.94,-0.95 4.63,1.74 3.53,3.64 -1.88,2.17 -5.88,-1.92 -3.53,-3.64zm77.76 5.99c4.49,-1.06 9.32,-0.27 13.29,2.06 -0.94,2.55 -1.95,5.07 -2.9,7.62 -2.05,-1.29 -4.41,-2.48 -6.91,-2.18 -0.3,0.03 -0.54,0.15 -0.78,0.28 -1.34,0.73 -0.28,2.13 0.72,2.54 0.75,0.31 1.62,0.33 2.39,0.53 2.43,0.52 4.95,1.37 6.63,3.3 2.09,2.4 2.23,5.97 1.22,8.86 -1.46,3.95 -5.56,6.28 -9.57,6.82 -4.81,0.59 -9.78,-0.37 -14.1,-2.54 1.23,-2.74 2.24,-5.57 3.38,-8.34 2.15,1.79 4.8,3.37 7.7,3.15 1.1,-0.06 2.34,-0.76 2.38,-1.98 -0.59,-1.33 -2.18,-1.3 -3.39,-1.56 -2.65,-0.41 -5.48,-1.19 -7.3,-3.31 -2.03,-2.29 -2.07,-5.72 -1.04,-8.47 1.33,-3.53 4.71,-5.89 8.27,-6.79zm-50.72 0.01c3.53,-0.04 7.05,-0.01 10.58,-0.02 -0.02,6.69 0.03,13.38 -0.02,20.07 0.02,3.76 -2.1,7.55 -5.61,9.07 -4.44,1.96 -9.66,0.52 -13.39,-2.3 1.3,-3 2.46,-6.06 3.68,-9.1 0.64,1.18 1.14,2.95 2.74,3.04 1.49,0.2 2.03,-1.54 2.03,-2.71 0.05,-6.02 0.04,-12.04 -0.01,-18.06zm12.12 -0.1c4.07,0.18 8.15,0.04 12.23,0.1 1.21,2.61 2.07,5.38 3.49,7.89 0.88,-2.72 2.02,-5.35 3.22,-7.94 4.03,0.05 8.07,0.11 12.1,-0.05 -3.3,5.71 -6.91,11.24 -10.09,17.01 -0.13,4.24 -0.01,8.49 -0.05,12.73 -3.51,0 -7.02,0 -10.54,0 -0.07,-4.29 0.13,-8.59 -0.09,-12.86 -3.34,-5.67 -6.88,-11.23 -10.27,-16.87zm56.07 0.08c3.48,0.01 6.95,0.02 10.43,-0.01 -0.07,4.33 -0.16,8.67 -0.22,13 2.06,-4.48 4.54,-8.75 6.96,-13.04 3.88,0.12 7.77,0.03 11.66,0.05 -3.09,4.81 -6.18,9.63 -9.27,14.45 3.48,5.04 6.87,10.14 10.3,15.22 -4.17,-0.05 -8.33,0 -12.49,-0.03 -2.37,-4.21 -4.9,-8.34 -7.11,-12.63 -0.01,4.22 0.13,8.43 0.2,12.64 -3.49,-0.01 -6.97,0 -10.46,-0.01 0,-9.88 0,-19.77 0,-29.65z"/>
 </g>
</svg>
