<?xml version="1.0" encoding="UTF-8"?>
<!DOCTYPE svg PUBLIC "-//W3C//DTD SVG 1.1//EN" "http://www.w3.org/Graphics/SVG/1.1/DTD/svg11.dtd">
<!-- Creator: CorelDRAW -->
<svg xmlns="http://www.w3.org/2000/svg" xml:space="preserve" width="37.0701mm" height="9.3051mm" version="1.1" style="shape-rendering:geometricPrecision; text-rendering:geometricPrecision; image-rendering:optimizeQuality; fill-rule:evenodd; clip-rule:evenodd"
viewBox="0 0 174.3 43.75"
 xmlns:xlink="http://www.w3.org/1999/xlink"
 xmlns:xodm="http://www.corel.com/coreldraw/odm/2003">
 <defs>
  <style type="text/css">
   <![CDATA[
    .fil0 {fill:white}
   ]]>
  </style>
 </defs>
 <g id="Слой_x0020_1">
  <metadata id="CorelCorpID_0Corel-Layer"/>
  <path class="fil0" d="M-0 5.83l18.06 9.55 0 28.37 -18.06 -9.55 0 -28.37zm4.21 -5.83l13.84 7.32 0 6.58 -13.84 -7.32 0 -6.58zm29.08 0l-13.85 7.32 0 6.58 13.85 -7.32 0 -6.58zm4.21 5.83l-18.06 9.55 0 28.37 18.06 -9.55 0 -28.37zm21.03 -1.2l-3.84 11.67 -3.75 -11.67 -5.16 0 5.2 15.38 -5.56 16.28 4.66 0 4.12 -12.53 4.07 12.53 5.25 0 -5.56 -16.28 5.2 -15.38 -4.61 0zm25.29 17.14l2.04 -7.78 0 22.3 4.48 0 0 -31.66 -5.47 0 -4.07 13.07 -1.81 6.96 0 -20.04 -4.43 0 0 31.66 5.11 0 4.16 -14.52zm25.92 -17.14l-7.33 0 0 31.66 4.98 0 0 -11.89 2.35 0c4.98,0 7.42,-2.76 7.42,-7.82l0 -4.12c0,-5.07 -2.44,-7.82 -7.42,-7.82zm0 4.52c1.58,0 2.44,0.72 2.44,2.98l0 4.75c0,2.26 -0.86,2.98 -2.44,2.98l-2.35 0 0 -10.72 2.35 0zm29.31 -4.52l-7.28 0 -5.07 31.66 4.57 0 0.86 -5.74 6.11 0 0.86 5.74 5.02 0 -5.07 -31.66zm-3.89 5.61l2.4 16.01 -4.79 0 2.4 -16.01zm39.13 30.3l0 -8.68 -2.17 0 0 -27.23 -13.93 0 -1.13 23.11c-0.09,1.85 -0.36,3.03 -1.22,4.11l-1.94 0 0 8.68 4.84 0 0 -4.25 10.63 0 0 4.25 4.93 0zm-11.44 -31.39l4.21 0 0 22.7 -6.51 0c0.81,-0.77 1.27,-1.81 1.4,-4.21l0.9 -18.5z"/>
 </g>
</svg>
