<?xml version="1.0" encoding="UTF-8"?>
<!DOCTYPE svg PUBLIC "-//W3C//DTD SVG 1.1//EN" "http://www.w3.org/Graphics/SVG/1.1/DTD/svg11.dtd">
<!-- Creator: CorelDRAW -->
<svg xmlns="http://www.w3.org/2000/svg" xml:space="preserve" width="28.9804mm" height="21.0557mm" version="1.1" style="shape-rendering:geometricPrecision; text-rendering:geometricPrecision; image-rendering:optimizeQuality; fill-rule:evenodd; clip-rule:evenodd"
viewBox="0 0 120.07 87.24"
 xmlns:xlink="http://www.w3.org/1999/xlink"
 xmlns:xodm="http://www.corel.com/coreldraw/odm/2003">
 <defs>
  <style type="text/css">
   <![CDATA[
    .fil0 {fill:white;fill-rule:nonzero}
   ]]>
  </style>
 </defs>
 <g id="Слой_x0020_1">
  <metadata id="CorelCorpID_0Corel-Layer"/>
  <g id="_1c_.cdr">
   <path class="fil0" d="M62.3 50.77c-2.32,-0.15 -5,-0.56 -7.11,-1.17 -0.39,-0.11 -2.03,-0.72 -2.45,-0.91 -7.35,-3.4 -12.47,-10.83 -12.47,-19.45 0,-11.82 9.62,-21.45 21.45,-21.45 11.73,0 21.28,9.46 21.44,21.15l7.75 0c-0.16,-15.96 -13.19,-28.89 -29.19,-28.89 -16.09,0 -29.19,13.09 -29.19,29.19 0,11.1 6.24,20.75 15.38,25.68 1.65,0.87 4.02,1.77 4.82,2.02 2.61,0.77 5.8,1.29 8.65,1.51 0.97,0.07 4.34,0.11 5.32,0.12l53.36 0 0 -7.72 -53.27 0c-0.71,0 -3.8,-0.03 -4.5,-0.07zm4.5 -12.12c-0.56,0 -3.51,-0.02 -4.05,-0.07 -0.92,-0.08 -2.26,-0.22 -3.12,-0.41 -0.97,-0.26 -1.88,-0.6 -2.29,-0.83 -2.88,-1.56 -4.84,-4.6 -4.84,-8.11 0,-5.1 4.13,-9.24 9.23,-9.24 5,0 9.06,3.97 9.22,8.94l7.44 0c-0.16,-9.07 -7.55,-16.38 -16.67,-16.38 -9.22,0 -16.68,7.47 -16.68,16.68 0,6.5 3.72,12.11 9.15,14.86 0.83,0.49 2.4,1 2.85,1.12 1.53,0.4 3.59,0.68 5.26,0.8 0.62,0.05 3.64,0.07 4.28,0.08l0 0.01 53.49 0 0 -7.45 -53.27 0zm-39.04 19.88l-7.8 0 0 -50.73 -11.4 0 0 -7.8 19.2 0 0 58.53zm-27.76 -46.83l0 7.5 8.56 0 0 39.33 7.49 0 0 -46.83 -16.06 0zm0 0z"/>
   <path class="fil0" d="M106.29 0.55c-2.81,0 -5.14,2.24 -5.14,5.05 0,2.81 2.33,5.14 5.14,5.14 2.9,0 5.14,-2.33 5.14,-5.14 0,-2.81 -2.24,-5.05 -5.14,-5.05zm0 9.36c-2.32,0 -4.32,-1.82 -4.32,-4.31 0,-2.36 2,-4.23 4.32,-4.23 2.32,0 4.31,1.87 4.31,4.23 0,2.49 -1.99,4.31 -4.31,4.31z"/>
   <path class="fil0" d="M108.25 6.98c0,-0.57 -0.08,-1.09 -0.73,-1.3 0.81,-0.28 0.89,-0.82 0.89,-1.14 0,-1.31 -1.18,-1.47 -1.67,-1.47l-2.24 0 0 5.05 0.93 0 0 -2.07 0.74 0c1.06,0 1.15,0.49 1.15,0.93 0,0.86 0,1.02 0.2,1.14l0.94 0c-0.2,-0.2 -0.12,-0.36 -0.2,-1.14zm-1.72 -1.67l-1.1 0 0 -1.59 0.94 0c0.65,0 1.1,0.21 1.1,0.82 0,0.32 -0.16,0.77 -0.94,0.77z"/>
  </g>
  <path class="fil0" d="M12.5 71.77l-2.44 0 0 -5.54 -1.62 0.66 0 -2.36 1.91 -0.91 2.15 0 0 8.14zm5.63 0.16c-1.33,0 -2.45,-0.39 -3.34,-1.17 -0.88,-0.79 -1.33,-1.81 -1.33,-3.06 0,-1.25 0.44,-2.26 1.31,-3.05 0.87,-0.79 1.98,-1.19 3.33,-1.19 0.81,0 1.49,0.14 2.06,0.43l0 2.36c-0.66,-0.36 -1.32,-0.54 -1.99,-0.54 -0.62,0 -1.13,0.19 -1.54,0.57 -0.4,0.37 -0.6,0.84 -0.6,1.41 0,0.58 0.21,1.06 0.63,1.43 0.43,0.36 0.96,0.55 1.61,0.55 0.79,0 1.46,-0.19 2.01,-0.58l0 2.4c-0.57,0.29 -1.28,0.44 -2.15,0.44zm4.29 -6.32c0.39,0 0.72,0.14 1,0.42 0.28,0.27 0.42,0.6 0.42,1 0,0.4 -0.14,0.73 -0.42,1.01 -0.28,0.28 -0.61,0.42 -1,0.42 -0.39,0 -0.73,-0.14 -1.01,-0.42 -0.28,-0.28 -0.42,-0.62 -0.42,-1.01 0,-0.4 0.14,-0.73 0.42,-1 0.28,-0.28 0.62,-0.42 1.01,-0.42zm0 3.47c0.39,0 0.72,0.14 1,0.42 0.28,0.26 0.42,0.6 0.42,1 0,0.4 -0.14,0.73 -0.42,1.01 -0.28,0.28 -0.61,0.42 -1,0.42 -0.39,0 -0.73,-0.14 -1.01,-0.42 -0.28,-0.28 -0.42,-0.62 -0.42,-1.01 0,-0.4 0.14,-0.73 0.42,-1 0.28,-0.28 0.62,-0.42 1.01,-0.42zm11.27 3.07l-2.5 0 0 -0.92c-1.18,-0.07 -2.11,-0.45 -2.8,-1.15 -0.68,-0.71 -1.02,-1.54 -1.02,-2.5 0,-0.97 0.34,-1.8 1.02,-2.49 0.69,-0.7 1.62,-1.08 2.8,-1.15l0 -0.71 2.5 0 0 0.71c1.19,0.07 2.13,0.45 2.8,1.15 0.67,0.7 1.01,1.53 1.01,2.49 0,0.96 -0.34,1.8 -1.01,2.5 -0.67,0.7 -1.61,1.08 -2.8,1.15l0 0.92zm0 -6.1l0 3.06c0.36,-0.03 0.66,-0.18 0.9,-0.45 0.24,-0.27 0.37,-0.63 0.37,-1.09 0,-0.47 -0.12,-0.83 -0.37,-1.09 -0.24,-0.26 -0.54,-0.41 -0.9,-0.43zm-2.5 3.06l0 -3.06c-0.36,0.02 -0.66,0.17 -0.9,0.43 -0.24,0.26 -0.37,0.63 -0.37,1.09 0,0.46 0.12,0.82 0.37,1.09 0.24,0.27 0.54,0.42 0.9,0.45zm7.33 -5.49l3.75 0c0.94,0 1.68,0.25 2.23,0.74 0.57,0.5 0.85,1.13 0.85,1.91 0,0.78 -0.28,1.41 -0.85,1.91 -0.55,0.5 -1.3,0.74 -2.23,0.74l-1.24 0 0 2.84 -2.5 0 0 -8.14zm2.5 3.49l0.91 0c0.26,0 0.46,-0.07 0.62,-0.2 0.16,-0.14 0.24,-0.31 0.24,-0.53 0,-0.22 -0.08,-0.39 -0.24,-0.52 -0.16,-0.13 -0.37,-0.2 -0.62,-0.2l-0.91 0 0 1.45zm6.1 4.65l-2.58 0 3.35 -8.19 2.38 0 3.36 8.19 -2.69 0 -0.58 -1.52 -2.65 0 -0.59 1.52zm1.92 -5.33l-0.6 1.93 1.2 0 -0.59 -1.93zm7.71 5.33l-2.5 0 0 -8.14 2.5 0 0 2.76 2.49 0 0 -2.76 2.5 0 0 8.14 -2.5 0 0 -3.21 -2.49 0 0 3.21zm12.97 0l-2.49 0 0 -2.8c-0.36,0.16 -0.82,0.24 -1.37,0.24 -0.95,0 -1.71,-0.25 -2.26,-0.75 -0.55,-0.5 -0.83,-1.18 -0.83,-2.04l0 -2.79 2.49 0 0 2.47c0,0.29 0.1,0.52 0.29,0.67 0.19,0.15 0.43,0.23 0.73,0.23 0.42,0 0.74,-0.07 0.95,-0.22l0 -3.15 2.49 0 0 8.14zm3.21 0l-2.58 0 3.35 -8.19 2.38 0 3.36 8.19 -2.69 0 -0.58 -1.52 -2.65 0 -0.59 1.52zm1.92 -5.33l-0.6 1.93 1.2 0 -0.59 -1.93zm7.34 5.33l-2.13 0 0 -8.14 2.42 0 0 4.05 3.14 -4.05 2.06 0 0 8.14 -2.4 0 0 -4.01 -3.09 4.01zm3.3 -9.1c-0.43,0.37 -0.97,0.56 -1.61,0.56 -0.64,0 -1.17,-0.19 -1.61,-0.56 -0.43,-0.39 -0.66,-0.9 -0.66,-1.55l1.58 0c0.01,0.42 0.23,0.63 0.67,0.63 0.43,0 0.65,-0.21 0.66,-0.63l1.61 0c-0.02,0.65 -0.23,1.17 -0.65,1.55zm6.21 9.26c-1.28,0 -2.33,-0.26 -3.14,-0.77l0 -2.34c0.36,0.28 0.79,0.5 1.3,0.65 0.51,0.15 1.01,0.23 1.51,0.23 0.93,0 1.4,-0.23 1.4,-0.69 0,-0.34 -0.34,-0.51 -1.02,-0.51l-1.21 0 0 -1.9 1.34 0c0.53,0 0.79,-0.15 0.79,-0.45 0,-0.35 -0.39,-0.52 -1.17,-0.52 -0.97,0 -1.85,0.2 -2.65,0.6l0 -2.13c0.85,-0.43 1.82,-0.65 2.91,-0.65 1.05,0 1.88,0.23 2.49,0.69 0.61,0.45 0.92,1.02 0.92,1.7 0,0.78 -0.33,1.33 -0.98,1.63 0.35,0.16 0.63,0.4 0.85,0.72 0.22,0.32 0.33,0.69 0.33,1.11 0,0.75 -0.33,1.38 -0.99,1.87 -0.66,0.5 -1.54,0.76 -2.65,0.76zm6.64 -0.16l-2.13 0 0 -8.14 2.42 0 0 4.05 3.14 -4.05 2.06 0 0 8.14 -2.4 0 0 -4.01 -3.09 4.01zm9.23 0l-2.5 0 0 -8.14 2.5 0 0 2.76 2.49 0 0 -2.76 2.5 0 0 8.14 -2.5 0 0 -3.21 -2.49 0 0 3.21zm8.72 0l-2.5 0 0 -8.14 6.27 0 0 2.15 -3.77 0 0 5.99z"/>
  <path class="fil0" d="M8.44 78.44l0 -2.53 8.4 0 0 2.53 -2.75 0 0 7.04 -2.94 0 0 -7.04 -2.72 0zm10.39 7.04l-3.03 0 3.94 -9.62 2.8 0 3.95 9.62 -3.16 0 -0.68 -1.79 -3.12 0 -0.7 1.79zm2.25 -6.26l-0.71 2.27 1.41 0 -0.7 -2.27zm8.12 8.02l-2.75 0 0 -4.29 0.97 0c0.62,-1.11 0.93,-2.84 0.93,-5.18l0 -1.86 7.45 0 0 7.04 1.2 0 0 4.29 -2.76 0 0 -1.76 -5.04 0 0 1.76zm1.18 -4.29l2.5 0 0 -4.51 -1.76 0c0,0.71 -0.06,1.53 -0.19,2.45 -0.13,0.88 -0.31,1.57 -0.55,2.06zm10.36 2.53l-3.59 0 3.51 -4.88 -3.06 -4.69 3.4 0 2.28 3.83 0 -3.83 2.86 0 0 3.83 2.3 -3.83 3.38 0 -3.07 4.69 3.51 4.88 -3.58 0 -2.53 -3.79 0 3.79 -2.86 0 0 -3.79 -2.54 3.79zm14.59 0l-2.5 0 0 -9.57 2.84 0 0 4.76 3.69 -4.76 2.42 0 0 9.57 -2.81 0 0 -4.71 -3.63 4.71zm10.84 0l-2.94 0 0 -9.57 2.94 0 0 3.57 2.69 -3.57 3.46 0 -3.39 4.44 4.07 5.12 -3.61 0 -3.23 -4.13 0 4.13zm9.87 0l-2.5 0 0 -9.57 2.84 0 0 4.76 3.69 -4.76 2.42 0 0 9.57 -2.81 0 0 -4.71 -3.63 4.71zm13.1 0.19c-1.57,0 -2.87,-0.46 -3.92,-1.38 -1.04,-0.93 -1.56,-2.13 -1.56,-3.59 0,-1.47 0.51,-2.66 1.54,-3.58 1.02,-0.93 2.32,-1.39 3.91,-1.39 0.95,0 1.75,0.17 2.42,0.51l0 2.77c-0.77,-0.42 -1.55,-0.63 -2.34,-0.63 -0.73,0 -1.33,0.22 -1.8,0.67 -0.47,0.44 -0.71,0.99 -0.71,1.65 0,0.68 0.25,1.24 0.74,1.68 0.5,0.43 1.13,0.64 1.89,0.64 0.93,0 1.72,-0.23 2.36,-0.68l0 2.81c-0.66,0.35 -1.51,0.52 -2.53,0.52zm3.38 -7.23l0 -2.53 8.4 0 0 2.53 -2.75 0 0 7.04 -2.94 0 0 -7.04 -2.72 0zm10.38 7.04l-3.03 0 3.94 -9.62 2.8 0 3.95 9.62 -3.16 0 -0.68 -1.79 -3.12 0 -0.7 1.79zm2.25 -6.26l-0.71 2.27 1.41 0 -0.7 -2.27zm9.06 6.26l-2.94 0 0 -9.57 2.94 0 0 3.24 2.92 0 0 -3.24 2.94 0 0 9.57 -2.94 0 0 -3.77 -2.92 0 0 3.77z"/>
 </g>
</svg>
