<?xml version="1.0" encoding="UTF-8"?>
<!DOCTYPE svg PUBLIC "-//W3C//DTD SVG 1.1//EN" "http://www.w3.org/Graphics/SVG/1.1/DTD/svg11.dtd">
<!-- Creator: CorelDRAW -->
<svg xmlns="http://www.w3.org/2000/svg" xml:space="preserve" width="28.1011mm" height="11.293mm" version="1.1" style="shape-rendering:geometricPrecision; text-rendering:geometricPrecision; image-rendering:optimizeQuality; fill-rule:evenodd; clip-rule:evenodd"
viewBox="0 0 110.24 44.3"
 xmlns:xlink="http://www.w3.org/1999/xlink"
 xmlns:xodm="http://www.corel.com/coreldraw/odm/2003">
 <defs>
  <style type="text/css">
   <![CDATA[
    .fil1 {fill:white}
    .fil0 {fill:white;fill-rule:nonzero}
   ]]>
  </style>
 </defs>
 <g id="Слой_x0020_1">
  <metadata id="CorelCorpID_0Corel-Layer"/>
  <g id="_1747750675840">
   <path class="fil0" d="M10 36.59c0.04,-0.11 0.14,-0.32 0.24,-0.32 0.06,0 0.17,0.03 0.17,0.29l-0.06 7.63 1.85 0 0 -8.62c0,-0.9 -0.67,-1.29 -1.58,-1.29 -0.7,0 -1.3,0.15 -1.72,1.26l-2.53 6.53c-0.08,0.21 -0.18,0.36 -0.27,0.36 -0.08,0 -0.18,-0.15 -0.27,-0.36l-2.53 -6.53c-0.27,-0.69 -0.59,-1.26 -1.72,-1.26 -0.28,0 -1.58,0.01 -1.58,1.29l0 8.62 1.85 0 -0.04 -7.63c0,-0.04 0,-0.29 0.15,-0.29 0.08,0 0.2,0.21 0.24,0.32l2.5 6.53c0.24,0.62 0.46,1.18 1.4,1.18 0.87,0 1.12,-0.43 1.4,-1.18l2.5 -6.53zm2.62 7.6l1.94 0 0.99 -2.48 4.72 0 1.01 2.48 1.94 0 -3.69 -8.8c-0.35,-0.83 -0.77,-1.11 -1.61,-1.11 -0.88,0 -1.26,0.28 -1.61,1.11l-3.69 8.8zm5.02 -7.78c0.06,-0.14 0.15,-0.41 0.28,-0.41 0.13,0 0.22,0.27 0.28,0.41l1.6 3.99 -3.76 0 1.61 -3.99zm11.47 7.78c1.54,0 2.35,-0.69 2.74,-1.2 0.8,-1.06 0.87,-2.74 0.87,-3.81 0,-1.17 -0.04,-2.57 -0.99,-3.62 -0.59,-0.64 -1.51,-1.16 -2.87,-1.16l-3.83 0c-0.59,0 -0.91,0.27 -1.05,0.42 -0.32,0.36 -0.34,0.78 -0.34,1.15l0 6.98c0,0.55 0.22,0.84 0.41,0.98 0.07,0.06 0.36,0.27 1.09,0.27l3.97 0zm-3.62 -7.74c0,-0.21 0.08,-0.41 0.2,-0.49 0.13,-0.1 0.32,-0.1 0.43,-0.1l1.92 0c0.66,0 1.54,0.13 2.1,0.71 0.62,0.64 0.69,1.62 0.69,2.46 0,1.66 -0.25,2.39 -0.49,2.77 -0.42,0.69 -1.09,0.91 -2.11,0.91l-2.13 0c-0.17,0 -0.35,0 -0.48,-0.14 -0.14,-0.15 -0.13,-0.34 -0.13,-0.53l0 -5.6zm7.09 7.74l1.94 0 0.99 -2.48 4.72 0 1.01 2.48 1.94 0 -3.69 -8.8c-0.35,-0.83 -0.77,-1.11 -1.61,-1.11 -0.88,0 -1.26,0.28 -1.61,1.11l-3.69 8.8zm5.02 -7.78c0.06,-0.14 0.15,-0.41 0.28,-0.41 0.13,0 0.22,0.27 0.28,0.41l1.6 3.99 -3.76 0 1.61 -3.99zm11.47 7.78c1.54,0 2.35,-0.69 2.74,-1.2 0.8,-1.06 0.87,-2.74 0.87,-3.81 0,-1.17 -0.04,-2.57 -0.99,-3.62 -0.59,-0.64 -1.51,-1.16 -2.87,-1.16l-3.83 0c-0.59,0 -0.91,0.27 -1.05,0.42 -0.32,0.36 -0.34,0.78 -0.34,1.15l0 6.98c0,0.55 0.22,0.84 0.41,0.98 0.07,0.06 0.36,0.27 1.09,0.27l3.97 0zm-3.62 -7.74c0,-0.21 0.08,-0.41 0.2,-0.49 0.13,-0.1 0.32,-0.1 0.43,-0.1l1.92 0c0.66,0 1.54,0.13 2.1,0.71 0.62,0.64 0.69,1.62 0.69,2.46 0,1.66 -0.25,2.39 -0.49,2.77 -0.42,0.69 -1.09,0.91 -2.11,0.91l-2.13 0c-0.17,0 -0.35,0 -0.48,-0.14 -0.14,-0.15 -0.13,-0.34 -0.13,-0.53l0 -5.6zm13.74 7.74l0 -3.47 4.59 0c0.57,0 1.13,-0.18 1.5,-0.48 0.77,-0.63 0.85,-1.89 0.85,-2.69 0,-0.83 -0.07,-1.93 -0.74,-2.57 -0.6,-0.59 -1.43,-0.59 -1.95,-0.59l-4.66 0c-0.34,0 -0.78,0.06 -1.11,0.38 -0.34,0.34 -0.34,0.73 -0.34,1.09l0 8.33 1.85 0zm0 -4.94l0 -2.8c0,-0.17 0,-0.34 0.13,-0.46 0.14,-0.14 0.31,-0.13 0.43,-0.13l2.98 0c0.31,0 0.83,0.01 1.15,0.34 0.31,0.32 0.35,0.91 0.35,1.34 0,0.38 -0.03,1.01 -0.32,1.34 -0.32,0.36 -0.8,0.36 -1.2,0.36l-3.51 0zm17.13 -4.86l-1.85 0 0 4.02 -5.09 0 0 -4.02 -1.85 0 0 9.79 1.85 0 0 -4.31 5.09 0 0 4.31 1.85 0 0 -9.79zm0.42 9.79l1.94 0 0.99 -2.48 4.72 0 1.01 2.48 1.94 0 -3.69 -8.8c-0.35,-0.83 -0.77,-1.11 -1.61,-1.11 -0.88,0 -1.26,0.28 -1.61,1.11l-3.69 8.8zm5.02 -7.78c0.06,-0.14 0.15,-0.41 0.28,-0.41 0.13,0 0.22,0.27 0.28,0.41l1.6 3.99 -3.76 0 1.61 -3.99zm6 7.78l1.85 0 0 -7.63c0,-0.2 0,-0.38 0.2,-0.55 0.15,-0.14 0.29,-0.15 0.49,-0.15l2.99 0c0.29,0 0.74,0 1.04,0.29 0.2,0.2 0.35,0.59 0.35,1.36 0,0.34 -0.03,1.04 -0.22,1.34 -0.25,0.39 -0.69,0.43 -1.01,0.43l-1.85 0c-0.53,0 -0.83,0.28 -0.83,0.67l0 0.22c0,0.28 0.27,0.63 0.46,0.83l3.22 3.18 2.32 0 -3.72 -3.46 0 -0.07 1.26 0c1.12,0 1.6,-0.53 1.85,-1.01 0.39,-0.73 0.42,-1.5 0.42,-2.21 0,-0.71 -0.03,-1.48 -0.49,-2.15 -0.57,-0.85 -1.41,-0.9 -2.1,-0.9l-4.65 0c-0.36,0 -0.83,0.06 -1.18,0.39 -0.39,0.38 -0.41,0.87 -0.41,1.27l0 8.13zm20.27 -7.6c0.04,-0.11 0.14,-0.32 0.24,-0.32 0.06,0 0.17,0.03 0.17,0.29l-0.06 7.63 1.85 0 0 -8.62c0,-0.9 -0.67,-1.29 -1.58,-1.29 -0.7,0 -1.3,0.15 -1.72,1.26l-2.53 6.53c-0.08,0.21 -0.18,0.36 -0.27,0.36 -0.08,0 -0.18,-0.15 -0.27,-0.36l-2.53 -6.53c-0.27,-0.69 -0.59,-1.26 -1.72,-1.26 -0.28,0 -1.58,0.01 -1.58,1.29l0 8.62 1.85 0 -0.04 -7.63c0,-0.04 0,-0.29 0.15,-0.29 0.08,0 0.2,0.21 0.24,0.32l2.5 6.53c0.24,0.62 0.46,1.18 1.4,1.18 0.87,0 1.12,-0.43 1.4,-1.18l2.5 -6.53z"/>
   <path class="fil1" d="M56.42 0c0.3,0 0.59,0.01 0.88,0.03 -5.44,5.94 -10.54,12.63 -15.04,20.67 -0.66,-1.71 -1.03,-3.56 -1.03,-5.51 0,-8.39 6.8,-15.19 15.19,-15.19zm5.14 0.89c1.67,0.6 3.21,1.49 4.56,2.61 -4.59,5.74 -9.09,12.46 -13.64,18.64l-0.1 -0.09c2.78,-11.55 7.13,-15.09 9.19,-21.16zm6.09 4.07c0.22,0.24 0.43,0.49 0.64,0.75 -6.26,10.7 -10.78,19.89 -10.21,24.58 -0.54,0.06 -1.1,0.09 -1.66,0.09 -5.22,0 -9.83,-2.64 -12.57,-6.65 4.99,-8.84 9.14,-16.48 13.14,-20l0.1 0.1c-3.26,5.57 -7.6,13.48 -7.76,19.6 -0.1,3.71 3.36,1.91 4.9,-0.04 4.56,-6.16 7.99,-12.01 13.41,-18.42zm2.1 2.94c1.19,2.16 1.86,4.65 1.86,7.29 0,6.7 -4.34,12.39 -10.36,14.41 0.01,-0.87 -0.04,-1.75 0.24,-2.81 1.6,-5.98 4.45,-12.3 8.26,-18.89z"/>
  </g>
 </g>
</svg>
