<?xml version="1.0" encoding="UTF-8"?>
<!DOCTYPE svg PUBLIC "-//W3C//DTD SVG 1.1//EN" "http://www.w3.org/Graphics/SVG/1.1/DTD/svg11.dtd">
<!-- Creator: CorelDRAW -->
<svg xmlns="http://www.w3.org/2000/svg" xml:space="preserve" width="32.383mm" height="8.415mm" version="1.1" style="shape-rendering:geometricPrecision; text-rendering:geometricPrecision; image-rendering:optimizeQuality; fill-rule:evenodd; clip-rule:evenodd"
viewBox="0 0 135.76 35.28"
 xmlns:xlink="http://www.w3.org/1999/xlink"
 xmlns:xodm="http://www.corel.com/coreldraw/odm/2003">
 <defs>
  <style type="text/css">
   <![CDATA[
    .fil1 {fill:white}
    .fil0 {fill:white;fill-rule:nonzero}
   ]]>
  </style>
 </defs>
 <g id="Слой_x0020_1">
  <metadata id="CorelCorpID_0Corel-Layer"/>
  <path class="fil0" d="M52.7 24.17c-0.96,0 -1.81,-0.17 -2.55,-0.52 -0.74,-0.34 -1.32,-0.83 -1.72,-1.46 -0.41,-0.63 -0.62,-1.35 -0.62,-2.17l3.06 0c0.01,0.34 0.1,0.63 0.27,0.87 0.17,0.24 0.39,0.41 0.68,0.52 0.29,0.11 0.62,0.16 0.99,0.16 0.3,0 0.57,-0.04 0.82,-0.13 0.24,-0.09 0.45,-0.22 0.6,-0.4 0.16,-0.18 0.24,-0.39 0.24,-0.63 0,-0.36 -0.19,-0.62 -0.56,-0.8 -0.37,-0.17 -0.93,-0.32 -1.68,-0.45 -0.47,-0.07 -0.86,-0.14 -1.17,-0.22 -0.31,-0.07 -0.68,-0.2 -1.1,-0.38 -0.42,-0.18 -0.76,-0.38 -1.01,-0.61 -0.25,-0.23 -0.48,-0.54 -0.66,-0.95 -0.19,-0.4 -0.28,-0.87 -0.28,-1.4 0,-1.09 0.43,-1.98 1.29,-2.67 0.86,-0.69 1.99,-1.03 3.39,-1.03 1.4,0 2.53,0.36 3.38,1.06 0.85,0.71 1.28,1.65 1.28,2.81l-2.99 0c0,-0.92 -0.58,-1.38 -1.74,-1.38 -0.49,0 -0.87,0.1 -1.14,0.3 -0.27,0.2 -0.41,0.47 -0.41,0.82 0,0.14 0.04,0.28 0.12,0.4 0.08,0.12 0.17,0.22 0.28,0.29 0.11,0.07 0.28,0.14 0.5,0.2 0.23,0.06 0.43,0.11 0.58,0.14 0.16,0.03 0.4,0.07 0.71,0.13 0.27,0.06 0.46,0.1 0.58,0.12 0.11,0.02 0.31,0.06 0.58,0.12 0.27,0.06 0.48,0.11 0.61,0.16 0.14,0.05 0.33,0.12 0.56,0.2 0.24,0.09 0.42,0.18 0.54,0.27 0.13,0.09 0.27,0.2 0.45,0.33 0.17,0.13 0.31,0.27 0.42,0.43 0.1,0.16 0.2,0.33 0.3,0.52 0.1,0.19 0.17,0.4 0.2,0.64 0.04,0.24 0.06,0.5 0.06,0.77 0,1.19 -0.45,2.14 -1.34,2.85 -0.89,0.71 -2.06,1.06 -3.53,1.06l0 0zm16.65 -11.96l2.34 0 0 11.61 -2.47 0 -0.26 -1.03c-1.06,0.92 -2.32,1.38 -3.76,1.38 -1.75,0 -3.2,-0.58 -4.36,-1.75 -1.15,-1.17 -1.73,-2.63 -1.73,-4.4 0,-1.75 0.57,-3.2 1.73,-4.37 1.15,-1.16 2.61,-1.74 4.36,-1.74 1.48,0 2.74,0.47 3.81,1.42l0.34 -1.12 0 0zm-6.16 8.09c0.59,0.6 1.35,0.9 2.26,0.9 0.91,0 1.67,-0.3 2.27,-0.9 0.6,-0.6 0.91,-1.36 0.91,-2.28 0,-0.92 -0.31,-1.68 -0.91,-2.28 -0.6,-0.6 -1.35,-0.9 -2.25,-0.9 -0.6,0 -1.15,0.14 -1.62,0.42 -0.48,0.28 -0.86,0.66 -1.13,1.14 -0.27,0.48 -0.41,1.02 -0.41,1.62 0,0.92 0.29,1.68 0.89,2.28zm11.52 3.55l0 -15.81 3.14 0 0 15.81 -3.14 0zm11.15 0.32c-1.19,0 -2.27,-0.27 -3.23,-0.8 -0.96,-0.53 -1.71,-1.27 -2.25,-2.2 -0.54,-0.94 -0.8,-1.98 -0.8,-3.13 0,-1.76 0.59,-3.23 1.78,-4.39 1.19,-1.16 2.69,-1.74 4.49,-1.74 1.79,0 3.29,0.58 4.48,1.74 1.19,1.16 1.78,2.62 1.78,4.39 0,1.75 -0.6,3.21 -1.8,4.38 -1.2,1.17 -2.69,1.75 -4.46,1.75l0 0zm0 -2.95c0.9,0 1.64,-0.3 2.22,-0.89 0.57,-0.59 0.86,-1.36 0.86,-2.29 0,-0.93 -0.29,-1.7 -0.86,-2.29 -0.57,-0.59 -1.32,-0.89 -2.23,-0.89 -0.91,0 -1.65,0.3 -2.22,0.89 -0.57,0.59 -0.86,1.36 -0.86,2.29 0,0.46 0.07,0.89 0.22,1.29 0.15,0.4 0.36,0.74 0.64,1.01 0.27,0.27 0.59,0.49 0.97,0.65 0.38,0.16 0.8,0.24 1.26,0.24l0 0zm21.01 -9.27c1.2,0 2.19,0.43 2.96,1.29 0.76,0.86 1.15,1.97 1.15,3.31l0 7.29 -3.14 0 0 -6.78c0,-1.58 -0.59,-2.37 -1.76,-2.37 -0.45,0 -0.85,0.11 -1.19,0.33 -0.34,0.22 -0.59,0.55 -0.76,0.98 -0.17,0.43 -0.26,0.95 -0.26,1.55l0 6.28 -3.08 0 0 -6.77c0,-1.58 -0.57,-2.37 -1.7,-2.37 -0.71,0 -1.27,0.25 -1.67,0.75 -0.41,0.5 -0.6,1.21 -0.6,2.11l0 6.28 -3.14 0 0 -11.61 2.19 0 0.58 1.44c0.43,-0.53 0.95,-0.95 1.56,-1.26 0.61,-0.31 1.25,-0.46 1.92,-0.46 0.73,0 1.39,0.17 1.98,0.49 0.59,0.33 1.05,0.79 1.38,1.38 0.14,-0.2 0.29,-0.38 0.45,-0.55 0.16,-0.16 0.34,-0.32 0.52,-0.45 0.19,-0.14 0.38,-0.26 0.58,-0.37 0.2,-0.11 0.41,-0.2 0.64,-0.27 0.22,-0.07 0.45,-0.13 0.69,-0.17 0.24,-0.04 0.48,-0.06 0.72,-0.06l0 0zm16.46 0.26l2.34 0 0 11.61 -2.48 0 -0.26 -1.03c-1.06,0.92 -2.32,1.38 -3.76,1.38 -1.75,0 -3.2,-0.59 -4.35,-1.75 -1.15,-1.17 -1.74,-2.63 -1.74,-4.4 0,-1.75 0.58,-3.21 1.74,-4.37 1.15,-1.16 2.6,-1.74 4.35,-1.74 1.48,0 2.75,0.47 3.81,1.42l0.35 -1.12 0 0zm-6.16 8.09c0.59,0.6 1.35,0.9 2.26,0.9 0.91,0 1.67,-0.3 2.27,-0.9 0.6,-0.6 0.9,-1.36 0.9,-2.28 0,-0.92 -0.3,-1.68 -0.9,-2.28 -0.6,-0.6 -1.36,-0.9 -2.26,-0.9 -0.6,0 -1.14,0.14 -1.62,0.42 -0.48,0.28 -0.85,0.66 -1.13,1.14 -0.27,0.48 -0.41,1.02 -0.41,1.62 0,0.92 0.3,1.68 0.9,2.28zm17.19 0.75l1.42 0 0 2.8 -2.21 0c-0.85,0 -1.58,-0.17 -2.2,-0.49 -0.62,-0.33 -1.11,-0.81 -1.43,-1.43 -0.33,-0.62 -0.49,-1.37 -0.49,-2.23l0 -4.95 -2.11 0 0 -0.67 4.6 -4.88 0.58 0 0 3.03 3.2 0 0 2.52 -3.14 0 0 4.54c0,0.56 0.15,0.99 0.46,1.3 0.31,0.31 0.75,0.46 1.32,0.46l0 0z"/>
  <path class="fil1" d="M-0 17.64c0,3.6 2.94,6.53 6.54,6.53l4.57 0 0 4.57c0,3.6 2.94,6.53 6.54,6.53 3.6,0 6.54,-2.94 6.54,-6.53 0,-1.55 0.02,-3.11 0,-4.65 -0.03,-1.26 -0.68,-2.42 -1.76,-3.28 -1.17,-0.94 -2.83,-1.52 -4.78,-1.52 -2.71,0 -5.11,-0.86 -6.85,-2.24 -1.74,-1.38 -2.82,-3.28 -2.98,-5.41 -0.02,-0.31 -0.28,-0.54 -0.59,-0.54l-0.69 0c-3.6,0 -6.54,2.93 -6.54,6.53l0 0z"/>
  <path class="fil1" d="M11.11 11.19c0.03,1.26 0.67,2.42 1.74,3.27 1.18,0.94 2.84,1.52 4.79,1.52 2.72,0 5.11,0.86 6.84,2.24 1.73,1.38 2.81,3.28 2.97,5.41 0.03,0.31 0.28,0.54 0.59,0.54l0.7 0c3.6,0 6.54,-2.94 6.54,-6.53 0,-3.6 -2.93,-6.53 -6.54,-6.53l-4.57 0 0 -4.57c0,-3.6 -2.94,-6.53 -6.54,-6.53 -3.6,0 -6.54,2.94 -6.54,6.53 0,1.55 -0.01,3.11 0.01,4.66l0 0z"/>
 </g>
</svg>
